<?xml version="1.0" encoding="utf-8"?>
<!-- Generator: Adobe Illustrator 16.0.0, SVG Export Plug-In . SVG Version: 6.00 Build 0)  -->
<!DOCTYPE svg PUBLIC "-//W3C//DTD SVG 1.1//EN" "http://www.w3.org/Graphics/SVG/1.1/DTD/svg11.dtd">
<svg version="1.1" xmlns="http://www.w3.org/2000/svg" xmlns:xlink="http://www.w3.org/1999/xlink" x="0px" y="0px"
	 width="158.693px" height="14.217px" viewBox="0 0 158.693 14.217" enable-background="new 0 0 158.693 14.217"
	 xml:space="preserve">
<g id="Guides">
</g>
<g id="_x31_2_Col_Grid" opacity="0.1" enable-background="new    ">
</g>
<g id="Layer_3">
	<g>
		<path fill="#F6D7B7" d="M4.417,10.203c0.459,0,0.869-0.077,1.23-0.232c0.36-0.155,0.666-0.371,0.916-0.65
			c0.25-0.278,0.441-0.611,0.572-0.998c0.132-0.387,0.197-0.812,0.197-1.276V0.31h1.493v6.737c0,0.64-0.102,1.232-0.306,1.779
			c-0.204,0.546-0.495,1.02-0.874,1.419c-0.379,0.399-0.842,0.713-1.389,0.939c-0.546,0.227-1.16,0.34-1.841,0.34
			s-1.294-0.113-1.841-0.34c-0.547-0.227-1.011-0.54-1.393-0.939c-0.382-0.4-0.674-0.873-0.878-1.419C0.103,8.279,0,7.687,0,7.047
			V0.31h1.493v6.729c0,0.464,0.065,0.89,0.197,1.276s0.322,0.719,0.572,0.998c0.25,0.278,0.557,0.496,0.921,0.653
			C3.547,10.124,3.958,10.203,4.417,10.203z"/>
		<path fill="#F6D7B7" d="M11.185,11.394V3.558h0.82c0.196,0,0.319,0.096,0.371,0.286l0.108,0.851
			c0.341-0.376,0.721-0.681,1.141-0.913c0.421-0.232,0.906-0.348,1.459-0.348c0.428,0,0.806,0.071,1.133,0.213
			c0.327,0.142,0.601,0.343,0.82,0.603c0.219,0.261,0.385,0.574,0.498,0.94c0.114,0.366,0.171,0.771,0.171,1.214v4.989h-1.377V6.405
			c0-0.593-0.136-1.053-0.406-1.381c-0.271-0.327-0.685-0.491-1.241-0.491c-0.408,0-0.788,0.098-1.142,0.294
			c-0.353,0.196-0.679,0.462-0.979,0.797v5.771H11.185z"/>
		<path fill="#F6D7B7" d="M22.889,3.435c0.469,0,0.902,0.079,1.299,0.236c0.397,0.157,0.74,0.384,1.029,0.681
			c0.289,0.297,0.515,0.663,0.677,1.099c0.162,0.436,0.243,0.932,0.243,1.489c0,0.217-0.022,0.361-0.069,0.433
			c-0.046,0.072-0.134,0.108-0.263,0.108h-5.214c0.011,0.495,0.077,0.926,0.201,1.292s0.294,0.671,0.511,0.917
			s0.475,0.428,0.773,0.549s0.635,0.182,1.006,0.182c0.345,0,0.643-0.04,0.894-0.12c0.25-0.08,0.465-0.166,0.646-0.259
			s0.331-0.179,0.452-0.259s0.226-0.12,0.313-0.12c0.113,0,0.201,0.044,0.263,0.132l0.387,0.502c-0.17,0.207-0.373,0.386-0.61,0.538
			c-0.237,0.152-0.491,0.277-0.762,0.375c-0.271,0.098-0.551,0.171-0.84,0.22c-0.289,0.049-0.575,0.074-0.858,0.074
			c-0.542,0-1.04-0.092-1.497-0.275c-0.456-0.183-0.851-0.451-1.184-0.804c-0.332-0.353-0.592-0.79-0.777-1.311
			s-0.278-1.119-0.278-1.795c0-0.546,0.084-1.057,0.252-1.531c0.167-0.475,0.408-0.886,0.723-1.234s0.699-0.622,1.152-0.82
			C21.811,3.534,22.321,3.435,22.889,3.435z M22.919,4.448c-0.665,0-1.188,0.192-1.57,0.576c-0.381,0.384-0.618,0.917-0.711,1.598
			h4.262c0-0.32-0.044-0.612-0.132-0.878c-0.087-0.266-0.216-0.495-0.387-0.688c-0.17-0.193-0.377-0.343-0.622-0.449
			S23.233,4.448,22.919,4.448z"/>
		<path fill="#F6D7B7" d="M29.263,7.379l-2.638-3.821h1.322c0.113,0,0.196,0.018,0.248,0.054c0.051,0.036,0.098,0.088,0.139,0.155
			l1.919,2.939c0.046-0.145,0.113-0.289,0.2-0.433l1.687-2.476c0.052-0.072,0.104-0.13,0.155-0.174
			c0.051-0.044,0.115-0.066,0.193-0.066h1.269l-2.638,3.744l2.746,4.092h-1.323c-0.113,0-0.202-0.03-0.267-0.089
			s-0.117-0.125-0.159-0.197l-1.972-3.071c-0.036,0.149-0.091,0.284-0.163,0.402l-1.825,2.669c-0.052,0.072-0.107,0.138-0.166,0.197
			c-0.06,0.059-0.141,0.089-0.244,0.089h-1.229L29.263,7.379z"/>
		<path fill="#F6D7B7" d="M35.226,14.047V3.558h0.82c0.196,0,0.319,0.096,0.371,0.286l0.116,0.928
			c0.335-0.407,0.718-0.734,1.148-0.982s0.927-0.372,1.489-0.372c0.448,0,0.856,0.086,1.223,0.259
			c0.365,0.173,0.678,0.428,0.936,0.766c0.258,0.338,0.456,0.757,0.596,1.257c0.139,0.5,0.209,1.075,0.209,1.725
			c0,0.578-0.077,1.115-0.232,1.613c-0.154,0.498-0.376,0.928-0.665,1.292c-0.289,0.363-0.644,0.649-1.063,0.858
			c-0.421,0.209-0.894,0.313-1.42,0.313c-0.484,0-0.898-0.08-1.241-0.24c-0.343-0.16-0.646-0.387-0.909-0.681v3.465H35.226z
			 M38.715,4.533c-0.449,0-0.842,0.104-1.18,0.31c-0.338,0.207-0.648,0.498-0.933,0.874v3.791c0.253,0.34,0.53,0.58,0.832,0.719
			s0.638,0.209,1.01,0.209c0.727,0,1.286-0.261,1.678-0.781c0.393-0.521,0.588-1.264,0.588-2.228c0-0.51-0.045-0.949-0.135-1.315
			c-0.091-0.366-0.221-0.667-0.391-0.901c-0.171-0.235-0.379-0.406-0.627-0.515C39.311,4.587,39.029,4.533,38.715,4.533z"/>
		<path fill="#F6D7B7" d="M46.868,3.435c0.469,0,0.902,0.079,1.299,0.236c0.397,0.157,0.74,0.384,1.029,0.681
			c0.289,0.297,0.515,0.663,0.677,1.099c0.162,0.436,0.243,0.932,0.243,1.489c0,0.217-0.022,0.361-0.069,0.433
			c-0.046,0.072-0.134,0.108-0.263,0.108H44.57c0.011,0.495,0.077,0.926,0.201,1.292s0.294,0.671,0.511,0.917
			s0.475,0.428,0.773,0.549s0.635,0.182,1.006,0.182c0.345,0,0.643-0.04,0.894-0.12c0.25-0.08,0.465-0.166,0.646-0.259
			s0.331-0.179,0.452-0.259s0.226-0.12,0.313-0.12c0.113,0,0.201,0.044,0.263,0.132l0.387,0.502c-0.17,0.207-0.373,0.386-0.61,0.538
			c-0.237,0.152-0.491,0.277-0.762,0.375c-0.271,0.098-0.551,0.171-0.84,0.22c-0.289,0.049-0.575,0.074-0.858,0.074
			c-0.542,0-1.04-0.092-1.497-0.275c-0.456-0.183-0.851-0.451-1.184-0.804c-0.332-0.353-0.592-0.79-0.777-1.311
			s-0.278-1.119-0.278-1.795c0-0.546,0.084-1.057,0.252-1.531c0.167-0.475,0.408-0.886,0.723-1.234s0.699-0.622,1.152-0.82
			C45.79,3.534,46.301,3.435,46.868,3.435z M46.898,4.448c-0.665,0-1.188,0.192-1.57,0.576c-0.381,0.384-0.618,0.917-0.711,1.598
			h4.262c0-0.32-0.044-0.612-0.132-0.878c-0.087-0.266-0.216-0.495-0.387-0.688c-0.17-0.193-0.377-0.343-0.622-0.449
			S47.213,4.448,46.898,4.448z"/>
		<path fill="#F6D7B7" d="M57.217,4.951c-0.042,0.057-0.083,0.101-0.124,0.131c-0.041,0.031-0.101,0.046-0.178,0.046
			s-0.161-0.032-0.252-0.097c-0.09-0.064-0.204-0.135-0.344-0.212c-0.14-0.078-0.309-0.148-0.507-0.213S55.37,4.51,55.082,4.51
			c-0.382,0-0.72,0.068-1.014,0.205s-0.54,0.334-0.738,0.592c-0.199,0.258-0.349,0.57-0.449,0.936
			c-0.101,0.366-0.15,0.776-0.15,1.23c0,0.475,0.054,0.896,0.162,1.265c0.108,0.369,0.261,0.678,0.456,0.928
			c0.196,0.25,0.435,0.441,0.716,0.573c0.281,0.131,0.597,0.197,0.947,0.197c0.336,0,0.611-0.04,0.828-0.12s0.396-0.169,0.541-0.267
			c0.145-0.098,0.264-0.187,0.356-0.267s0.186-0.12,0.278-0.12c0.118,0,0.206,0.044,0.263,0.132l0.387,0.502
			c-0.34,0.418-0.766,0.724-1.276,0.917s-1.049,0.29-1.616,0.29c-0.49,0-0.945-0.09-1.365-0.271
			c-0.421-0.18-0.785-0.442-1.095-0.785c-0.31-0.343-0.553-0.764-0.731-1.265c-0.178-0.5-0.267-1.07-0.267-1.709
			c0-0.583,0.081-1.122,0.244-1.617c0.162-0.495,0.399-0.921,0.711-1.28c0.312-0.358,0.697-0.638,1.157-0.839
			c0.458-0.201,0.984-0.302,1.577-0.302c0.547,0,1.031,0.089,1.455,0.267c0.422,0.178,0.796,0.43,1.121,0.754L57.217,4.951z"/>
		<path fill="#F6D7B7" d="M61.471,11.518c-0.619,0-1.095-0.172-1.427-0.518c-0.333-0.345-0.499-0.843-0.499-1.493V4.711h-0.943
			c-0.083,0-0.152-0.024-0.209-0.074c-0.058-0.049-0.085-0.125-0.085-0.228V3.86l1.283-0.163l0.317-2.421
			c0.011-0.077,0.044-0.141,0.101-0.189s0.129-0.074,0.217-0.074h0.696v2.7h2.243v0.998h-2.243v4.703c0,0.33,0.08,0.575,0.239,0.734
			c0.16,0.16,0.366,0.24,0.619,0.24c0.145,0,0.27-0.02,0.375-0.058s0.197-0.082,0.274-0.128c0.078-0.046,0.144-0.089,0.197-0.127
			c0.055-0.039,0.103-0.058,0.144-0.058c0.072,0,0.137,0.044,0.193,0.131l0.402,0.658c-0.237,0.222-0.523,0.396-0.858,0.522
			C62.172,11.455,61.827,11.518,61.471,11.518z"/>
		<path fill="#F6D7B7" d="M67.969,3.435c0.469,0,0.902,0.079,1.299,0.236c0.397,0.157,0.74,0.384,1.029,0.681
			c0.289,0.297,0.515,0.663,0.677,1.099c0.162,0.436,0.243,0.932,0.243,1.489c0,0.217-0.022,0.361-0.069,0.433
			c-0.046,0.072-0.134,0.108-0.263,0.108h-5.214c0.011,0.495,0.077,0.926,0.201,1.292s0.294,0.671,0.511,0.917
			s0.475,0.428,0.773,0.549s0.635,0.182,1.006,0.182c0.345,0,0.643-0.04,0.894-0.12c0.25-0.08,0.465-0.166,0.646-0.259
			s0.331-0.179,0.452-0.259s0.226-0.12,0.313-0.12c0.113,0,0.201,0.044,0.263,0.132l0.387,0.502c-0.17,0.207-0.373,0.386-0.61,0.538
			c-0.237,0.152-0.491,0.277-0.762,0.375c-0.271,0.098-0.551,0.171-0.84,0.22c-0.289,0.049-0.575,0.074-0.858,0.074
			c-0.542,0-1.04-0.092-1.497-0.275c-0.456-0.183-0.851-0.451-1.184-0.804c-0.332-0.353-0.592-0.79-0.777-1.311
			S64.31,7.993,64.31,7.317c0-0.546,0.084-1.057,0.252-1.531c0.167-0.475,0.408-0.886,0.723-1.234s0.699-0.622,1.152-0.82
			C66.891,3.534,67.401,3.435,67.969,3.435z M67.999,4.448c-0.665,0-1.188,0.192-1.57,0.576c-0.381,0.384-0.618,0.917-0.711,1.598
			h4.262c0-0.32-0.044-0.612-0.132-0.878c-0.087-0.266-0.216-0.495-0.387-0.688c-0.17-0.193-0.377-0.343-0.622-0.449
			S68.313,4.448,67.999,4.448z"/>
		<path fill="#F6D7B7" d="M78.488,11.394c-0.196,0-0.319-0.095-0.371-0.286l-0.124-0.952c-0.335,0.408-0.718,0.734-1.148,0.979
			c-0.431,0.245-0.925,0.368-1.481,0.368c-0.448,0-0.856-0.086-1.223-0.259s-0.678-0.427-0.936-0.762
			c-0.258-0.335-0.456-0.753-0.596-1.253c-0.139-0.5-0.209-1.075-0.209-1.725c0-0.578,0.078-1.115,0.232-1.613
			s0.378-0.93,0.669-1.296s0.646-0.653,1.063-0.862s0.893-0.313,1.424-0.313c0.479,0,0.89,0.082,1.229,0.244
			c0.341,0.163,0.645,0.391,0.913,0.685V0h1.377v11.394H78.488z M75.819,10.389c0.449,0,0.842-0.104,1.18-0.31
			s0.648-0.498,0.933-0.874V5.415c-0.253-0.34-0.53-0.579-0.832-0.715s-0.636-0.205-1.002-0.205c-0.731,0-1.294,0.261-1.686,0.781
			c-0.393,0.521-0.588,1.264-0.588,2.228c0,0.51,0.044,0.947,0.131,1.311c0.088,0.363,0.217,0.663,0.387,0.897
			c0.171,0.235,0.38,0.406,0.627,0.515S75.5,10.389,75.819,10.389z"/>
		<path fill="#F6D7B7" d="M90.362,11.394h-0.611c-0.135,0-0.242-0.021-0.325-0.062c-0.082-0.041-0.137-0.129-0.162-0.263
			l-0.155-0.727c-0.206,0.186-0.407,0.352-0.603,0.499c-0.196,0.147-0.402,0.271-0.619,0.372s-0.447,0.177-0.692,0.228
			s-0.517,0.077-0.816,0.077c-0.304,0-0.589-0.042-0.854-0.128c-0.266-0.085-0.496-0.213-0.692-0.384
			c-0.196-0.17-0.352-0.387-0.468-0.648s-0.174-0.57-0.174-0.928c0-0.31,0.085-0.609,0.255-0.896
			c0.17-0.288,0.445-0.542,0.824-0.765c0.379-0.223,0.875-0.405,1.488-0.547c0.614-0.142,1.364-0.213,2.251-0.213V6.393
			c0-0.612-0.13-1.075-0.391-1.389c-0.26-0.314-0.646-0.471-1.156-0.471c-0.335,0-0.617,0.043-0.847,0.128s-0.428,0.181-0.596,0.286
			c-0.168,0.106-0.312,0.201-0.434,0.286s-0.24,0.127-0.359,0.127c-0.093,0-0.174-0.024-0.243-0.073
			c-0.07-0.049-0.125-0.109-0.167-0.182l-0.247-0.441c0.433-0.418,0.899-0.73,1.4-0.936c0.5-0.206,1.054-0.31,1.662-0.31
			c0.438,0,0.828,0.072,1.169,0.217c0.34,0.145,0.626,0.345,0.858,0.603c0.231,0.258,0.407,0.57,0.525,0.936
			c0.119,0.366,0.179,0.769,0.179,1.207V11.394z M86.788,10.551c0.242,0,0.464-0.024,0.665-0.073s0.391-0.119,0.569-0.209
			c0.178-0.09,0.348-0.2,0.51-0.329c0.163-0.129,0.321-0.276,0.476-0.441V7.882c-0.634,0-1.173,0.04-1.616,0.121
			s-0.805,0.186-1.083,0.315c-0.278,0.13-0.48,0.283-0.607,0.459c-0.126,0.177-0.189,0.374-0.189,0.591
			c0,0.208,0.033,0.387,0.101,0.537s0.157,0.273,0.271,0.37c0.113,0.096,0.248,0.166,0.402,0.21
			C86.44,10.529,86.607,10.551,86.788,10.551z"/>
		<path fill="#F6D7B7" d="M97.965,11.394c-0.196,0-0.319-0.095-0.371-0.286l-0.124-0.952c-0.335,0.408-0.718,0.734-1.148,0.979
			c-0.431,0.245-0.925,0.368-1.481,0.368c-0.448,0-0.856-0.086-1.223-0.259s-0.678-0.427-0.936-0.762
			c-0.258-0.335-0.456-0.753-0.596-1.253c-0.139-0.5-0.209-1.075-0.209-1.725c0-0.578,0.078-1.115,0.232-1.613
			s0.378-0.93,0.669-1.296s0.646-0.653,1.063-0.862s0.893-0.313,1.424-0.313c0.479,0,0.89,0.082,1.229,0.244
			c0.341,0.163,0.645,0.391,0.913,0.685V0h1.377v11.394H97.965z M95.296,10.389c0.449,0,0.842-0.104,1.18-0.31
			s0.648-0.498,0.933-0.874V5.415c-0.253-0.34-0.53-0.579-0.832-0.715s-0.636-0.205-1.002-0.205c-0.731,0-1.294,0.261-1.686,0.781
			c-0.393,0.521-0.588,1.264-0.588,2.228c0,0.51,0.044,0.947,0.131,1.311c0.088,0.363,0.217,0.663,0.387,0.897
			c0.171,0.235,0.38,0.406,0.627,0.515S94.977,10.389,95.296,10.389z"/>
		<path fill="#F6D7B7" d="M100.108,3.558h1.129c0.108,0,0.198,0.029,0.271,0.085s0.124,0.124,0.155,0.201l1.987,5.043
			c0.072,0.186,0.129,0.372,0.171,0.557c0.041,0.186,0.079,0.369,0.115,0.549c0.042-0.181,0.086-0.364,0.132-0.549
			c0.047-0.186,0.105-0.372,0.178-0.557l2.012-5.043c0.03-0.082,0.081-0.15,0.15-0.205s0.156-0.082,0.259-0.082h1.075l-3.194,7.836
			h-1.245L100.108,3.558z"/>
		<path fill="#F6D7B7" d="M111.92,3.435c0.469,0,0.902,0.079,1.299,0.236c0.397,0.157,0.74,0.384,1.029,0.681
			c0.289,0.297,0.515,0.663,0.677,1.099c0.162,0.436,0.243,0.932,0.243,1.489c0,0.217-0.022,0.361-0.069,0.433
			c-0.046,0.072-0.134,0.108-0.263,0.108h-5.214c0.011,0.495,0.077,0.926,0.201,1.292s0.294,0.671,0.511,0.917
			s0.475,0.428,0.773,0.549s0.635,0.182,1.006,0.182c0.345,0,0.643-0.04,0.894-0.12c0.25-0.08,0.465-0.166,0.646-0.259
			s0.331-0.179,0.452-0.259s0.226-0.12,0.313-0.12c0.113,0,0.201,0.044,0.263,0.132l0.387,0.502c-0.17,0.207-0.373,0.386-0.61,0.538
			c-0.237,0.152-0.491,0.277-0.762,0.375c-0.271,0.098-0.551,0.171-0.84,0.22c-0.289,0.049-0.575,0.074-0.858,0.074
			c-0.542,0-1.04-0.092-1.497-0.275c-0.456-0.183-0.851-0.451-1.184-0.804c-0.332-0.353-0.592-0.79-0.777-1.311
			s-0.278-1.119-0.278-1.795c0-0.546,0.084-1.057,0.252-1.531c0.167-0.475,0.408-0.886,0.723-1.234s0.699-0.622,1.152-0.82
			C110.842,3.534,111.353,3.435,111.92,3.435z M111.95,4.448c-0.665,0-1.188,0.192-1.57,0.576c-0.381,0.384-0.618,0.917-0.711,1.598
			h4.262c0-0.32-0.044-0.612-0.132-0.878c-0.087-0.266-0.216-0.495-0.387-0.688c-0.17-0.193-0.377-0.343-0.622-0.449
			S112.265,4.448,111.95,4.448z"/>
		<path fill="#F6D7B7" d="M116.924,11.394V3.558h0.789c0.149,0,0.253,0.029,0.31,0.085s0.096,0.154,0.116,0.294l0.093,1.222
			c0.269-0.547,0.6-0.974,0.994-1.28s0.857-0.46,1.389-0.46c0.216,0,0.412,0.024,0.588,0.074c0.175,0.049,0.337,0.117,0.487,0.205
			l-0.178,1.029c-0.036,0.129-0.116,0.193-0.24,0.193c-0.072,0-0.184-0.024-0.333-0.073s-0.358-0.074-0.626-0.074
			c-0.479,0-0.881,0.14-1.203,0.418s-0.592,0.683-0.809,1.214v4.989H116.924z"/>
		<path fill="#F6D7B7" d="M125.533,11.518c-0.619,0-1.095-0.172-1.427-0.518c-0.333-0.345-0.499-0.843-0.499-1.493V4.711h-0.943
			c-0.083,0-0.152-0.024-0.209-0.074c-0.058-0.049-0.085-0.125-0.085-0.228V3.86l1.283-0.163l0.317-2.421
			c0.011-0.077,0.044-0.141,0.101-0.189s0.129-0.074,0.217-0.074h0.696v2.7h2.243v0.998h-2.243v4.703c0,0.33,0.08,0.575,0.239,0.734
			c0.16,0.16,0.366,0.24,0.619,0.24c0.145,0,0.27-0.02,0.375-0.058s0.197-0.082,0.274-0.128c0.078-0.046,0.144-0.089,0.197-0.127
			c0.055-0.039,0.103-0.058,0.144-0.058c0.072,0,0.137,0.044,0.193,0.131l0.402,0.658c-0.237,0.222-0.523,0.396-0.858,0.522
			C126.234,11.455,125.89,11.518,125.533,11.518z"/>
		<path fill="#F6D7B7" d="M130.77,1.099c0,0.134-0.027,0.259-0.082,0.375c-0.054,0.116-0.126,0.219-0.216,0.31
			c-0.091,0.09-0.195,0.161-0.313,0.212c-0.119,0.052-0.245,0.078-0.379,0.078c-0.135,0-0.26-0.026-0.375-0.078
			c-0.116-0.051-0.22-0.122-0.31-0.212c-0.091-0.09-0.161-0.193-0.213-0.31s-0.077-0.241-0.077-0.375
			c0-0.134,0.025-0.262,0.077-0.383c0.052-0.122,0.122-0.227,0.213-0.317c0.09-0.09,0.193-0.161,0.31-0.213
			c0.115-0.051,0.24-0.077,0.375-0.077c0.134,0,0.26,0.026,0.379,0.077c0.118,0.052,0.223,0.123,0.313,0.213
			c0.09,0.09,0.162,0.196,0.216,0.317C130.742,0.837,130.77,0.964,130.77,1.099z M130.46,3.558v7.836h-1.377V3.558H130.46z"/>
		<path fill="#F6D7B7" d="M137.376,4.85c-0.062,0.113-0.158,0.17-0.287,0.17c-0.077,0-0.165-0.028-0.263-0.085
			c-0.098-0.057-0.218-0.12-0.359-0.189s-0.311-0.134-0.507-0.193c-0.196-0.059-0.428-0.089-0.696-0.089
			c-0.231,0-0.44,0.03-0.626,0.089c-0.187,0.06-0.345,0.141-0.477,0.244c-0.131,0.103-0.231,0.223-0.301,0.36
			c-0.07,0.137-0.104,0.285-0.104,0.445c0,0.201,0.058,0.369,0.174,0.502c0.116,0.134,0.27,0.25,0.46,0.348
			c0.19,0.098,0.407,0.185,0.649,0.259c0.243,0.075,0.491,0.155,0.747,0.24c0.255,0.085,0.504,0.179,0.746,0.282
			c0.242,0.104,0.459,0.232,0.65,0.387c0.19,0.155,0.344,0.344,0.46,0.569c0.116,0.224,0.174,0.494,0.174,0.808
			c0,0.361-0.064,0.695-0.193,1.002c-0.129,0.307-0.319,0.572-0.572,0.796c-0.253,0.225-0.562,0.401-0.929,0.53
			c-0.366,0.129-0.789,0.193-1.269,0.193c-0.546,0-1.041-0.089-1.484-0.267c-0.444-0.178-0.82-0.406-1.13-0.685l0.325-0.526
			c0.041-0.067,0.09-0.119,0.146-0.155s0.132-0.054,0.225-0.054s0.19,0.036,0.294,0.108s0.229,0.152,0.375,0.24
			c0.147,0.088,0.325,0.167,0.534,0.24s0.47,0.108,0.785,0.108c0.268,0,0.502-0.035,0.703-0.104c0.201-0.07,0.369-0.164,0.503-0.282
			c0.135-0.119,0.233-0.255,0.298-0.41s0.097-0.32,0.097-0.495c0-0.216-0.058-0.396-0.174-0.538c-0.116-0.142-0.27-0.263-0.46-0.363
			c-0.191-0.101-0.409-0.188-0.654-0.263c-0.244-0.075-0.495-0.153-0.75-0.236s-0.505-0.177-0.75-0.282
			c-0.245-0.106-0.463-0.239-0.654-0.398c-0.19-0.16-0.344-0.357-0.46-0.592s-0.174-0.52-0.174-0.855
			c0-0.299,0.062-0.586,0.186-0.862s0.305-0.518,0.542-0.727c0.236-0.209,0.528-0.375,0.874-0.499
			c0.345-0.124,0.739-0.186,1.183-0.186c0.516,0,0.979,0.081,1.389,0.244s0.765,0.386,1.063,0.669L137.376,4.85z"/>
		<path fill="#F6D7B7" d="M141.444,1.099c0,0.134-0.027,0.259-0.082,0.375c-0.054,0.116-0.126,0.219-0.216,0.31
			c-0.091,0.09-0.195,0.161-0.313,0.212c-0.119,0.052-0.245,0.078-0.379,0.078c-0.135,0-0.26-0.026-0.375-0.078
			c-0.116-0.051-0.22-0.122-0.31-0.212c-0.091-0.09-0.161-0.193-0.213-0.31s-0.077-0.241-0.077-0.375
			c0-0.134,0.025-0.262,0.077-0.383c0.052-0.122,0.122-0.227,0.213-0.317c0.09-0.09,0.193-0.161,0.31-0.213
			c0.115-0.051,0.24-0.077,0.375-0.077c0.134,0,0.26,0.026,0.379,0.077c0.118,0.052,0.223,0.123,0.313,0.213
			c0.09,0.09,0.162,0.196,0.216,0.317C141.417,0.837,141.444,0.964,141.444,1.099z M141.135,3.558v7.836h-1.377V3.558H141.135z"/>
		<path fill="#F6D7B7" d="M143.562,11.394V3.558h0.82c0.196,0,0.319,0.096,0.371,0.286l0.108,0.851
			c0.341-0.376,0.721-0.681,1.141-0.913c0.421-0.232,0.906-0.348,1.459-0.348c0.428,0,0.806,0.071,1.133,0.213
			c0.327,0.142,0.601,0.343,0.82,0.603c0.219,0.261,0.385,0.574,0.498,0.94c0.114,0.366,0.171,0.771,0.171,1.214v4.989h-1.377V6.405
			c0-0.593-0.136-1.053-0.406-1.381c-0.271-0.327-0.685-0.491-1.241-0.491c-0.408,0-0.788,0.098-1.142,0.294
			c-0.353,0.196-0.679,0.462-0.979,0.797v5.771H143.562z"/>
		<path fill="#F6D7B7" d="M154.802,3.427c0.341,0,0.659,0.038,0.956,0.112c0.296,0.075,0.565,0.184,0.808,0.329h2.128v0.511
			c0,0.17-0.108,0.278-0.325,0.325l-0.89,0.124c0.176,0.335,0.263,0.709,0.263,1.122c0,0.382-0.073,0.729-0.22,1.041
			c-0.147,0.312-0.352,0.579-0.611,0.801c-0.261,0.222-0.57,0.392-0.929,0.51s-0.751,0.178-1.18,0.178
			c-0.366,0-0.711-0.044-1.036-0.132c-0.165,0.107-0.29,0.222-0.375,0.344s-0.128,0.243-0.128,0.36c0,0.192,0.075,0.337,0.225,0.436
			s0.348,0.169,0.596,0.212c0.247,0.043,0.528,0.064,0.843,0.064s0.636,0,0.963,0c0.328,0,0.648,0.029,0.963,0.086
			c0.315,0.057,0.596,0.151,0.844,0.282c0.247,0.13,0.446,0.311,0.596,0.541s0.224,0.527,0.224,0.893
			c0,0.339-0.083,0.668-0.251,0.986s-0.409,0.602-0.724,0.85s-0.698,0.446-1.152,0.595c-0.453,0.149-0.967,0.223-1.539,0.223
			s-1.074-0.057-1.505-0.17c-0.431-0.113-0.787-0.266-1.071-0.457c-0.283-0.191-0.496-0.412-0.638-0.662
			c-0.142-0.25-0.213-0.512-0.213-0.786c0-0.387,0.122-0.716,0.367-0.987s0.582-0.486,1.01-0.646
			c-0.222-0.103-0.398-0.241-0.53-0.413c-0.131-0.172-0.197-0.403-0.197-0.691c0-0.113,0.021-0.23,0.062-0.351
			c0.041-0.121,0.104-0.241,0.189-0.359c0.085-0.118,0.189-0.231,0.313-0.34c0.123-0.108,0.268-0.203,0.433-0.286
			c-0.387-0.217-0.689-0.504-0.909-0.862c-0.219-0.358-0.328-0.777-0.328-1.257c0-0.381,0.073-0.728,0.221-1.04
			c0.146-0.312,0.352-0.578,0.614-0.797c0.264-0.219,0.576-0.388,0.94-0.507C153.971,3.486,154.369,3.427,154.802,3.427z
			 M157.246,11.792c0-0.2-0.054-0.36-0.162-0.481c-0.108-0.121-0.255-0.214-0.44-0.28c-0.186-0.065-0.4-0.114-0.643-0.146
			c-0.242-0.031-0.497-0.047-0.766-0.047s-0.541,0-0.82,0c-0.278,0-0.544-0.035-0.796-0.104c-0.294,0.139-0.533,0.31-0.716,0.511
			c-0.184,0.201-0.274,0.441-0.274,0.72c0,0.176,0.045,0.34,0.135,0.492c0.091,0.152,0.229,0.284,0.414,0.395
			c0.186,0.111,0.419,0.199,0.7,0.264c0.281,0.064,0.612,0.097,0.994,0.097c0.371,0,0.704-0.034,0.998-0.103
			s0.542-0.166,0.746-0.292c0.203-0.126,0.359-0.276,0.468-0.45C157.192,12.194,157.246,12.002,157.246,11.792z M154.802,7.565
			c0.279,0,0.525-0.039,0.739-0.116c0.214-0.078,0.394-0.186,0.537-0.325c0.145-0.139,0.253-0.305,0.325-0.499
			s0.108-0.406,0.108-0.638c0-0.48-0.146-0.861-0.438-1.145c-0.291-0.284-0.715-0.425-1.272-0.425c-0.552,0-0.973,0.142-1.265,0.425
			c-0.291,0.284-0.437,0.665-0.437,1.145c0,0.232,0.037,0.445,0.112,0.638c0.074,0.193,0.184,0.359,0.328,0.499
			c0.145,0.14,0.322,0.248,0.534,0.325C154.286,7.526,154.529,7.565,154.802,7.565z"/>
	</g>
</g>
</svg>
