<?xml version="1.0" encoding="utf-8"?>
<!-- Generator: Adobe Illustrator 16.0.0, SVG Export Plug-In . SVG Version: 6.00 Build 0)  -->
<!DOCTYPE svg PUBLIC "-//W3C//DTD SVG 1.1//EN" "http://www.w3.org/Graphics/SVG/1.1/DTD/svg11.dtd">
<svg version="1.1" xmlns="http://www.w3.org/2000/svg" xmlns:xlink="http://www.w3.org/1999/xlink" x="0px" y="0px"
	 width="229.993px" height="20.722px" viewBox="0 0 229.993 20.722" enable-background="new 0 0 229.993 20.722"
	 xml:space="preserve">
<g id="Guides">
</g>
<g id="_x31_2_Col_Grid" opacity="0.1" enable-background="new    ">
</g>
<g id="Layer_3">
	<g>
		<path fill="#F6D7B7" d="M3.725,14.838c0.348,0.088,0.751,0.131,1.21,0.131c0.458,0,0.861-0.043,1.21-0.131
			c0.348-0.086,0.643-0.197,0.884-0.332s0.444-0.33,0.61-0.587s0.295-0.51,0.386-0.759c0.091-0.25,0.162-0.58,0.214-0.99
			c0.051-0.412,0.083-0.789,0.095-1.133s0.018-0.789,0.018-1.335V0.877h1.519v7.698c0,0.681-0.008,1.26-0.024,1.737
			c-0.016,0.479-0.049,0.984-0.101,1.52c-0.052,0.533-0.129,0.98-0.231,1.34s-0.235,0.722-0.397,1.085
			c-0.162,0.364-0.365,0.661-0.61,0.89c-0.245,0.229-0.534,0.438-0.866,0.623s-0.724,0.32-1.174,0.403
			c-0.451,0.083-0.961,0.124-1.53,0.124s-1.079-0.041-1.53-0.124c-0.45-0.083-0.842-0.218-1.174-0.403s-0.621-0.394-0.866-0.623
			c-0.245-0.229-0.449-0.525-0.611-0.89c-0.162-0.363-0.294-0.726-0.396-1.085c-0.104-0.359-0.181-0.807-0.231-1.34
			c-0.052-0.535-0.085-1.041-0.102-1.52C0.008,9.835,0,9.256,0,8.575V0.877h1.519v8.825c0,0.546,0.006,0.991,0.018,1.335
			s0.043,0.721,0.095,1.133c0.052,0.41,0.123,0.74,0.214,0.99c0.091,0.249,0.22,0.502,0.386,0.759s0.369,0.452,0.61,0.587
			S3.377,14.752,3.725,14.838z"/>
		<path fill="#F6D7B7" d="M14.519,6.357v9.75H13V4.424h1.246l0.106,0.76c0.775-0.364,1.424-0.611,1.945-0.742
			c0.522-0.131,1.083-0.195,1.685-0.195c1.202,0,2.089,0.328,2.663,0.984c0.573,0.656,0.859,1.66,0.859,3.013v7.864h-1.518V8.184
			c0-0.965-0.152-1.654-0.457-2.069s-0.849-0.623-1.631-0.623C16.697,5.491,15.57,5.78,14.519,6.357z"/>
		<path fill="#F6D7B7" d="M29.251,14.969c1.218,0,2.324-0.316,3.321-0.949l0.462,1.198c-0.537,0.332-1.139,0.583-1.803,0.753
			s-1.297,0.256-1.897,0.256c-1.598,0-2.835-0.482-3.713-1.447s-1.316-2.483-1.316-4.555c0-1.985,0.427-3.478,1.281-4.479
			c0.854-1,2.004-1.5,3.451-1.5c1.305,0,2.333,0.427,3.084,1.281c0.751,0.854,1.127,1.992,1.127,3.416
			c0,0.324-0.031,0.857-0.095,1.602h-7.331c0.008,0.703,0.079,1.322,0.214,1.855c0.135,0.534,0.305,0.961,0.51,1.281
			c0.206,0.32,0.461,0.58,0.766,0.777c0.304,0.197,0.61,0.332,0.919,0.402C28.539,14.934,28.879,14.969,29.251,14.969z
			 M29.049,5.491c-0.996,0-1.76,0.347-2.289,1.038c-0.53,0.691-0.842,1.674-0.938,2.947h6.015V8.884c0-1.036-0.252-1.86-0.754-2.474
			C30.581,5.798,29.903,5.491,29.049,5.491z"/>
		<path fill="#F6D7B7" d="M42.334,16.107l-2.799-5.018l-2.848,5.018h-1.542l3.523-5.979l-3.381-5.705h1.495l2.739,4.816l2.515-4.816
			h1.519L40.4,10.141l3.381,5.967H42.334z"/>
		<path fill="#F6D7B7" d="M47.647,15.598v5.124h-1.519V4.424h1.246l0.143,0.818c1.02-0.664,2.139-0.996,3.356-0.996
			c1.241,0,2.216,0.49,2.924,1.471s1.062,2.495,1.062,4.543c0,2.119-0.36,3.644-1.079,4.572c-0.72,0.93-1.808,1.395-3.262,1.395
			C49.45,16.227,48.494,16.017,47.647,15.598z M47.647,6.512v7.971c0.696,0.324,1.467,0.486,2.313,0.486h0.344
			c1.075,0,1.851-0.361,2.325-1.086c0.474-0.723,0.711-1.923,0.711-3.6c0-1.645-0.211-2.854-0.635-3.629
			c-0.423-0.775-1.097-1.163-2.021-1.163C49.838,5.491,48.826,5.832,47.647,6.512z"/>
		<path fill="#F6D7B7" d="M62.344,14.969c1.218,0,2.324-0.316,3.321-0.949l0.462,1.198c-0.537,0.332-1.139,0.583-1.803,0.753
			s-1.297,0.256-1.897,0.256c-1.598,0-2.835-0.482-3.713-1.447s-1.316-2.483-1.316-4.555c0-1.985,0.427-3.478,1.281-4.479
			c0.854-1,2.004-1.5,3.451-1.5c1.305,0,2.333,0.427,3.084,1.281c0.751,0.854,1.127,1.992,1.127,3.416
			c0,0.324-0.031,0.857-0.095,1.602h-7.331c0.008,0.703,0.079,1.322,0.214,1.855c0.135,0.534,0.305,0.961,0.51,1.281
			c0.206,0.32,0.461,0.58,0.766,0.777c0.304,0.197,0.61,0.332,0.919,0.402C61.632,14.934,61.972,14.969,62.344,14.969z
			 M62.142,5.491c-0.996,0-1.76,0.347-2.289,1.038c-0.53,0.691-0.842,1.674-0.938,2.947h6.015V8.884c0-1.036-0.252-1.86-0.754-2.474
			C63.674,5.798,62.996,5.491,62.142,5.491z"/>
		<path fill="#F6D7B7" d="M76.447,14.091l0.569,1.079c-0.965,0.705-2.116,1.057-3.452,1.057c-1.384,0-2.519-0.519-3.404-1.555
			c-0.886-1.035-1.328-2.514-1.328-4.436c0-3.994,1.534-5.99,4.602-5.99c1.076,0,2.115,0.237,3.12,0.711v3.061l-1.21,0.119V5.764
			c-0.521-0.205-1.166-0.308-1.934-0.308c-0.585,0-1.081,0.114-1.488,0.344s-0.724,0.565-0.949,1.009
			c-0.226,0.442-0.386,0.942-0.48,1.5S70.35,9.517,70.35,10.26c0,1.51,0.307,2.677,0.92,3.499c0.612,0.823,1.433,1.233,2.461,1.233
			C74.656,14.992,75.562,14.691,76.447,14.091z"/>
		<path fill="#F6D7B7" d="M83.398,16.227c-0.633-0.017-1.152-0.119-1.56-0.309s-0.726-0.488-0.955-0.896
			c-0.229-0.406-0.388-0.885-0.475-1.435s-0.13-1.243-0.13-2.081V5.491h-1.815V4.424h1.862l0.297-3.345h1.174v3.345h3.653v1.067
			h-3.653v6.038c0,0.759,0.042,1.375,0.125,1.85s0.221,0.824,0.415,1.051c0.193,0.225,0.397,0.371,0.61,0.438
			c0.214,0.068,0.499,0.102,0.854,0.102c0.814,0,1.407-0.027,1.779-0.083l0.06,1.222C85.008,16.187,84.26,16.227,83.398,16.227z"/>
		<path fill="#F6D7B7" d="M92.828,14.969c1.218,0,2.324-0.316,3.321-0.949l0.462,1.198c-0.537,0.332-1.139,0.583-1.803,0.753
			s-1.297,0.256-1.897,0.256c-1.598,0-2.835-0.482-3.713-1.447s-1.316-2.483-1.316-4.555c0-1.985,0.427-3.478,1.281-4.479
			c0.854-1,2.004-1.5,3.451-1.5c1.305,0,2.333,0.427,3.084,1.281c0.751,0.854,1.127,1.992,1.127,3.416
			c0,0.324-0.031,0.857-0.095,1.602h-7.331c0.008,0.703,0.079,1.322,0.214,1.855c0.135,0.534,0.305,0.961,0.51,1.281
			c0.206,0.32,0.461,0.58,0.766,0.777c0.304,0.197,0.61,0.332,0.919,0.402C92.116,14.934,92.456,14.969,92.828,14.969z
			 M92.626,5.491c-0.996,0-1.76,0.347-2.289,1.038c-0.53,0.691-0.842,1.674-0.938,2.947h6.015V8.884c0-1.036-0.252-1.86-0.754-2.474
			C94.158,5.798,93.48,5.491,92.626,5.491z"/>
		<path fill="#F6D7B7" d="M106.836,0h1.519v16.107h-1.233l-0.119-0.594c-0.885,0.475-1.842,0.713-2.87,0.713
			c-0.728,0-1.376-0.109-1.945-0.326c-0.569-0.218-1.073-0.559-1.512-1.021c-0.439-0.463-0.775-1.083-1.009-1.862
			s-0.35-1.698-0.35-2.758c0-0.83,0.079-1.584,0.237-2.26s0.373-1.243,0.646-1.702c0.272-0.458,0.599-0.844,0.979-1.156
			c0.379-0.312,0.786-0.54,1.222-0.683c0.435-0.143,0.894-0.213,1.376-0.213c0.537,0,1.039,0.063,1.506,0.189
			c0.467,0.127,0.984,0.367,1.554,0.724V0z M106.836,14.482V6.512c-0.648-0.371-1.188-0.635-1.619-0.789
			c-0.431-0.154-0.848-0.231-1.251-0.231c-0.965,0-1.728,0.401-2.289,1.204s-0.843,1.998-0.843,3.588
			c0,3.124,1.171,4.686,3.512,4.686h0.332C105.421,14.969,106.141,14.807,106.836,14.482z"/>
		<path fill="#F6D7B7" d="M120.014,4.934c1.4-0.458,2.617-0.688,3.653-0.688c0.585,0,1.111,0.081,1.578,0.243
			c0.466,0.162,0.884,0.415,1.251,0.759c0.368,0.344,0.652,0.814,0.854,1.412c0.201,0.597,0.302,1.307,0.302,2.129v7.318h-1.091
			l-0.237-0.783c-0.285,0.23-0.743,0.438-1.376,0.623s-1.253,0.279-1.862,0.279c-1.139,0-2.048-0.297-2.729-0.891
			c-0.68-0.593-1.02-1.459-1.02-2.598c0-0.363,0.058-0.701,0.172-1.014s0.312-0.615,0.593-0.907
			c0.281-0.292,0.637-0.544,1.068-0.753c0.431-0.21,0.982-0.376,1.654-0.498c0.672-0.123,1.439-0.185,2.301-0.185h1.044v-0.38
			c-0.008-1.297-0.235-2.205-0.682-2.728c-0.447-0.522-1.078-0.783-1.893-0.783c-0.118,0-0.247,0.007-0.385,0.019
			c-0.139,0.012-0.26,0.023-0.362,0.035s-0.243,0.035-0.421,0.07c-0.178,0.036-0.309,0.061-0.392,0.072s-0.231,0.043-0.444,0.095
			c-0.214,0.052-0.349,0.085-0.403,0.101c-0.056,0.016-0.208,0.056-0.457,0.119c-0.249,0.062-0.39,0.099-0.421,0.106L120.014,4.934z
			 M120.761,12.811c0,1.471,0.854,2.205,2.562,2.205c0.506,0,1.021-0.074,1.548-0.225s0.959-0.336,1.299-0.558v-3.736h-0.664
			c-0.38,0-0.728,0.01-1.044,0.029c-0.316,0.021-0.668,0.054-1.056,0.101c-0.388,0.048-0.728,0.127-1.021,0.238
			c-0.292,0.11-0.567,0.246-0.824,0.408s-0.454,0.374-0.593,0.635C120.83,12.17,120.761,12.471,120.761,12.811z"/>
		<path fill="#F6D7B7" d="M138.15,0h1.519v16.107h-1.233l-0.119-0.594c-0.885,0.475-1.842,0.713-2.87,0.713
			c-0.728,0-1.376-0.109-1.945-0.326c-0.569-0.218-1.073-0.559-1.512-1.021c-0.439-0.463-0.775-1.083-1.009-1.862
			s-0.35-1.698-0.35-2.758c0-0.83,0.079-1.584,0.237-2.26s0.373-1.243,0.646-1.702c0.272-0.458,0.599-0.844,0.979-1.156
			c0.379-0.312,0.786-0.54,1.222-0.683c0.435-0.143,0.894-0.213,1.376-0.213c0.537,0,1.039,0.063,1.506,0.189
			c0.467,0.127,0.984,0.367,1.554,0.724V0z M138.15,14.482V6.512c-0.648-0.371-1.188-0.635-1.619-0.789
			c-0.431-0.154-0.848-0.231-1.251-0.231c-0.965,0-1.728,0.401-2.289,1.204s-0.843,1.998-0.843,3.588
			c0,3.124,1.171,4.686,3.512,4.686h0.332C136.735,14.969,137.455,14.807,138.15,14.482z"/>
		<path fill="#F6D7B7" d="M146.821,14.482l3.001-10.059h1.554l-3.748,11.684h-1.625L142.1,4.424h1.542L146.821,14.482z"/>
		<path fill="#F6D7B7" d="M158.374,14.969c1.218,0,2.324-0.316,3.321-0.949l0.462,1.198c-0.537,0.332-1.139,0.583-1.803,0.753
			s-1.297,0.256-1.897,0.256c-1.598,0-2.835-0.482-3.713-1.447s-1.316-2.483-1.316-4.555c0-1.985,0.427-3.478,1.281-4.479
			c0.854-1,2.004-1.5,3.451-1.5c1.305,0,2.333,0.427,3.084,1.281c0.751,0.854,1.127,1.992,1.127,3.416
			c0,0.324-0.031,0.857-0.095,1.602h-7.331c0.008,0.703,0.079,1.322,0.214,1.855c0.135,0.534,0.305,0.961,0.51,1.281
			c0.206,0.32,0.461,0.58,0.766,0.777c0.304,0.197,0.61,0.332,0.919,0.402C157.662,14.934,158.002,14.969,158.374,14.969z
			 M158.172,5.491c-0.996,0-1.76,0.347-2.289,1.038c-0.53,0.691-0.842,1.674-0.938,2.947h6.015V8.884
			c0-1.036-0.252-1.86-0.754-2.474C159.704,5.798,159.026,5.491,158.172,5.491z"/>
		<path fill="#F6D7B7" d="M166.819,5.443c0.467-0.315,1.058-0.588,1.773-0.818c0.715-0.229,1.374-0.355,1.975-0.379v1.27
			c-0.688,0-1.386,0.104-2.094,0.314c-0.708,0.209-1.255,0.456-1.643,0.74v9.537h-1.519V4.424h1.447L166.819,5.443z"/>
		<path fill="#F6D7B7" d="M176.901,16.227c-0.633-0.017-1.152-0.119-1.56-0.309s-0.726-0.488-0.955-0.896
			c-0.229-0.406-0.388-0.885-0.475-1.435s-0.13-1.243-0.13-2.081V5.491h-1.815V4.424h1.862l0.297-3.345h1.174v3.345h3.653v1.067
			H175.3v6.038c0,0.759,0.042,1.375,0.125,1.85s0.221,0.824,0.415,1.051c0.193,0.225,0.397,0.371,0.61,0.438
			c0.214,0.068,0.499,0.102,0.854,0.102c0.814,0,1.407-0.027,1.779-0.083l0.06,1.222C178.511,16.187,177.763,16.227,176.901,16.227z
			"/>
		<path fill="#F6D7B7" d="M181.504,5.491V4.424h3.796V15.04h2.277v1.067h-6.073V15.04h2.277V5.491H181.504z M183.461,1.115
			c0-0.333,0.103-0.598,0.309-0.795c0.206-0.198,0.463-0.297,0.771-0.297c0.324,0,0.583,0.091,0.776,0.272
			c0.194,0.183,0.291,0.447,0.291,0.795c0,0.349-0.097,0.612-0.291,0.795c-0.193,0.182-0.452,0.272-0.776,0.272
			c-0.316,0-0.575-0.093-0.777-0.279C183.562,1.693,183.461,1.439,183.461,1.115z"/>
		<path fill="#F6D7B7" d="M189.914,14.127c0.396,0.221,0.907,0.417,1.536,0.587s1.231,0.255,1.809,0.255
			c0.728,0,1.314-0.156,1.762-0.469c0.446-0.312,0.67-0.824,0.67-1.535c0-0.555-0.127-0.967-0.38-1.24s-0.645-0.492-1.174-0.658
			l-1.779-0.558c-0.475-0.149-0.864-0.298-1.168-0.444c-0.305-0.146-0.588-0.336-0.849-0.57c-0.261-0.232-0.45-0.521-0.569-0.865
			c-0.118-0.344-0.178-0.758-0.178-1.24c0-1.059,0.363-1.848,1.091-2.365c0.728-0.519,1.646-0.777,2.752-0.777
			c1.107,0,2.159,0.229,3.155,0.688l-0.45,1.139c-0.814-0.387-1.681-0.581-2.598-0.581c-0.735,0-1.337,0.156-1.804,0.469
			c-0.466,0.312-0.699,0.809-0.699,1.489c0,0.506,0.128,0.861,0.386,1.066c0.257,0.206,0.717,0.416,1.382,0.629l1.743,0.558
			c0.641,0.206,1.141,0.429,1.501,0.671c0.359,0.24,0.636,0.564,0.83,0.973c0.193,0.406,0.29,0.923,0.29,1.547
			c0,0.594-0.103,1.111-0.308,1.555c-0.206,0.442-0.493,0.791-0.86,1.043c-0.368,0.254-0.773,0.439-1.216,0.559
			c-0.443,0.117-0.93,0.178-1.459,0.178c-1.312,0-2.613-0.312-3.902-0.938L189.914,14.127z"/>
		<path fill="#F6D7B7" d="M199.474,5.491V4.424h3.796V15.04h2.277v1.067h-6.073V15.04h2.277V5.491H199.474z M201.431,1.115
			c0-0.333,0.103-0.598,0.309-0.795c0.206-0.198,0.463-0.297,0.771-0.297c0.324,0,0.583,0.091,0.776,0.272
			c0.194,0.183,0.291,0.447,0.291,0.795c0,0.349-0.097,0.612-0.291,0.795c-0.193,0.182-0.452,0.272-0.776,0.272
			c-0.316,0-0.575-0.093-0.777-0.279C201.532,1.693,201.431,1.439,201.431,1.115z"/>
		<path fill="#F6D7B7" d="M209.283,6.357v9.75h-1.519V4.424h1.246l0.106,0.76c0.775-0.364,1.424-0.611,1.945-0.742
			c0.522-0.131,1.083-0.195,1.685-0.195c1.202,0,2.089,0.328,2.663,0.984c0.573,0.656,0.859,1.66,0.859,3.013v7.864h-1.518V8.184
			c0-0.965-0.152-1.654-0.457-2.069s-0.849-0.623-1.631-0.623C211.462,5.491,210.335,5.78,209.283,6.357z"/>
		<path fill="#F6D7B7" d="M226.589,4.519h3.404v1.115h-2.645c0.411,0.309,0.728,0.688,0.948,1.139
			c0.222,0.45,0.333,0.897,0.333,1.341c0,1.075-0.403,1.932-1.21,2.567c-0.807,0.637-1.866,0.955-3.18,0.955
			c-0.901,0-1.716-0.146-2.443-0.438c-0.521,0.846-0.782,1.479-0.782,1.897c0,0.189,0.031,0.374,0.095,0.552
			s0.126,0.307,0.189,0.385l0.083,0.119h4.496c1.249,0,2.121,0.193,2.615,0.581s0.741,1.009,0.741,1.862
			c0,0.324-0.05,0.641-0.148,0.949s-0.274,0.623-0.527,0.943c-0.254,0.319-0.573,0.6-0.961,0.842
			c-0.388,0.24-0.899,0.437-1.536,0.587c-0.637,0.149-1.358,0.226-2.165,0.226c-0.751,0-1.417-0.07-1.998-0.208
			c-0.582-0.138-1.038-0.308-1.37-0.51s-0.604-0.44-0.812-0.718c-0.21-0.277-0.351-0.533-0.421-0.771
			c-0.071-0.236-0.107-0.479-0.107-0.723c0-0.443,0.148-0.887,0.445-1.329c0.296-0.442,0.587-0.747,0.871-0.913
			c-0.261-0.174-0.466-0.419-0.616-0.735s-0.226-0.629-0.226-0.937c0-0.42,0.091-0.814,0.272-1.187
			c0.183-0.372,0.499-0.878,0.949-1.519c-0.878-0.735-1.316-1.617-1.316-2.645c0-1.242,0.429-2.169,1.287-2.782
			c0.857-0.612,1.967-0.919,3.327-0.919c0.355,0,0.771,0.045,1.245,0.137C225.901,4.473,226.289,4.519,226.589,4.519z
			 M223.968,18.895c1.281,0,2.242-0.217,2.883-0.652c0.641-0.435,0.96-0.953,0.96-1.554c0-0.45-0.116-0.788-0.35-1.015
			c-0.233-0.225-0.698-0.338-1.394-0.338h-4.495c-0.578,0.546-0.866,1.115-0.866,1.709c0,0.158,0.01,0.294,0.029,0.408
			c0.02,0.115,0.062,0.252,0.125,0.41s0.168,0.292,0.314,0.402c0.146,0.111,0.332,0.218,0.558,0.32
			c0.225,0.104,0.529,0.18,0.913,0.232C223.029,18.869,223.47,18.895,223.968,18.895z M224.253,5.373
			c-1.092,0-1.893,0.232-2.402,0.699s-0.765,1.088-0.765,1.863c0,0.822,0.269,1.451,0.807,1.885
			c0.537,0.436,1.284,0.652,2.241,0.652c1.013,0,1.783-0.201,2.313-0.604c0.529-0.403,0.794-1.004,0.794-1.803
			c0-0.774-0.253-1.417-0.759-1.928C225.977,5.628,225.233,5.373,224.253,5.373z"/>
	</g>
</g>
</svg>
