<?xml version="1.0" encoding="utf-8"?>
<!-- Generator: Adobe Illustrator 16.0.0, SVG Export Plug-In . SVG Version: 6.00 Build 0)  -->
<!DOCTYPE svg PUBLIC "-//W3C//DTD SVG 1.1//EN" "http://www.w3.org/Graphics/SVG/1.1/DTD/svg11.dtd">
<svg version="1.1" id="Layer_1" xmlns="http://www.w3.org/2000/svg" xmlns:xlink="http://www.w3.org/1999/xlink" x="0px" y="0px"
	 width="711.074px" height="147.398px" viewBox="0 0 711.074 147.398" enable-background="new 0 0 711.074 147.398"
	 xml:space="preserve">
<g id="Guides">
</g>
<g id="_x31_2_Col_Grid" opacity="0.1" enable-background="new    ">
</g>
<g>
	<g>
		<path fill="#F6D7B7" d="M0.197,112.927V94.188l58.962-51.321h-57.2V23.211h92.002v16.455L32.322,93.273h62.945v19.653
			L0.197,112.927L0.197,112.927z"/>
		<path fill="#F6D7B7" d="M217.371,108.486c-7.356,2.438-14.703,4.189-22.037,5.259c-7.335,1.065-14.833,1.6-22.495,1.6
			c-9.794,0-18.511-1.057-26.151-3.168c-7.639-2.108-14.071-5.168-19.294-9.174c-5.224-4.004-9.207-8.9-11.949-14.69
			c-2.742-5.789-4.114-12.341-4.114-19.653c0-6.79,1.382-13.093,4.147-18.902c2.764-5.812,6.681-10.86,11.753-15.148
			c5.07-4.287,11.198-7.64,18.38-10.057c7.183-2.416,15.192-3.622,24.029-3.622c8.139,0,15.595,1.101,22.364,3.297
			c6.768,2.197,12.58,5.451,17.434,9.763c4.853,4.31,8.619,9.621,11.296,15.933c2.677,6.312,4.016,13.581,4.016,21.81v6.007h-88.411
			c0.784,2.831,2.078,5.42,3.885,7.771c1.806,2.352,4.255,4.354,7.346,6.009c3.09,1.652,6.889,2.938,11.394,3.854
			c4.505,0.914,9.893,1.37,16.161,1.37c4.44,0,8.792-0.271,13.059-0.815c4.266-0.545,8.249-1.262,11.949-2.154
			c3.699-0.893,7.041-1.882,10.023-2.973c2.981-1.087,5.387-2.175,7.215-3.266V108.486z M200.655,59.973
			c-0.219-2.22-0.881-4.517-1.991-6.89c-1.111-2.373-2.864-4.518-5.257-6.433c-2.394-1.915-5.529-3.493-9.402-4.733
			c-3.875-1.24-8.707-1.859-14.496-1.859c-5.442,0-10.143,0.675-14.104,2.022c-3.961,1.351-7.28,3.025-9.958,5.027
			c-2.678,2.002-4.756,4.158-6.235,6.465c-1.481,2.308-2.438,4.439-2.873,6.398L200.655,59.973L200.655,59.973z"/>
		<path fill="#F6D7B7" d="M347.571,53.834c0,4.483-0.653,8.608-1.958,12.373c-1.308,3.769-3.407,7.01-6.301,9.729
			c-2.896,2.723-6.65,4.843-11.266,6.364c-4.615,1.525-10.229,2.286-16.847,2.286h-40.222v28.339h-24.225V23.211H311.2
			c6.617,0,12.23,0.75,16.847,2.252c4.613,1.503,8.368,3.614,11.264,6.334c2.896,2.722,4.995,5.953,6.303,9.697
			C346.917,45.238,347.571,49.352,347.571,53.834z M323.085,54.227c0-2.09-0.294-3.886-0.882-5.388
			c-0.587-1.502-1.557-2.73-2.906-3.688c-1.35-0.957-3.112-1.666-5.289-2.123s-4.854-0.685-8.032-0.685h-34.999v23.113h34.999
			c3.177,0,5.854-0.185,8.032-0.556c2.176-0.37,3.939-1.001,5.289-1.895c1.351-0.893,2.318-2.057,2.906-3.493
			C322.791,58.078,323.085,56.316,323.085,54.227z"/>
		<path fill="#F6D7B7" d="M453.482,112.927V75.514h-61.642v37.413h-24.225V23.211h24.225v32.647h61.642V23.211h24.223v89.717
			H453.482z"/>
		<path fill="#F6D7B7" d="M585.476,42.637c-1.239-0.369-2.688-0.74-4.342-1.11c-1.653-0.368-3.471-0.686-5.453-0.945
			c-1.979-0.262-4.014-0.394-6.104-0.394c-4.354,0-8.412,0.534-12.178,1.601c-3.767,1.067-7.279,2.481-10.545,4.246
			c-3.265,1.761-6.302,3.765-9.109,6.006c-2.807,2.242-5.387,4.537-7.736,6.89v54h-24.225v-89.72h24.225v14.562
			c2.914-2.176,5.908-4.274,8.979-6.303c3.067-2.022,6.268-3.818,9.598-5.386s6.844-2.817,10.545-3.754
			c3.699-0.938,7.617-1.404,11.754-1.404c1.566,0,3.166,0.076,4.799,0.229c1.634,0.153,3.224,0.339,4.769,0.557
			c1.543,0.219,2.992,0.457,4.34,0.72c1.351,0.262,2.525,0.521,3.527,0.782V43.52C587.664,43.301,586.716,43.006,585.476,42.637z"/>
		<path fill="#F6D7B7" d="M703.695,108.486c-7.357,2.438-14.703,4.189-22.037,5.259c-7.336,1.065-14.834,1.6-22.494,1.6
			c-9.795,0-18.512-1.057-26.15-3.168c-7.641-2.108-14.071-5.168-19.295-9.174c-5.225-4.004-9.209-8.9-11.951-14.69
			c-2.739-5.789-4.112-12.341-4.112-19.653c0-6.79,1.381-13.093,4.146-18.902c2.765-5.812,6.683-10.86,11.754-15.148
			c5.07-4.287,11.197-7.64,18.379-10.057c7.185-2.416,15.193-3.622,24.031-3.622c8.14,0,15.594,1.101,22.363,3.297
			c6.768,2.197,12.58,5.451,17.434,9.763c4.854,4.31,8.619,9.621,11.295,15.933c2.679,6.312,4.019,13.581,4.019,21.81v6.007h-88.41
			c0.783,2.831,2.078,5.42,3.885,7.771c1.806,2.352,4.254,4.354,7.345,6.009c3.092,1.652,6.891,2.938,11.396,3.854
			c4.504,0.914,9.891,1.37,16.16,1.37c4.438,0,8.793-0.271,13.059-0.815c4.267-0.544,8.25-1.262,11.949-2.154
			s7.041-1.882,10.021-2.973c2.982-1.087,5.39-2.175,7.218-3.266L703.695,108.486L703.695,108.486z M686.979,59.973
			c-0.218-2.22-0.882-4.517-1.99-6.89c-1.109-2.373-2.863-4.518-5.256-6.433c-2.396-1.915-5.529-3.493-9.404-4.733
			s-8.707-1.859-14.494-1.859c-5.443,0-10.145,0.675-14.104,2.022c-3.962,1.351-7.279,3.025-9.957,5.027
			c-2.679,2.002-4.757,4.158-6.236,6.465c-1.48,2.308-2.438,4.439-2.873,6.398L686.979,59.973L686.979,59.973z"/>
	</g>
	<g>
		<path fill="#F6D7B7" d="M479.679,147.399v-23.062h24.281v23.062H479.679z"/>
	</g>
</g>
<g>
	<g>
		<path fill="#F6D7B7" d="M643.071,16.435h-4.355l7.544-11.311h-9.827V1.979h14.438v2.673L643.071,16.435z"/>
		<path fill="#F6D7B7" d="M662.146,4.546c-0.927,0-1.729,0.088-2.41,0.264c-0.681,0.176-1.245,0.419-1.693,0.73
			c-0.448,0.312-0.788,0.677-1.016,1.094c-0.229,0.418-0.354,0.868-0.384,1.354c0.363-0.176,0.749-0.342,1.152-0.5
			s0.835-0.298,1.297-0.42c0.465-0.123,0.96-0.219,1.491-0.29c0.527-0.07,1.098-0.105,1.707-0.105c0.935,0,1.8,0.093,2.601,0.273
			c0.801,0.182,1.495,0.47,2.084,0.863c0.589,0.393,1.052,0.894,1.388,1.505c0.338,0.609,0.508,1.339,0.508,2.188
			c0,0.94-0.197,1.747-0.59,2.42c-0.395,0.673-0.935,1.227-1.622,1.657c-0.688,0.432-1.496,0.747-2.432,0.946
			c-0.932,0.2-1.942,0.301-3.028,0.301c-1.256,0-2.398-0.155-3.433-0.463c-1.029-0.31-1.916-0.771-2.659-1.388
			c-0.744-0.617-1.319-1.394-1.727-2.326c-0.408-0.934-0.609-2.021-0.609-3.263c0-1.065,0.182-2.07,0.542-3.014
			c0.361-0.942,0.919-1.768,1.674-2.473c0.753-0.705,1.711-1.264,2.872-1.673c1.159-0.411,2.536-0.615,4.128-0.615
			c0.472,0,0.956,0.018,1.452,0.052c0.497,0.035,0.985,0.083,1.461,0.144c0.479,0.059,0.931,0.128,1.353,0.204
			c0.425,0.078,0.798,0.158,1.122,0.242v3.24c-0.231-0.091-0.514-0.192-0.847-0.305c-0.333-0.113-0.719-0.215-1.157-0.312
			c-0.438-0.094-0.927-0.174-1.462-0.236C663.372,4.578,662.785,4.546,662.146,4.546z M656.716,11.174
			c0.078,0.296,0.236,0.597,0.479,0.906c0.24,0.31,0.558,0.591,0.946,0.847c0.391,0.257,0.847,0.467,1.368,0.632
			c0.521,0.164,1.105,0.247,1.751,0.247c0.513,0,0.994-0.04,1.447-0.121c0.451-0.081,0.846-0.206,1.178-0.374
			c0.334-0.168,0.598-0.381,0.789-0.638c0.192-0.255,0.289-0.558,0.289-0.91c0-0.379-0.078-0.7-0.229-0.968
			c-0.154-0.267-0.381-0.482-0.675-0.646c-0.295-0.165-0.658-0.286-1.088-0.363c-0.432-0.078-0.925-0.116-1.479-0.116
			c-0.457,0-0.909,0.042-1.363,0.126c-0.452,0.084-0.884,0.195-1.3,0.331c-0.412,0.138-0.8,0.297-1.161,0.479
			C657.308,10.789,656.992,10.978,656.716,11.174z"/>
		<path fill="#F6D7B7" d="M685.031,5.04h-9.616v2.22c0.224-0.042,0.472-0.078,0.746-0.109c0.274-0.032,0.559-0.06,0.853-0.079
			c0.295-0.021,0.595-0.039,0.895-0.053c0.303-0.015,0.601-0.021,0.895-0.021c1.173,0,2.221,0.105,3.143,0.315
			s1.701,0.519,2.339,0.926c0.64,0.407,1.127,0.909,1.465,1.504c0.335,0.596,0.505,1.284,0.505,2.062
			c0,0.723-0.158,1.392-0.47,2.004c-0.312,0.614-0.808,1.144-1.483,1.589s-1.555,0.795-2.635,1.048
			c-1.079,0.252-2.389,0.379-3.924,0.379c-0.708,0-1.385-0.026-2.027-0.08c-0.641-0.052-1.241-0.125-1.798-0.216
			c-0.559-0.09-1.067-0.192-1.524-0.305c-0.459-0.111-0.858-0.229-1.194-0.348v-3.408c0.301,0.141,0.658,0.285,1.067,0.438
			c0.411,0.15,0.888,0.287,1.433,0.411c0.542,0.122,1.157,0.223,1.839,0.305c0.688,0.08,1.45,0.12,2.301,0.12
			c1.569,0,2.719-0.167,3.439-0.5c0.723-0.333,1.085-0.791,1.085-1.373c0-0.688-0.396-1.194-1.187-1.52
			c-0.787-0.326-1.927-0.488-3.412-0.488c-0.5,0-0.987,0.016-1.469,0.052c-0.48,0.035-0.937,0.082-1.368,0.144
			c-0.432,0.059-0.833,0.129-1.203,0.21c-0.373,0.081-0.707,0.162-1,0.248h-0.948V1.979h13.259V5.04H685.031z"/>
		<path fill="#F6D7B7" d="M702.591,5.04h-9.617v2.22c0.224-0.042,0.474-0.078,0.746-0.109c0.274-0.032,0.561-0.06,0.853-0.079
			c0.297-0.021,0.594-0.039,0.895-0.053c0.303-0.015,0.603-0.021,0.895-0.021c1.174,0,2.221,0.105,3.143,0.315
			c0.923,0.21,1.702,0.519,2.34,0.926c0.639,0.407,1.127,0.909,1.464,1.504c0.336,0.596,0.505,1.284,0.505,2.062
			c0,0.723-0.156,1.392-0.469,2.004c-0.312,0.614-0.808,1.144-1.482,1.589c-0.677,0.445-1.557,0.795-2.636,1.048
			c-1.079,0.252-2.39,0.379-3.924,0.379c-0.709,0-1.385-0.026-2.026-0.08c-0.642-0.052-1.242-0.125-1.799-0.216
			c-0.559-0.09-1.067-0.192-1.524-0.305c-0.46-0.111-0.858-0.229-1.194-0.348v-3.408c0.3,0.141,0.656,0.285,1.067,0.438
			c0.41,0.15,0.888,0.287,1.432,0.411c0.542,0.122,1.156,0.223,1.84,0.305c0.686,0.08,1.45,0.12,2.3,0.12
			c1.569,0,2.718-0.167,3.44-0.5c0.722-0.333,1.083-0.791,1.083-1.373c0-0.688-0.394-1.194-1.185-1.52
			c-0.789-0.326-1.927-0.488-3.412-0.488c-0.499,0-0.988,0.016-1.469,0.052c-0.481,0.035-0.938,0.082-1.368,0.144
			c-0.433,0.059-0.833,0.129-1.203,0.21c-0.374,0.081-0.707,0.162-1,0.248h-0.948V1.979h13.259V5.04H702.591z"/>
	</g>
	<path fill="#F6D7B7" d="M504.594,9.282c0,0.655,0.06,1.261,0.179,1.814c0.121,0.554,0.303,1.083,0.55,1.591
		c0.249,0.506,0.559,1.002,0.936,1.479c0.377,0.479,0.827,0.976,1.35,1.479l-2.188,2.357c-0.649-0.514-1.237-1.068-1.771-1.659
		c-0.533-0.594-0.99-1.24-1.377-1.946c-0.384-0.704-0.682-1.479-0.893-2.321c-0.211-0.842-0.316-1.776-0.316-2.797
		c0-1.024,0.105-1.956,0.316-2.798c0.211-0.843,0.509-1.616,0.893-2.322c0.385-0.705,0.844-1.353,1.377-1.941
		c0.533-0.588,1.121-1.144,1.771-1.665l2.188,2.358c-0.521,0.508-0.973,1.002-1.35,1.481c-0.377,0.477-0.687,0.972-0.936,1.479
		c-0.247,0.508-0.429,1.038-0.55,1.592C504.653,8.021,504.594,8.627,504.594,9.282z"/>
	<path fill="#F6D7B7" d="M520.235,4.565c-0.931,0-1.735,0.087-2.423,0.264c-0.684,0.176-1.25,0.42-1.701,0.735
		c-0.451,0.312-0.793,0.681-1.022,1.099c-0.229,0.42-0.356,0.874-0.385,1.358c0.369-0.175,0.752-0.342,1.158-0.502
		c0.403-0.157,0.841-0.301,1.305-0.423c0.468-0.123,0.966-0.222,1.497-0.291c0.531-0.07,1.104-0.105,1.719-0.105
		c0.938,0,1.811,0.091,2.614,0.274c0.803,0.185,1.499,0.473,2.093,0.866c0.594,0.396,1.061,0.9,1.396,1.515
		c0.338,0.612,0.509,1.344,0.509,2.199c0,0.945-0.198,1.756-0.593,2.431c-0.396,0.678-0.938,1.232-1.629,1.666
		s-1.507,0.751-2.443,0.953s-1.951,0.303-3.043,0.303c-1.262,0-2.412-0.155-3.449-0.467c-1.037-0.311-1.929-0.774-2.679-1.396
		c-0.746-0.62-1.323-1.397-1.731-2.336c-0.41-0.938-0.611-2.031-0.611-3.278c0-1.072,0.18-2.082,0.541-3.028
		c0.364-0.948,0.926-1.778,1.681-2.485c0.76-0.708,1.722-1.27,2.89-1.682c1.164-0.413,2.548-0.62,4.151-0.62
		c0.473,0,0.96,0.019,1.456,0.054c0.503,0.033,0.993,0.082,1.474,0.145c0.479,0.058,0.932,0.126,1.359,0.205
		c0.426,0.076,0.802,0.158,1.126,0.242v3.258c-0.233-0.093-0.519-0.194-0.853-0.306c-0.336-0.112-0.725-0.219-1.164-0.312
		c-0.442-0.096-0.931-0.176-1.471-0.24C521.467,4.596,520.88,4.565,520.235,4.565z M514.778,11.227
		c0.077,0.298,0.236,0.601,0.48,0.911c0.242,0.31,0.562,0.593,0.951,0.85c0.391,0.258,0.849,0.469,1.374,0.634
		c0.527,0.166,1.114,0.249,1.763,0.249c0.517,0,0.999-0.04,1.454-0.124c0.455-0.081,0.851-0.207,1.186-0.374
		c0.333-0.17,0.601-0.381,0.793-0.64c0.193-0.257,0.29-0.562,0.29-0.915c0-0.38-0.076-0.706-0.229-0.975
		c-0.157-0.268-0.383-0.483-0.679-0.649c-0.297-0.165-0.662-0.288-1.094-0.365c-0.435-0.078-0.93-0.119-1.484-0.119
		c-0.461,0-0.918,0.043-1.371,0.129c-0.456,0.083-0.89,0.197-1.307,0.33c-0.415,0.14-0.807,0.299-1.171,0.483
		C515.373,10.841,515.055,11.03,514.778,11.227z"/>
	<path fill="#F6D7B7" d="M538.756,4.565c-0.931,0-1.738,0.087-2.423,0.264c-0.684,0.176-1.252,0.42-1.703,0.735
		c-0.451,0.312-0.789,0.681-1.021,1.099c-0.229,0.42-0.357,0.874-0.387,1.358c0.367-0.175,0.754-0.342,1.158-0.502
		c0.404-0.157,0.842-0.301,1.307-0.423c0.466-0.123,0.964-0.222,1.495-0.291c0.533-0.07,1.106-0.105,1.722-0.105
		c0.937,0,1.809,0.091,2.61,0.274c0.806,0.185,1.503,0.473,2.097,0.866c0.591,0.396,1.056,0.9,1.396,1.515
		c0.338,0.612,0.508,1.344,0.508,2.199c0,0.945-0.198,1.756-0.594,2.431c-0.395,0.678-0.937,1.232-1.627,1.666
		s-1.504,0.751-2.442,0.953c-0.938,0.202-1.952,0.303-3.046,0.303c-1.264,0-2.414-0.155-3.448-0.467
		c-1.035-0.311-1.929-0.774-2.676-1.396c-0.748-0.62-1.326-1.397-1.734-2.336c-0.408-0.938-0.614-2.031-0.614-3.278
		c0-1.072,0.181-2.082,0.545-3.028c0.363-0.948,0.924-1.778,1.683-2.485c0.757-0.708,1.721-1.27,2.887-1.682
		c1.165-0.413,2.552-0.62,4.15-0.62c0.475,0,0.959,0.019,1.46,0.054c0.501,0.033,0.989,0.082,1.471,0.145
		c0.479,0.058,0.933,0.126,1.358,0.205c0.426,0.076,0.804,0.158,1.127,0.242v3.258c-0.229-0.093-0.518-0.194-0.852-0.306
		c-0.333-0.112-0.724-0.219-1.163-0.312c-0.439-0.096-0.931-0.176-1.472-0.24C539.988,4.594,539.398,4.565,538.756,4.565z
		 M533.301,11.227c0.075,0.298,0.235,0.601,0.478,0.911c0.243,0.31,0.562,0.593,0.953,0.85c0.392,0.258,0.851,0.469,1.376,0.634
		c0.525,0.168,1.111,0.249,1.76,0.249c0.516,0,1-0.04,1.455-0.124c0.456-0.082,0.85-0.207,1.185-0.374
		c0.334-0.17,0.6-0.381,0.793-0.64c0.193-0.257,0.291-0.562,0.291-0.915c0-0.38-0.077-0.706-0.23-0.975
		c-0.157-0.268-0.381-0.483-0.679-0.649c-0.296-0.165-0.661-0.288-1.095-0.365c-0.434-0.078-0.929-0.119-1.483-0.119
		c-0.457,0-0.917,0.043-1.372,0.129c-0.453,0.083-0.889,0.197-1.306,0.33c-0.417,0.14-0.805,0.299-1.17,0.483
		C533.892,10.841,533.574,11.03,533.301,11.227z"/>
	<path fill="#F6D7B7" d="M550.708,16.516V4.883l-3.903,1.219V3.189l3.903-1.207h3.901v14.534H550.708z"/>
	<path fill="#F6D7B7" d="M561.951,9.282c0-0.655-0.062-1.261-0.183-1.815c-0.118-0.554-0.302-1.083-0.549-1.592
		c-0.245-0.508-0.56-1.002-0.936-1.479c-0.377-0.48-0.827-0.976-1.351-1.482l1.323-1.428V1.465l0.866-0.908
		c0.642,0.484,1.221,1.024,1.734,1.618c0.387,0.437,0.741,0.903,1.058,1.396c0.317,0.494,0.589,1.021,0.815,1.582
		c0.226,0.561,0.403,1.162,0.532,1.804c0.13,0.642,0.203,1.328,0.218,2.062v0.266c0,0.776-0.062,1.496-0.187,2.168
		c-0.122,0.669-0.298,1.293-0.521,1.876c-0.227,0.578-0.503,1.125-0.826,1.627c-0.324,0.502-0.688,0.981-1.09,1.435
		c-0.239,0.268-0.486,0.523-0.746,0.768c-0.257,0.241-0.52,0.476-0.787,0.702c-0.035,0.021-0.069,0.042-0.1,0.064
		c-0.033,0.021-0.064,0.05-0.103,0.082l-0.866-0.907v-0.021l-1.322-1.429c0.521-0.507,0.972-1.002,1.347-1.479
		c0.377-0.477,0.69-0.973,0.937-1.479c0.248-0.509,0.433-1.038,0.551-1.591C561.889,10.543,561.951,9.938,561.951,9.282z"/>
	<path fill="#F6D7B7" d="M586.487,8.763c0.726,0.161,1.348,0.357,1.861,0.588c0.516,0.228,0.936,0.492,1.259,0.791
		c0.324,0.3,0.562,0.636,0.709,1.006s0.223,0.772,0.223,1.212c0,0.761-0.205,1.428-0.618,1.996
		c-0.411,0.569-0.982,1.044-1.713,1.423c-0.729,0.377-1.594,0.66-2.586,0.847c-0.995,0.188-2.07,0.281-3.228,0.281
		c-0.776,0-1.487-0.034-2.136-0.101c-0.648-0.068-1.246-0.154-1.793-0.261c-0.547-0.105-1.049-0.223-1.507-0.354
		c-0.46-0.129-0.886-0.262-1.28-0.396v-3.478c0.438,0.231,0.93,0.438,1.477,0.624c0.547,0.183,1.109,0.339,1.691,0.472
		c0.582,0.131,1.168,0.23,1.761,0.296c0.593,0.067,1.153,0.102,1.681,0.102c0.96,0,1.724-0.06,2.297-0.177
		c0.57-0.115,1.004-0.266,1.299-0.442c0.297-0.179,0.489-0.372,0.578-0.576c0.087-0.204,0.132-0.399,0.132-0.581
		c0-0.312-0.102-0.58-0.303-0.805c-0.2-0.226-0.553-0.413-1.058-0.562c-0.503-0.146-1.188-0.258-2.045-0.331
		c-0.864-0.074-1.946-0.116-3.26-0.123V7.337c1.191,0,2.18-0.025,2.967-0.076c0.786-0.048,1.416-0.125,1.889-0.23
		c0.473-0.107,0.806-0.243,1-0.414c0.194-0.169,0.29-0.377,0.29-0.625c0-0.078-0.014-0.162-0.036-0.254
		c-0.024-0.091-0.08-0.187-0.165-0.284c-0.085-0.1-0.209-0.195-0.371-0.285c-0.162-0.091-0.382-0.173-0.666-0.244
		c-0.281-0.07-0.632-0.127-1.048-0.171c-0.416-0.041-0.917-0.062-1.502-0.062c-0.55,0-1.107,0.026-1.677,0.083
		c-0.566,0.057-1.124,0.141-1.666,0.254c-0.542,0.114-1.067,0.25-1.577,0.413c-0.507,0.163-0.977,0.352-1.406,0.572v-3.47
		c0.96-0.318,1.985-0.552,3.08-0.705c1.092-0.15,2.178-0.227,3.246-0.227c1.052,0,2.043,0.07,2.979,0.213
		c0.934,0.139,1.751,0.365,2.453,0.673c0.701,0.307,1.255,0.703,1.666,1.194c0.409,0.491,0.613,1.083,0.613,1.783
		c0,0.373-0.066,0.726-0.196,1.061c-0.128,0.335-0.337,0.644-0.619,0.925c-0.279,0.284-0.646,0.533-1.087,0.752
		C587.65,8.433,587.117,8.615,586.487,8.763z"/>
	<path fill="#F6D7B7" d="M599.01,16.516h-4.379l7.583-11.373h-9.879v-3.16h14.51V4.67L599.01,16.516z"/>
	<path fill="#F6D7B7" d="M622.668,5.061h-9.666v2.23c0.227-0.041,0.479-0.078,0.752-0.109c0.274-0.033,0.562-0.061,0.855-0.078
		c0.297-0.024,0.597-0.041,0.898-0.055c0.305-0.015,0.604-0.021,0.899-0.021c1.177,0,2.229,0.104,3.157,0.316
		c0.928,0.211,1.711,0.521,2.352,0.932c0.642,0.409,1.132,0.913,1.472,1.511c0.339,0.602,0.509,1.291,0.509,2.076
		c0,0.727-0.157,1.396-0.471,2.014c-0.314,0.618-0.81,1.147-1.491,1.599c-0.68,0.446-1.563,0.798-2.65,1.051
		c-1.083,0.253-2.4,0.381-3.944,0.381c-0.711,0-1.392-0.027-2.034-0.08c-0.646-0.052-1.246-0.124-1.81-0.216
		c-0.562-0.093-1.072-0.193-1.532-0.307c-0.462-0.113-0.861-0.229-1.201-0.351v-3.427c0.302,0.142,0.661,0.289,1.074,0.438
		c0.413,0.153,0.892,0.29,1.439,0.415c0.546,0.125,1.163,0.226,1.851,0.309c0.685,0.078,1.455,0.122,2.31,0.122
		c1.579,0,2.73-0.167,3.458-0.502c0.729-0.336,1.091-0.795,1.091-1.381c0-0.689-0.396-1.2-1.189-1.529
		c-0.791-0.325-1.937-0.489-3.432-0.489c-0.499,0-0.99,0.017-1.477,0.052c-0.48,0.034-0.94,0.083-1.375,0.143
		c-0.435,0.062-0.836,0.132-1.211,0.213c-0.376,0.081-0.712,0.164-1.005,0.249h-0.952v-8.58h13.326v3.079h-0.003V5.061z"/>
	<path fill="#F6D7B7" d="M626.667,10.993v-3.47h8.673v3.47H626.667z"/>
</g>
<g>
	<path fill="#F6D7B7" d="M2.166,15.978V6.085h3.857v9.893H2.166z"/>
	<path fill="#F6D7B7" d="M18.299,4.802v11.175h-3.857V4.802H8.382V1.693h15.99v3.109H18.299z"/>
	<path fill="#F6D7B7" d="M40.08,5.716c-0.27-0.131-0.627-0.28-1.07-0.446c-0.444-0.167-0.946-0.324-1.507-0.473
		c-0.562-0.149-1.172-0.274-1.83-0.375c-0.658-0.101-1.335-0.15-2.027-0.15c-0.555,0-1.028,0.017-1.419,0.051
		c-0.392,0.035-0.721,0.08-0.988,0.136c-0.267,0.055-0.478,0.119-0.634,0.192c-0.156,0.072-0.275,0.147-0.358,0.223
		c-0.083,0.076-0.137,0.152-0.161,0.229s-0.037,0.146-0.037,0.208c0,0.209,0.104,0.391,0.312,0.545
		c0.208,0.157,0.492,0.296,0.852,0.417c0.361,0.122,0.781,0.235,1.259,0.343c0.478,0.107,0.985,0.219,1.522,0.333
		c0.538,0.114,1.092,0.239,1.664,0.375c0.571,0.135,1.126,0.292,1.664,0.473c0.538,0.181,1.045,0.39,1.523,0.629
		c0.479,0.239,0.897,0.519,1.258,0.836c0.36,0.319,0.644,0.687,0.853,1.102c0.208,0.417,0.311,0.891,0.311,1.425
		c0,0.687-0.121,1.275-0.363,1.767c-0.244,0.492-0.567,0.908-0.973,1.248c-0.405,0.34-0.875,0.613-1.409,0.816
		c-0.534,0.205-1.094,0.363-1.679,0.474c-0.586,0.11-1.178,0.183-1.778,0.218c-0.6,0.035-1.169,0.052-1.71,0.052
		c-1.414,0-2.722-0.116-3.925-0.348c-1.202-0.232-2.264-0.522-3.187-0.868v-3.411c0.95,0.527,2.033,0.94,3.249,1.237
		c1.217,0.299,2.518,0.447,3.904,0.447c0.817,0,1.485-0.042,2.001-0.129c0.516-0.086,0.92-0.197,1.21-0.333
		c0.292-0.135,0.489-0.282,0.593-0.442c0.104-0.159,0.157-0.312,0.157-0.457c0-0.229-0.104-0.428-0.312-0.598
		c-0.209-0.17-0.492-0.319-0.853-0.447c-0.36-0.128-0.78-0.245-1.258-0.353c-0.478-0.107-0.986-0.215-1.522-0.323
		c-0.538-0.107-1.09-0.223-1.658-0.347c-0.569-0.125-1.122-0.272-1.658-0.442c-0.539-0.17-1.046-0.367-1.524-0.593
		c-0.478-0.226-0.897-0.492-1.258-0.8c-0.36-0.308-0.645-0.666-0.853-1.071c-0.208-0.405-0.312-0.875-0.312-1.409
		c0-0.631,0.111-1.174,0.333-1.632c0.221-0.458,0.521-0.847,0.9-1.169c0.377-0.323,0.814-0.584,1.31-0.785
		c0.495-0.201,1.017-0.358,1.564-0.469c0.547-0.109,1.102-0.187,1.663-0.228C32.48,1.35,33.014,1.33,33.52,1.33
		c0.555,0,1.125,0.027,1.71,0.083c0.585,0.056,1.163,0.134,1.731,0.235c0.568,0.1,1.118,0.216,1.648,0.347
		c0.531,0.132,1.021,0.271,1.471,0.417V5.716z"/>
	<path fill="#F6D7B7" d="M61.207,12.038c0,0.554-0.073,1.036-0.218,1.445c-0.146,0.409-0.349,0.761-0.608,1.055
		c-0.261,0.294-0.573,0.534-0.936,0.717c-0.365,0.184-0.766,0.33-1.207,0.437c-0.439,0.107-0.91,0.182-1.409,0.224
		c-0.499,0.042-1.016,0.062-1.549,0.062H44.915V1.693h10.178c0.409,0,0.82,0.018,1.232,0.052c0.412,0.035,0.806,0.099,1.18,0.192
		s0.723,0.224,1.044,0.39c0.323,0.166,0.604,0.385,0.842,0.654c0.239,0.271,0.427,0.597,0.562,0.978s0.202,0.832,0.202,1.351
		c0,0.929-0.228,1.666-0.686,2.21c-0.458,0.543-1.178,0.907-2.163,1.086c0.694,0.049,1.288,0.155,1.783,0.317s0.9,0.385,1.211,0.666
		c0.312,0.28,0.541,0.624,0.687,1.029C61.134,11.024,61.207,11.497,61.207,12.038z M56.392,5.924c0-0.18-0.027-0.351-0.083-0.514
		c-0.055-0.163-0.156-0.307-0.301-0.431c-0.145-0.125-0.342-0.226-0.592-0.302c-0.25-0.076-0.569-0.114-0.958-0.114h-5.686v2.683
		h5.686c0.389,0,0.708-0.035,0.958-0.104c0.25-0.07,0.447-0.163,0.592-0.281c0.146-0.118,0.247-0.258,0.301-0.421
		C56.365,6.276,56.392,6.105,56.392,5.924z M57.287,11.591c0-0.325-0.056-0.586-0.167-0.785c-0.111-0.198-0.284-0.35-0.52-0.458
		c-0.235-0.107-0.541-0.178-0.915-0.213c-0.374-0.035-0.821-0.052-1.341-0.052h-5.572v3.025h5.572c0.52,0,0.967-0.017,1.341-0.051
		c0.375-0.035,0.68-0.108,0.915-0.218c0.235-0.11,0.409-0.266,0.52-0.463C57.231,12.177,57.287,11.916,57.287,11.591z"/>
	<path fill="#F6D7B7" d="M80.647,15.271c-1.171,0.388-2.341,0.667-3.509,0.837c-1.167,0.169-2.361,0.254-3.582,0.254
		c-1.559,0-2.947-0.167-4.164-0.504c-1.216-0.336-2.24-0.823-3.072-1.461c-0.832-0.637-1.465-1.417-1.902-2.339
		c-0.438-0.922-0.655-1.966-0.655-3.129c0-1.082,0.22-2.085,0.66-3.01c0.441-0.925,1.064-1.729,1.872-2.412
		c0.807-0.683,1.783-1.216,2.926-1.601c1.143-0.385,2.419-0.576,3.826-0.576c1.296,0,2.483,0.175,3.561,0.525
		c1.078,0.35,2.003,0.868,2.777,1.554c0.772,0.687,1.372,1.532,1.798,2.537c0.426,1.005,0.639,2.163,0.639,3.473v0.957H67.745
		c0.125,0.45,0.331,0.863,0.619,1.237s0.678,0.693,1.169,0.956c0.493,0.264,1.097,0.468,1.815,0.613
		c0.717,0.146,1.575,0.219,2.572,0.219c0.708,0,1.401-0.044,2.079-0.13c0.68-0.087,1.314-0.201,1.904-0.343
		c0.589-0.143,1.12-0.3,1.595-0.474c0.476-0.172,0.858-0.345,1.149-0.519V15.271z M77.986,7.546
		c-0.035-0.353-0.14-0.719-0.317-1.096c-0.177-0.378-0.456-0.719-0.836-1.024c-0.382-0.305-0.881-0.556-1.497-0.753
		c-0.617-0.198-1.387-0.297-2.308-0.297c-0.867,0-1.616,0.108-2.247,0.323s-1.158,0.481-1.585,0.801
		c-0.426,0.318-0.757,0.661-0.993,1.029c-0.235,0.366-0.388,0.707-0.458,1.018H77.986z"/>
	<path fill="#F6D7B7" d="M93.123,4.802v11.175h-3.856V4.802h-6.062V1.693h15.99v3.109H93.123z"/>
	<path fill="#F6D7B7" d="M109.747,4.802v11.175h-3.857V4.802h-6.061V1.693h15.99v3.109H109.747z"/>
	<path fill="#F6D7B7" d="M134.293,15.271c-1.171,0.388-2.342,0.667-3.509,0.837c-1.167,0.169-2.361,0.254-3.582,0.254
		c-1.559,0-2.947-0.167-4.164-0.504c-1.216-0.336-2.24-0.823-3.072-1.461c-0.831-0.637-1.466-1.417-1.902-2.339
		c-0.437-0.922-0.655-1.966-0.655-3.129c0-1.082,0.22-2.085,0.661-3.01c0.439-0.925,1.063-1.729,1.871-2.412
		c0.808-0.683,1.783-1.216,2.927-1.601c1.144-0.385,2.419-0.576,3.826-0.576c1.296,0,2.483,0.175,3.561,0.525
		c1.078,0.35,2.003,0.868,2.776,1.554c0.772,0.687,1.373,1.532,1.799,2.537c0.426,1.005,0.639,2.163,0.639,3.473v0.957h-14.076
		c0.124,0.45,0.33,0.863,0.619,1.237c0.288,0.374,0.677,0.693,1.169,0.956c0.492,0.264,1.097,0.468,1.814,0.613
		c0.718,0.146,1.576,0.219,2.574,0.219c0.707,0,1.4-0.044,2.079-0.13c0.679-0.087,1.313-0.201,1.902-0.343
		c0.59-0.143,1.122-0.3,1.596-0.474c0.476-0.172,0.858-0.345,1.149-0.519V15.271z M131.631,7.546
		c-0.035-0.353-0.14-0.719-0.317-1.096c-0.177-0.378-0.456-0.719-0.837-1.024s-0.88-0.556-1.497-0.753
		c-0.617-0.198-1.386-0.297-2.308-0.297c-0.866,0-1.615,0.108-2.246,0.323c-0.63,0.215-1.159,0.481-1.585,0.801
		c-0.426,0.318-0.757,0.661-0.993,1.029c-0.235,0.366-0.389,0.707-0.457,1.018H131.631z"/>
	<path fill="#F6D7B7" d="M151.66,4.786c-0.197-0.059-0.428-0.118-0.691-0.178c-0.263-0.058-0.553-0.108-0.868-0.149
		c-0.315-0.042-0.64-0.062-0.972-0.062c-0.693,0-1.339,0.084-1.939,0.255c-0.6,0.169-1.159,0.395-1.679,0.676
		c-0.521,0.28-1.004,0.599-1.451,0.957c-0.447,0.356-0.857,0.722-1.232,1.096v8.598h-3.857V1.693h3.857v2.319
		c0.464-0.347,0.941-0.681,1.43-1.003c0.488-0.323,0.998-0.608,1.528-0.857c0.53-0.25,1.089-0.45,1.678-0.599
		c0.59-0.148,1.214-0.223,1.872-0.223c0.25,0,0.504,0.012,0.764,0.036s0.513,0.053,0.758,0.088c0.247,0.035,0.478,0.073,0.692,0.115
		c0.215,0.042,0.403,0.083,0.562,0.124v3.233C152.009,4.892,151.857,4.845,151.66,4.786z"/>
	<path fill="#F6D7B7" d="M165.015,11.445c-0.146,0.132-0.304,0.267-0.473,0.406c-0.17,0.138-0.371,0.263-0.603,0.374
		s-0.5,0.202-0.806,0.276c-0.306,0.072-0.666,0.109-1.082,0.109c-0.478,0-0.925-0.066-1.341-0.198
		c-0.416-0.131-0.779-0.327-1.091-0.587c-0.312-0.26-0.557-0.581-0.733-0.962c-0.177-0.381-0.265-0.818-0.265-1.31
		c0-0.499,0.073-0.956,0.219-1.372s0.339-0.792,0.582-1.128c0.242-0.336,0.52-0.63,0.831-0.884c0.312-0.252,0.64-0.462,0.983-0.629
		c0.343-0.165,0.686-0.292,1.029-0.379c0.343-0.086,0.664-0.129,0.961-0.129c0.478,0,0.87,0.062,1.175,0.187
		c0.305,0.125,0.537,0.243,0.697,0.353l0.083-0.384h2.423l-0.634,3.868c-0.007,0.021-0.018,0.076-0.031,0.167
		c-0.014,0.09-0.027,0.187-0.042,0.292c-0.014,0.104-0.025,0.199-0.036,0.286c-0.011,0.086-0.015,0.136-0.015,0.15
		c0,0.077,0.008,0.16,0.026,0.25c0.017,0.09,0.052,0.173,0.104,0.25c0.052,0.076,0.122,0.14,0.213,0.192
		c0.09,0.052,0.208,0.078,0.354,0.078c0.388,0,0.71-0.104,0.967-0.312c0.256-0.208,0.459-0.462,0.608-0.764
		c0.149-0.302,0.255-0.621,0.317-0.956c0.062-0.336,0.094-0.636,0.094-0.9c0-0.589-0.095-1.138-0.286-1.647
		c-0.19-0.51-0.511-0.952-0.961-1.325c-0.451-0.375-1.045-0.669-1.783-0.884c-0.738-0.215-1.651-0.323-2.739-0.323
		c-0.811,0-1.548,0.077-2.209,0.229c-0.663,0.153-1.251,0.361-1.768,0.625c-0.516,0.263-0.961,0.574-1.336,0.936
		c-0.374,0.36-0.684,0.749-0.931,1.164c-0.246,0.416-0.428,0.849-0.545,1.299c-0.119,0.451-0.177,0.901-0.177,1.352
		c0,0.651,0.101,1.265,0.302,1.84c0.2,0.576,0.544,1.078,1.029,1.507c0.485,0.43,1.128,0.77,1.928,1.019
		c0.801,0.25,1.801,0.374,3,0.374c0.402,0,0.772-0.01,1.107-0.031c0.336-0.021,0.646-0.052,0.931-0.093
		c0.285-0.042,0.549-0.093,0.796-0.151c0.245-0.059,0.486-0.129,0.722-0.212l0.665,2.328c-0.256,0.091-0.556,0.172-0.899,0.244
		c-0.342,0.073-0.705,0.135-1.086,0.188c-0.381,0.052-0.771,0.091-1.169,0.12c-0.398,0.027-0.782,0.042-1.149,0.042
		c-1.552,0-2.908-0.167-4.064-0.5c-1.158-0.333-2.12-0.811-2.886-1.435c-0.766-0.623-1.339-1.377-1.72-2.261
		c-0.381-0.883-0.573-1.876-0.573-2.978c0-0.743,0.113-1.455,0.338-2.137c0.226-0.683,0.547-1.322,0.967-1.918
		c0.42-0.596,0.927-1.138,1.523-1.627c0.597-0.488,1.263-0.91,2.002-1.263c0.737-0.354,1.542-0.626,2.412-0.817
		c0.87-0.19,1.787-0.285,2.75-0.285c1.019,0,1.945,0.083,2.781,0.249c0.835,0.167,1.58,0.399,2.235,0.696
		c0.655,0.299,1.222,0.654,1.7,1.066c0.478,0.413,0.875,0.861,1.189,1.347c0.316,0.486,0.55,1,0.702,1.544
		c0.152,0.544,0.229,1.1,0.229,1.669c0,0.637-0.103,1.249-0.307,1.834c-0.204,0.586-0.514,1.104-0.93,1.555
		c-0.416,0.451-0.943,0.811-1.58,1.082c-0.639,0.271-1.391,0.405-2.257,0.405c-0.27,0-0.533-0.024-0.79-0.072
		c-0.256-0.048-0.492-0.122-0.707-0.219c-0.214-0.097-0.406-0.218-0.576-0.363C165.234,11.809,165.104,11.639,165.015,11.445z
		 M162.499,10.78c0.235,0,0.443-0.031,0.624-0.094c0.18-0.062,0.343-0.146,0.489-0.25c0.146-0.104,0.279-0.225,0.4-0.364
		c0.121-0.139,0.233-0.284,0.338-0.437l0.385-2.131c-0.07-0.104-0.155-0.195-0.26-0.275c-0.104-0.08-0.213-0.147-0.328-0.203
		c-0.114-0.055-0.234-0.097-0.358-0.125c-0.125-0.028-0.243-0.042-0.354-0.042c-0.312,0-0.608,0.07-0.889,0.208
		c-0.28,0.138-0.525,0.324-0.733,0.556c-0.208,0.232-0.372,0.504-0.494,0.816c-0.121,0.312-0.182,0.644-0.182,0.998
		c0,0.18,0.024,0.353,0.073,0.514c0.048,0.163,0.128,0.306,0.239,0.427c0.11,0.121,0.252,0.218,0.426,0.291
		C162.048,10.743,162.255,10.78,162.499,10.78z"/>
	<g>
		<path fill="#F6D7B7" d="M2.156,4.792V1.674h3.868v3.118H2.156L2.156,4.792z"/>
	</g>
</g>
</svg>
