<?xml version="1.0" encoding="utf-8"?>
<!-- Generator: Adobe Illustrator 16.0.0, SVG Export Plug-In . SVG Version: 6.00 Build 0)  -->
<!DOCTYPE svg PUBLIC "-//W3C//DTD SVG 1.1//EN" "http://www.w3.org/Graphics/SVG/1.1/DTD/svg11.dtd">
<svg version="1.1" id="Layer_1" xmlns="http://www.w3.org/2000/svg" xmlns:xlink="http://www.w3.org/1999/xlink" x="0px" y="0px"
	 width="410.482px" height="89.172px" viewBox="0 0 410.482 89.172" enable-background="new 0 0 410.482 89.172"
	 xml:space="preserve">
<g>
	<path fill="#F6D7B7" d="M350.008,13.217h-3.625l6.278-9.414h-8.179V1.185h12.015v2.225L350.008,13.217z"/>
	<path fill="#F6D7B7" d="M365.884,3.321c-0.771,0-1.439,0.073-2.006,0.219s-1.036,0.349-1.409,0.608
		c-0.374,0.26-0.656,0.563-0.846,0.911c-0.189,0.348-0.296,0.723-0.319,1.125c0.304-0.146,0.623-0.285,0.959-0.416
		s0.696-0.248,1.081-0.35c0.386-0.102,0.799-0.183,1.239-0.241c0.44-0.058,0.915-0.087,1.423-0.087c0.776,0,1.498,0.076,2.163,0.228
		c0.666,0.152,1.244,0.392,1.734,0.718c0.49,0.327,0.875,0.744,1.155,1.252c0.28,0.508,0.421,1.115,0.421,1.821
		c0,0.782-0.164,1.454-0.49,2.014c-0.327,0.561-0.777,1.02-1.349,1.379c-0.572,0.359-1.247,0.622-2.023,0.788
		c-0.776,0.167-1.617,0.25-2.521,0.25c-1.045,0-1.997-0.129-2.855-0.386c-0.857-0.257-1.597-0.642-2.215-1.156
		c-0.619-0.514-1.098-1.159-1.437-1.935s-0.508-1.682-0.508-2.715c0-0.887,0.15-1.724,0.451-2.509s0.765-1.471,1.393-2.058
		c0.627-0.586,1.424-1.051,2.391-1.392c0.966-0.342,2.111-0.512,3.437-0.512c0.392,0,0.794,0.015,1.209,0.043
		c0.414,0.029,0.82,0.069,1.217,0.119c0.397,0.049,0.772,0.106,1.125,0.17c0.354,0.064,0.664,0.131,0.933,0.202v2.697
		c-0.192-0.076-0.428-0.16-0.704-0.254c-0.277-0.093-0.599-0.179-0.964-0.258c-0.364-0.079-0.771-0.145-1.217-0.197
		C366.903,3.348,366.415,3.321,365.884,3.321z M361.365,8.838c0.063,0.245,0.197,0.496,0.398,0.753
		c0.201,0.257,0.464,0.492,0.788,0.705c0.324,0.213,0.703,0.388,1.139,0.525c0.435,0.137,0.92,0.206,1.458,0.206
		c0.426,0,0.827-0.033,1.204-0.101c0.376-0.067,0.703-0.171,0.98-0.311c0.277-0.14,0.496-0.317,0.656-0.53
		c0.161-0.213,0.241-0.466,0.241-0.758c0-0.315-0.064-0.583-0.192-0.806c-0.129-0.222-0.315-0.401-0.561-0.539
		c-0.245-0.137-0.548-0.238-0.906-0.302c-0.359-0.064-0.77-0.097-1.23-0.097c-0.38,0-0.758,0.035-1.134,0.105
		c-0.377,0.07-0.737,0.162-1.082,0.275c-0.345,0.114-0.667,0.247-0.968,0.398C361.856,8.518,361.593,8.675,361.365,8.838z"/>
	<path fill="#F6D7B7" d="M384.931,3.733h-8.004v1.848c0.187-0.035,0.394-0.065,0.622-0.092c0.228-0.026,0.464-0.048,0.709-0.065
		c0.245-0.018,0.493-0.032,0.744-0.044s0.499-0.018,0.744-0.018c0.976,0,1.847,0.087,2.614,0.263s1.417,0.432,1.948,0.771
		c0.531,0.339,0.938,0.756,1.218,1.252s0.42,1.068,0.42,1.716c0,0.602-0.13,1.157-0.39,1.668c-0.26,0.511-0.672,0.952-1.234,1.322
		c-0.563,0.371-1.295,0.662-2.194,0.872c-0.898,0.21-1.987,0.315-3.266,0.315c-0.59,0-1.152-0.022-1.687-0.066
		s-1.033-0.104-1.497-0.18c-0.464-0.076-0.888-0.16-1.27-0.254c-0.383-0.093-0.714-0.189-0.994-0.289V9.916
		c0.251,0.117,0.548,0.238,0.889,0.363c0.342,0.125,0.738,0.239,1.191,0.342c0.452,0.102,0.963,0.187,1.532,0.254
		c0.569,0.067,1.207,0.101,1.913,0.101c1.308,0,2.263-0.139,2.864-0.416c0.601-0.277,0.901-0.658,0.901-1.143
		c0-0.572-0.328-0.994-0.985-1.266c-0.656-0.271-1.604-0.407-2.841-0.407c-0.415,0-0.822,0.015-1.222,0.044
		c-0.4,0.029-0.779,0.068-1.139,0.118s-0.693,0.108-1.003,0.175c-0.31,0.067-0.587,0.136-0.832,0.206h-0.788V1.185h11.034V3.733z"/>
	<path fill="#F6D7B7" d="M399.546,3.733h-8.004v1.848c0.187-0.035,0.394-0.065,0.622-0.092c0.228-0.026,0.464-0.048,0.709-0.065
		c0.245-0.018,0.493-0.032,0.744-0.044s0.499-0.018,0.744-0.018c0.976,0,1.847,0.087,2.614,0.263s1.417,0.432,1.948,0.771
		c0.531,0.339,0.938,0.756,1.218,1.252s0.42,1.068,0.42,1.716c0,0.602-0.13,1.157-0.39,1.668c-0.26,0.511-0.672,0.952-1.234,1.322
		c-0.563,0.371-1.295,0.662-2.194,0.872c-0.898,0.21-1.987,0.315-3.266,0.315c-0.59,0-1.152-0.022-1.687-0.066
		s-1.033-0.104-1.497-0.18c-0.464-0.076-0.888-0.16-1.27-0.254c-0.383-0.093-0.714-0.189-0.994-0.289V9.916
		c0.251,0.117,0.548,0.238,0.889,0.363c0.342,0.125,0.738,0.239,1.191,0.342c0.452,0.102,0.963,0.187,1.532,0.254
		c0.569,0.067,1.207,0.101,1.913,0.101c1.308,0,2.263-0.139,2.864-0.416c0.601-0.277,0.901-0.658,0.901-1.143
		c0-0.572-0.328-0.994-0.985-1.266c-0.656-0.271-1.604-0.407-2.841-0.407c-0.415,0-0.822,0.015-1.222,0.044
		c-0.4,0.029-0.779,0.068-1.139,0.118s-0.693,0.108-1.003,0.175c-0.31,0.067-0.587,0.136-0.832,0.206h-0.788V1.185h11.034V3.733z"/>
</g>
<g id="Guides">
</g>
<g id="_x31_2_Col_Grid" opacity="0.1" enable-background="new    ">
</g>
<g>
	<g>
		<path fill="#F6D7B7" d="M0,69.268v-10.82l34.047-29.635H1.018v-11.35h53.125v9.502L18.551,57.918h36.346v11.35H0z"/>
		<path fill="#F6D7B7" d="M125.403,66.703c-4.247,1.408-8.489,2.42-12.726,3.035c-4.235,0.615-8.565,0.923-12.989,0.923
			c-5.655,0-10.688-0.608-15.1-1.828c-4.411-1.218-8.124-2.983-11.142-5.299c-3.017-2.312-5.316-5.14-6.899-8.481
			c-1.584-3.343-2.376-7.126-2.376-11.349c0-3.92,0.799-7.559,2.395-10.916c1.596-3.355,3.858-6.271,6.786-8.747
			c2.928-2.476,6.467-4.411,10.614-5.806c4.147-1.396,8.771-2.094,13.875-2.094c4.7,0,9.005,0.637,12.913,1.903
			c3.909,1.271,7.265,3.149,10.068,5.638c2.802,2.488,4.976,5.556,6.521,9.199c1.547,3.645,2.319,7.843,2.319,12.594v3.469H78.613
			c0.452,1.636,1.199,3.13,2.242,4.486c1.043,1.357,2.457,2.514,4.243,3.469c1.783,0.957,3.978,1.697,6.579,2.226
			c2.601,0.528,5.712,0.791,9.332,0.791c2.563,0,5.075-0.155,7.54-0.472c2.463-0.312,4.764-0.729,6.899-1.242
			c2.136-0.518,4.066-1.087,5.789-1.717c1.721-0.629,3.109-1.256,4.165-1.885L125.403,66.703L125.403,66.703z M115.752,38.689
			c-0.127-1.282-0.51-2.608-1.151-3.979c-0.641-1.368-1.652-2.606-3.034-3.714c-1.383-1.105-3.193-2.017-5.43-2.732
			c-2.237-0.717-5.027-1.076-8.371-1.076c-3.142,0-5.856,0.391-8.144,1.17c-2.288,0.779-4.204,1.746-5.75,2.902
			c-1.545,1.156-2.745,2.401-3.601,3.733c-0.854,1.333-1.408,2.563-1.658,3.695L115.752,38.689L115.752,38.689z"/>
		<path fill="#F6D7B7" d="M200.584,35.146c0,2.59-0.376,4.971-1.129,7.145c-0.755,2.174-1.968,4.047-3.641,5.617
			c-1.671,1.572-3.839,2.797-6.502,3.678c-2.666,0.879-5.908,1.318-9.729,1.318h-23.226v16.363h-13.989V17.462h37.215
			c3.82,0,7.062,0.434,9.729,1.301c2.663,0.867,4.831,2.088,6.502,3.657c1.673,1.571,2.886,3.437,3.641,5.599
			C200.208,30.181,200.584,32.558,200.584,35.146z M186.446,35.37c0-1.205-0.171-2.242-0.509-3.109
			c-0.34-0.867-0.9-1.577-1.678-2.131c-0.78-0.553-1.799-0.961-3.056-1.225c-1.256-0.264-2.802-0.396-4.637-0.396h-20.209v13.348
			h20.209c1.835,0,3.381-0.107,4.637-0.319c1.257-0.216,2.275-0.579,3.056-1.094c0.777-0.517,1.338-1.188,1.678-2.019
			C186.275,37.595,186.446,36.577,186.446,35.37z"/>
		<path fill="#F6D7B7" d="M261.741,69.268V47.663h-35.594v21.604H212.16V17.462h13.987v18.853h35.594V17.462h13.988v51.806H261.741z
			"/>
		<path fill="#F6D7B7" d="M337.959,28.68c-0.716-0.214-1.552-0.428-2.507-0.642c-0.956-0.215-2.005-0.396-3.149-0.547
			c-1.143-0.15-2.316-0.227-3.523-0.227c-2.516,0-4.857,0.309-7.032,0.924c-2.174,0.617-4.203,1.434-6.089,2.45
			c-1.885,1.019-3.639,2.175-5.26,3.47c-1.622,1.295-3.109,2.62-4.468,3.978v31.182h-13.988V17.462h13.988v8.408
			c1.683-1.256,3.411-2.469,5.184-3.639c1.771-1.169,3.619-2.207,5.544-3.11c1.922-0.905,3.951-1.628,6.089-2.168
			c2.137-0.54,4.396-0.812,6.786-0.812c0.905,0,1.828,0.044,2.771,0.133c0.943,0.088,1.861,0.195,2.754,0.32
			c0.893,0.126,1.728,0.264,2.507,0.414c0.778,0.152,1.457,0.303,2.036,0.453v11.727C339.223,29.062,338.676,28.893,337.959,28.68z"
			/>
		<path fill="#F6D7B7" d="M406.223,66.703c-4.249,1.408-8.489,2.42-12.726,3.035c-4.235,0.615-8.565,0.923-12.988,0.923
			c-5.657,0-10.689-0.608-15.101-1.828c-4.411-1.218-8.125-2.983-11.144-5.299c-3.017-2.312-5.314-5.14-6.897-8.481
			c-1.584-3.343-2.376-7.126-2.376-11.349c0-3.92,0.799-7.559,2.394-10.916c1.598-3.355,3.859-6.271,6.788-8.747
			c2.928-2.476,6.466-4.411,10.613-5.806c4.146-1.396,8.771-2.094,13.875-2.094c4.699,0,9.005,0.637,12.913,1.903
			c3.908,1.271,7.264,3.149,10.066,5.638c2.803,2.488,4.977,5.556,6.523,9.199c1.545,3.645,2.316,7.843,2.316,12.594v3.469H359.43
			c0.453,1.636,1.2,3.13,2.243,4.486c1.044,1.357,2.457,2.514,4.241,3.469c1.785,0.957,3.979,1.697,6.58,2.226
			c2.601,0.528,5.712,0.791,9.332,0.791c2.562,0,5.077-0.155,7.54-0.472c2.464-0.312,4.764-0.729,6.899-1.242
			c2.138-0.518,4.065-1.087,5.788-1.717c1.723-0.629,3.11-1.256,4.166-1.885v12.104H406.223z M396.57,38.689
			c-0.127-1.282-0.51-2.608-1.151-3.979c-0.64-1.368-1.652-2.606-3.034-3.714c-1.383-1.105-3.191-2.017-5.43-2.732
			c-2.236-0.717-5.027-1.076-8.369-1.076c-3.143,0-5.857,0.391-8.145,1.17c-2.288,0.779-4.203,1.746-5.75,2.902
			c-1.547,1.156-2.746,2.401-3.602,3.733c-0.854,1.333-1.407,2.563-1.659,3.695L396.57,38.689L396.57,38.689z"/>
	</g>
	<g>
		<path fill="#F6D7B7" d="M276.869,89.172V75.854h14.021v13.317L276.869,89.172L276.869,89.172z"/>
	</g>
</g>
<g>
	<path fill="#F6D7B7" d="M3.731,8.108c0,0.504,0.046,0.916,0.14,1.236c0.095,0.318,0.248,0.573,0.458,0.762
		c0.211,0.188,0.486,0.316,0.823,0.387c0.337,0.071,0.753,0.105,1.246,0.105h6.196v2.686H5.729c-0.95,0-1.76-0.078-2.425-0.234
		c-0.665-0.154-1.21-0.396-1.634-0.721c-0.421-0.326-0.729-0.738-0.919-1.236c-0.19-0.5-0.286-1.093-0.286-1.779V1.188h3.267
		L3.731,8.108L3.731,8.108z"/>
	<path fill="#F6D7B7" d="M28.607,12.685c-0.991,0.33-1.982,0.564-2.971,0.71c-0.988,0.142-2,0.215-3.032,0.215
		c-1.32,0-2.496-0.143-3.526-0.427c-1.03-0.284-1.896-0.697-2.601-1.237c-0.705-0.54-1.242-1.2-1.611-1.981
		c-0.369-0.779-0.555-1.663-0.555-2.648c0-0.916,0.187-1.766,0.56-2.549c0.373-0.783,0.9-1.464,1.585-2.042
		c0.684-0.578,1.509-1.029,2.478-1.354c0.968-0.326,2.048-0.49,3.239-0.49c1.098,0,2.103,0.149,3.015,0.444
		c0.914,0.298,1.696,0.735,2.351,1.315c0.654,0.582,1.161,1.297,1.523,2.149c0.361,0.851,0.541,1.831,0.541,2.94v0.809H17.684
		c0.105,0.383,0.28,0.731,0.523,1.049c0.244,0.316,0.573,0.587,0.99,0.811c0.416,0.223,0.928,0.395,1.537,0.518
		c0.605,0.124,1.333,0.186,2.178,0.186c0.599,0,1.185-0.037,1.761-0.111c0.575-0.072,1.111-0.169,1.61-0.289
		c0.499-0.121,0.949-0.254,1.352-0.4c0.402-0.148,0.727-0.293,0.973-0.439L28.607,12.685L28.607,12.685z M26.354,6.145
		c-0.03-0.299-0.119-0.609-0.269-0.93c-0.15-0.319-0.386-0.608-0.709-0.866C25.054,4.09,24.632,3.878,24.11,3.71
		c-0.523-0.168-1.175-0.25-1.954-0.25c-0.735,0-1.368,0.09-1.902,0.271C19.72,3.914,19.271,4.14,18.912,4.41
		c-0.361,0.271-0.643,0.561-0.842,0.872c-0.199,0.311-0.329,0.599-0.387,0.862L26.354,6.145L26.354,6.145z"/>
	<path fill="#F6D7B7" d="M39.171,3.819v9.465h-3.266V3.819h-5.132V1.188h13.538v2.631H39.171z"/>
	<path fill="#F6D7B7" d="M57.613,4.595c-0.229-0.111-0.531-0.236-0.906-0.377c-0.377-0.142-0.801-0.275-1.277-0.402
		c-0.475-0.125-0.991-0.231-1.549-0.316c-0.558-0.086-1.129-0.129-1.717-0.129c-0.469,0-0.87,0.016-1.201,0.045
		c-0.332,0.029-0.61,0.068-0.837,0.114c-0.225,0.048-0.404,0.102-0.537,0.163c-0.131,0.062-0.232,0.126-0.303,0.189
		c-0.071,0.066-0.116,0.129-0.137,0.194c-0.021,0.063-0.031,0.122-0.031,0.175c0,0.177,0.088,0.33,0.265,0.463
		c0.176,0.132,0.417,0.248,0.722,0.353c0.305,0.103,0.66,0.199,1.065,0.29c0.405,0.092,0.834,0.186,1.289,0.281
		c0.455,0.097,0.924,0.203,1.408,0.317c0.485,0.114,0.954,0.249,1.408,0.4c0.455,0.153,0.886,0.331,1.29,0.532
		c0.405,0.203,0.761,0.439,1.066,0.709c0.305,0.271,0.545,0.581,0.721,0.934c0.177,0.352,0.265,0.754,0.265,1.206
		c0,0.581-0.104,1.08-0.309,1.495c-0.205,0.417-0.479,0.77-0.823,1.057c-0.344,0.289-0.741,0.519-1.192,0.692
		c-0.452,0.173-0.926,0.306-1.422,0.399c-0.496,0.095-0.997,0.156-1.505,0.186c-0.508,0.028-0.991,0.044-1.448,0.044
		c-1.197,0-2.305-0.099-3.324-0.296c-1.018-0.196-1.917-0.441-2.697-0.734V9.69c0.805,0.447,1.722,0.797,2.751,1.049
		c1.03,0.252,2.132,0.379,3.305,0.379c0.693,0,1.258-0.037,1.695-0.109c0.438-0.074,0.778-0.168,1.025-0.283
		c0.246-0.113,0.414-0.238,0.502-0.373c0.088-0.135,0.132-0.266,0.132-0.389c0-0.193-0.088-0.361-0.265-0.506
		c-0.175-0.143-0.416-0.269-0.722-0.378c-0.305-0.108-0.66-0.208-1.064-0.3c-0.405-0.09-0.835-0.18-1.29-0.271
		c-0.455-0.091-0.922-0.189-1.404-0.296c-0.48-0.104-0.948-0.229-1.403-0.374c-0.455-0.144-0.885-0.311-1.289-0.502
		c-0.405-0.19-0.761-0.416-1.065-0.678c-0.306-0.262-0.547-0.562-0.723-0.906c-0.176-0.344-0.263-0.74-0.263-1.192
		c0-0.534,0.093-0.995,0.28-1.382c0.188-0.388,0.442-0.719,0.763-0.992c0.319-0.271,0.689-0.493,1.108-0.664
		c0.419-0.171,0.861-0.302,1.325-0.396c0.463-0.094,0.934-0.158,1.408-0.192c0.475-0.035,0.927-0.054,1.355-0.054
		c0.469,0,0.952,0.023,1.448,0.07c0.495,0.048,0.984,0.113,1.466,0.198s0.946,0.185,1.395,0.295
		c0.449,0.112,0.865,0.229,1.246,0.353V4.595z"/>
	<path fill="#F6D7B7" d="M76.521,7.228c0,0.775-0.085,1.463-0.255,2.064s-0.41,1.125-0.718,1.57
		c-0.308,0.446-0.677,0.824-1.108,1.137c-0.432,0.311-0.911,0.561-1.44,0.748c-0.528,0.187-1.097,0.323-1.707,0.409
		c-0.61,0.085-1.247,0.128-1.91,0.128h-7.677V1.188h7.658c0.664,0,1.301,0.043,1.91,0.127c0.611,0.086,1.182,0.221,1.713,0.41
		c0.531,0.188,1.015,0.436,1.448,0.744c0.434,0.308,0.806,0.687,1.113,1.135c0.307,0.449,0.548,0.973,0.718,1.572
		C76.437,5.774,76.521,6.458,76.521,7.228z M73.229,7.228c0-0.582-0.074-1.086-0.225-1.514c-0.149-0.43-0.391-0.781-0.722-1.062
		c-0.331-0.278-0.765-0.487-1.298-0.624c-0.535-0.139-1.187-0.209-1.954-0.209h-4.059v6.832h4.059c0.768,0,1.419-0.069,1.954-0.207
		c0.533-0.137,0.967-0.348,1.298-0.635c0.331-0.284,0.572-0.641,0.722-1.067C73.155,8.313,73.229,7.808,73.229,7.228z"/>
	<path fill="#F6D7B7" d="M95.148,7.245c0,1.039-0.19,1.955-0.572,2.751c-0.381,0.796-0.927,1.46-1.637,1.993
		c-0.71,0.534-1.571,0.938-2.584,1.21c-1.014,0.273-2.148,0.41-3.41,0.41c-1.262,0-2.403-0.137-3.421-0.41
		c-1.018-0.272-1.886-0.676-2.602-1.21c-0.716-0.533-1.268-1.197-1.654-1.993c-0.386-0.796-0.581-1.712-0.581-2.751
		s0.194-1.956,0.581-2.75c0.387-0.796,0.938-1.461,1.654-1.995c0.716-0.534,1.584-0.938,2.602-1.21
		c1.018-0.273,2.159-0.41,3.421-0.41c1.262,0,2.396,0.137,3.41,0.41c1.013,0.272,1.874,0.676,2.584,1.21s1.256,1.199,1.637,1.995
		C94.958,5.289,95.148,6.206,95.148,7.245z M91.848,7.245c0-0.453-0.072-0.902-0.216-1.352c-0.144-0.45-0.399-0.854-0.766-1.21
		c-0.367-0.358-0.867-0.649-1.501-0.872c-0.634-0.223-1.44-0.335-2.42-0.335c-0.658,0-1.236,0.052-1.735,0.154
		s-0.93,0.245-1.294,0.427C83.552,4.24,83.247,4.452,83,4.696c-0.246,0.244-0.442,0.505-0.589,0.783s-0.251,0.569-0.313,0.873
		c-0.061,0.301-0.092,0.599-0.092,0.893c0,0.299,0.031,0.602,0.092,0.906c0.062,0.305,0.166,0.598,0.313,0.875
		c0.147,0.28,0.343,0.539,0.589,0.782c0.247,0.24,0.552,0.449,0.916,0.629c0.364,0.178,0.795,0.319,1.294,0.422
		c0.499,0.104,1.077,0.154,1.735,0.154c0.979,0,1.786-0.111,2.42-0.335c0.634-0.223,1.134-0.514,1.501-0.87
		c0.366-0.358,0.622-0.764,0.766-1.212C91.776,8.148,91.848,7.696,91.848,7.245z"/>
	<path fill="#F6D7B7" d="M104.901,3.819v9.465h-3.266V3.819h-5.132V1.188h13.539v2.631H104.901z"/>
	<path fill="#F6D7B7" d="M123.775,13.284V8.239h-8.31v5.045H112.2V1.188h3.266V5.59h8.31V1.188h3.267v12.096H123.775z"/>
	<path fill="#F6D7B7" d="M130.827,13.284V1.188h3.266v12.096H130.827z"/>
	<path fill="#F6D7B7" d="M149.022,4.595c-0.229-0.111-0.531-0.236-0.907-0.377c-0.375-0.142-0.801-0.275-1.276-0.402
		c-0.476-0.125-0.991-0.231-1.549-0.316c-0.558-0.086-1.13-0.129-1.717-0.129c-0.47,0-0.87,0.016-1.201,0.045
		c-0.332,0.029-0.61,0.068-0.837,0.114c-0.226,0.048-0.404,0.102-0.537,0.163c-0.132,0.062-0.232,0.126-0.303,0.189
		c-0.071,0.066-0.117,0.129-0.137,0.194c-0.021,0.063-0.031,0.122-0.031,0.175c0,0.177,0.088,0.33,0.265,0.463
		c0.176,0.132,0.416,0.248,0.721,0.353c0.306,0.103,0.661,0.199,1.065,0.29c0.406,0.092,0.834,0.186,1.29,0.281
		c0.454,0.097,0.925,0.203,1.408,0.317c0.484,0.114,0.954,0.249,1.409,0.4c0.454,0.153,0.884,0.331,1.289,0.532
		c0.404,0.203,0.761,0.439,1.065,0.709c0.305,0.271,0.546,0.581,0.722,0.934c0.176,0.352,0.265,0.754,0.265,1.206
		c0,0.581-0.104,1.08-0.309,1.495c-0.206,0.417-0.479,0.77-0.822,1.057c-0.344,0.289-0.741,0.519-1.193,0.692
		c-0.452,0.173-0.926,0.306-1.422,0.399c-0.496,0.095-0.997,0.156-1.506,0.186c-0.507,0.028-0.99,0.044-1.448,0.044
		c-1.196,0-2.305-0.099-3.322-0.296c-1.019-0.196-1.918-0.441-2.698-0.734V9.69c0.804,0.447,1.721,0.797,2.752,1.049
		c1.029,0.252,2.131,0.379,3.305,0.379c0.692,0,1.257-0.037,1.694-0.109c0.438-0.074,0.779-0.168,1.025-0.283
		c0.246-0.113,0.414-0.238,0.502-0.373c0.088-0.135,0.132-0.266,0.132-0.389c0-0.193-0.088-0.361-0.264-0.506
		c-0.177-0.143-0.417-0.269-0.722-0.378c-0.306-0.108-0.66-0.208-1.066-0.3c-0.404-0.09-0.834-0.18-1.289-0.271
		c-0.455-0.091-0.923-0.189-1.403-0.296c-0.481-0.104-0.95-0.229-1.404-0.374c-0.455-0.144-0.885-0.311-1.29-0.502
		c-0.404-0.19-0.76-0.416-1.064-0.678c-0.306-0.262-0.546-0.562-0.723-0.906c-0.175-0.344-0.264-0.74-0.264-1.192
		c0-0.534,0.094-0.995,0.281-1.382c0.188-0.388,0.441-0.719,0.762-0.992c0.32-0.271,0.689-0.493,1.109-0.664
		s0.861-0.302,1.324-0.396c0.464-0.094,0.934-0.158,1.409-0.192c0.476-0.035,0.927-0.054,1.354-0.054c0.47,0,0.953,0.023,1.449,0.07
		c0.496,0.048,0.984,0.113,1.466,0.198c0.48,0.085,0.945,0.185,1.395,0.295c0.449,0.112,0.864,0.229,1.246,0.353V4.595
		L149.022,4.595z"/>
	<path fill="#F6D7B7" d="M161.972,9.445c-0.124,0.111-0.258,0.227-0.4,0.344c-0.145,0.118-0.314,0.222-0.511,0.317
		c-0.196,0.093-0.424,0.17-0.682,0.232c-0.259,0.062-0.564,0.093-0.916,0.093c-0.406,0-0.783-0.058-1.136-0.168
		c-0.353-0.112-0.66-0.276-0.925-0.497c-0.264-0.221-0.471-0.491-0.621-0.813c-0.148-0.323-0.224-0.693-0.224-1.109
		c0-0.424,0.062-0.811,0.185-1.161c0.124-0.354,0.287-0.672,0.493-0.956c0.205-0.284,0.44-0.534,0.705-0.749
		c0.263-0.215,0.541-0.391,0.831-0.533c0.291-0.14,0.581-0.248,0.871-0.32c0.291-0.073,0.562-0.109,0.815-0.109
		c0.404,0,0.735,0.053,0.994,0.158c0.258,0.105,0.455,0.205,0.589,0.299l0.071-0.326h2.052l-0.537,3.274
		c-0.007,0.019-0.015,0.065-0.027,0.142c-0.012,0.076-0.023,0.159-0.035,0.246c-0.012,0.088-0.022,0.169-0.031,0.243
		c-0.008,0.072-0.013,0.116-0.013,0.127c0,0.065,0.007,0.136,0.021,0.21c0.016,0.078,0.044,0.148,0.089,0.213
		c0.043,0.064,0.104,0.118,0.181,0.162c0.075,0.045,0.175,0.066,0.299,0.066c0.329,0,0.601-0.087,0.819-0.264
		c0.217-0.178,0.388-0.392,0.515-0.646c0.126-0.256,0.215-0.526,0.268-0.811c0.054-0.285,0.079-0.539,0.079-0.762
		c0-0.498-0.079-0.965-0.241-1.396c-0.161-0.431-0.433-0.806-0.814-1.121c-0.381-0.318-0.885-0.567-1.51-0.749
		s-1.398-0.273-2.319-0.273c-0.687,0-1.311,0.065-1.87,0.194c-0.562,0.128-1.06,0.306-1.497,0.527
		c-0.438,0.224-0.814,0.487-1.131,0.793c-0.317,0.306-0.579,0.634-0.788,0.985c-0.208,0.354-0.362,0.72-0.462,1.102
		c-0.101,0.383-0.15,0.763-0.15,1.145c0,0.55,0.086,1.071,0.256,1.558c0.17,0.487,0.461,0.911,0.872,1.276
		c0.411,0.363,0.955,0.651,1.632,0.863c0.679,0.211,1.524,0.315,2.54,0.315c0.34,0,0.653-0.008,0.938-0.025
		c0.284-0.019,0.548-0.044,0.787-0.079c0.241-0.035,0.465-0.078,0.675-0.129c0.208-0.049,0.412-0.109,0.61-0.18l0.563,1.972
		c-0.217,0.077-0.471,0.146-0.76,0.208c-0.291,0.062-0.598,0.113-0.921,0.157c-0.323,0.044-0.652,0.078-0.991,0.101
		c-0.337,0.025-0.661,0.036-0.973,0.036c-1.313,0-2.461-0.141-3.441-0.423c-0.979-0.281-1.794-0.688-2.442-1.215
		c-0.649-0.527-1.135-1.166-1.457-1.914c-0.322-0.748-0.484-1.59-0.484-2.521c0-0.628,0.096-1.231,0.286-1.81
		c0.191-0.578,0.464-1.119,0.819-1.624c0.355-0.506,0.784-0.965,1.289-1.378s1.07-0.771,1.695-1.07
		c0.624-0.298,1.305-0.529,2.042-0.69c0.736-0.16,1.512-0.242,2.328-0.242c0.862,0,1.647,0.07,2.354,0.211
		c0.706,0.141,1.338,0.338,1.893,0.59c0.555,0.252,1.034,0.553,1.439,0.902c0.404,0.349,0.741,0.73,1.008,1.141
		s0.465,0.846,0.595,1.307c0.129,0.461,0.194,0.932,0.194,1.414c0,0.539-0.088,1.057-0.261,1.553
		c-0.173,0.496-0.436,0.936-0.788,1.316c-0.352,0.382-0.798,0.688-1.338,0.914c-0.54,0.23-1.177,0.345-1.909,0.345
		c-0.23,0-0.452-0.021-0.67-0.062c-0.217-0.042-0.417-0.103-0.599-0.186c-0.182-0.082-0.345-0.185-0.489-0.309
		C162.158,9.754,162.048,9.61,161.972,9.445z M159.841,8.882c0.2,0,0.376-0.027,0.528-0.078c0.153-0.053,0.29-0.123,0.414-0.213
		c0.123-0.086,0.235-0.19,0.339-0.307c0.103-0.117,0.198-0.242,0.286-0.37l0.325-1.805c-0.06-0.088-0.132-0.167-0.22-0.233
		c-0.088-0.067-0.181-0.125-0.277-0.173c-0.098-0.046-0.197-0.081-0.304-0.104c-0.105-0.025-0.206-0.035-0.3-0.035
		c-0.264,0-0.514,0.059-0.752,0.176c-0.238,0.117-0.444,0.275-0.62,0.471c-0.177,0.197-0.316,0.427-0.418,0.691
		c-0.104,0.265-0.155,0.546-0.155,0.846c0,0.152,0.021,0.297,0.062,0.436c0.041,0.137,0.108,0.258,0.202,0.36
		c0.094,0.102,0.214,0.187,0.36,0.247C159.46,8.852,159.635,8.882,159.841,8.882z"/>
</g>
<path fill="#F6D7B7" d="M234.753,7.263c0,0.545,0.049,1.049,0.148,1.51c0.102,0.461,0.252,0.902,0.457,1.324
	c0.207,0.423,0.466,0.834,0.779,1.232s0.688,0.811,1.122,1.232l-1.821,1.963c-0.541-0.428-1.03-0.89-1.475-1.382
	c-0.443-0.493-0.824-1.032-1.146-1.62c-0.318-0.586-0.566-1.23-0.742-1.932c-0.176-0.702-0.264-1.478-0.264-2.328
	c0-0.853,0.088-1.628,0.264-2.329c0.176-0.701,0.424-1.345,0.742-1.932c0.32-0.587,0.703-1.126,1.146-1.616
	c0.444-0.49,0.934-0.952,1.475-1.386l1.821,1.963c-0.434,0.423-0.809,0.834-1.122,1.233c-0.313,0.397-0.572,0.809-0.779,1.231
	c-0.205,0.423-0.355,0.864-0.457,1.325C234.802,6.214,234.753,6.718,234.753,7.263z"/>
<path fill="#F6D7B7" d="M247.771,3.337c-0.773,0-1.444,0.072-2.016,0.219c-0.568,0.147-1.041,0.35-1.416,0.612
	c-0.376,0.261-0.66,0.567-0.852,0.915c-0.19,0.35-0.297,0.727-0.32,1.131c0.307-0.146,0.626-0.285,0.964-0.418
	c0.337-0.131,0.7-0.25,1.087-0.352c0.389-0.102,0.803-0.184,1.245-0.242c0.442-0.058,0.921-0.088,1.431-0.088
	c0.781,0,1.506,0.076,2.176,0.229c0.668,0.153,1.248,0.393,1.742,0.721c0.494,0.329,0.881,0.749,1.162,1.26
	c0.281,0.511,0.424,1.12,0.424,1.831c0,0.786-0.166,1.461-0.494,2.023c-0.328,0.564-0.78,1.026-1.355,1.387
	c-0.574,0.361-1.253,0.625-2.033,0.793c-0.779,0.167-1.625,0.251-2.533,0.251c-1.051,0-2.008-0.129-2.871-0.388
	c-0.862-0.258-1.604-0.645-2.229-1.162c-0.621-0.516-1.102-1.164-1.441-1.945c-0.342-0.78-0.51-1.69-0.51-2.729
	c0-0.893,0.149-1.733,0.45-2.521c0.304-0.789,0.771-1.479,1.399-2.068c0.632-0.59,1.433-1.057,2.404-1.4
	c0.969-0.343,2.121-0.516,3.455-0.516c0.394,0,0.799,0.016,1.213,0.045c0.418,0.027,0.826,0.068,1.226,0.119
	c0.397,0.049,0.774,0.105,1.131,0.171c0.354,0.064,0.668,0.132,0.938,0.202v2.711c-0.194-0.076-0.432-0.161-0.709-0.254
	c-0.279-0.094-0.604-0.182-0.969-0.26c-0.369-0.08-0.775-0.146-1.225-0.199C248.796,3.362,248.308,3.337,247.771,3.337z
	 M243.229,8.882c0.063,0.248,0.197,0.5,0.399,0.758c0.202,0.258,0.468,0.494,0.792,0.707c0.326,0.215,0.707,0.391,1.145,0.529
	c0.438,0.138,0.927,0.207,1.467,0.207c0.429,0,0.832-0.033,1.21-0.102c0.379-0.068,0.707-0.172,0.985-0.312
	c0.278-0.142,0.5-0.318,0.66-0.532c0.162-0.214,0.242-0.468,0.242-0.762c0-0.317-0.064-0.588-0.191-0.81
	c-0.131-0.223-0.318-0.404-0.565-0.542c-0.246-0.137-0.551-0.239-0.91-0.303c-0.36-0.064-0.772-0.099-1.235-0.099
	c-0.383,0-0.764,0.036-1.142,0.107c-0.379,0.07-0.739,0.164-1.087,0.275c-0.346,0.115-0.671,0.249-0.975,0.402
	C243.724,8.56,243.459,8.718,243.229,8.882z"/>
<path fill="#F6D7B7" d="M263.187,3.337c-0.774,0-1.447,0.072-2.017,0.219s-1.042,0.35-1.418,0.612
	c-0.375,0.261-0.657,0.567-0.849,0.915c-0.191,0.35-0.299,0.727-0.321,1.131c0.306-0.146,0.627-0.285,0.964-0.418
	c0.337-0.131,0.7-0.25,1.087-0.352c0.388-0.102,0.802-0.184,1.245-0.242c0.443-0.058,0.921-0.088,1.432-0.088
	c0.779,0,1.506,0.076,2.174,0.229c0.67,0.153,1.25,0.393,1.744,0.721c0.492,0.329,0.879,0.749,1.162,1.26
	c0.28,0.511,0.422,1.12,0.422,1.831c0,0.786-0.166,1.461-0.494,2.023c-0.328,0.564-0.779,1.026-1.354,1.387
	c-0.576,0.361-1.253,0.625-2.033,0.793c-0.781,0.167-1.625,0.251-2.535,0.251c-1.052,0-2.009-0.129-2.871-0.388
	c-0.861-0.258-1.604-0.645-2.227-1.162c-0.622-0.516-1.104-1.164-1.443-1.945c-0.34-0.78-0.512-1.69-0.512-2.729
	c0-0.893,0.15-1.733,0.453-2.521c0.303-0.789,0.77-1.479,1.4-2.068c0.63-0.59,1.432-1.057,2.402-1.4s2.123-0.516,3.455-0.516
	c0.395,0,0.799,0.016,1.215,0.045c0.418,0.027,0.824,0.068,1.225,0.119c0.398,0.049,0.775,0.105,1.131,0.171
	c0.354,0.064,0.668,0.132,0.938,0.202v2.711c-0.192-0.076-0.431-0.161-0.709-0.254c-0.277-0.094-0.602-0.182-0.968-0.26
	c-0.366-0.08-0.774-0.146-1.225-0.199C264.211,3.362,263.72,3.337,263.187,3.337z M258.646,8.882c0.063,0.248,0.196,0.5,0.397,0.758
	c0.203,0.258,0.467,0.494,0.793,0.707c0.326,0.215,0.708,0.391,1.146,0.529c0.438,0.139,0.926,0.207,1.465,0.207
	c0.43,0,0.832-0.033,1.211-0.102s0.707-0.172,0.986-0.312c0.277-0.142,0.498-0.318,0.659-0.532c0.161-0.214,0.242-0.468,0.242-0.762
	c0-0.317-0.063-0.588-0.192-0.81c-0.131-0.223-0.317-0.404-0.563-0.542c-0.247-0.137-0.552-0.239-0.912-0.303
	s-0.772-0.099-1.235-0.099c-0.381,0-0.763,0.036-1.142,0.107c-0.378,0.07-0.739,0.164-1.086,0.275
	c-0.347,0.115-0.671,0.249-0.974,0.402C259.138,8.56,258.873,8.718,258.646,8.882z"/>
<path fill="#F6D7B7" d="M273.133,13.284V3.601l-3.248,1.014V2.192l3.248-1.004h3.248v12.096H273.133z"/>
<path fill="#F6D7B7" d="M282.49,7.263c0-0.545-0.05-1.049-0.15-1.51c-0.099-0.461-0.251-0.902-0.457-1.325
	c-0.204-0.423-0.466-0.834-0.778-1.23c-0.313-0.399-0.688-0.812-1.123-1.233l1.102-1.188V0.757L281.804,0
	c0.533,0.404,1.016,0.853,1.443,1.347c0.322,0.363,0.617,0.752,0.881,1.162c0.264,0.411,0.49,0.849,0.678,1.316
	c0.188,0.467,0.336,0.967,0.444,1.501c0.108,0.534,0.169,1.106,0.181,1.716v0.221c0,0.646-0.052,1.246-0.154,1.805
	c-0.103,0.557-0.248,1.077-0.435,1.562c-0.188,0.482-0.418,0.937-0.688,1.355c-0.27,0.418-0.572,0.816-0.906,1.193
	c-0.199,0.223-0.405,0.436-0.621,0.638c-0.214,0.202-0.432,0.397-0.654,0.585c-0.029,0.018-0.059,0.035-0.084,0.054
	c-0.027,0.017-0.054,0.041-0.084,0.069l-0.722-0.757V13.75l-1.101-1.189c0.435-0.422,0.809-0.834,1.121-1.232
	c0.313-0.398,0.574-0.81,0.779-1.232c0.206-0.422,0.358-0.863,0.457-1.324C282.44,8.312,282.49,7.808,282.49,7.263z"/>
<path fill="#F6D7B7" d="M302.913,6.831c0.604,0.135,1.121,0.298,1.55,0.489c0.429,0.19,0.777,0.41,1.047,0.659
	c0.271,0.25,0.468,0.529,0.59,0.837c0.123,0.308,0.186,0.644,0.186,1.009c0,0.633-0.171,1.188-0.515,1.662
	c-0.343,0.474-0.818,0.869-1.426,1.184c-0.607,0.314-1.326,0.55-2.152,0.705c-0.828,0.156-1.724,0.233-2.686,0.233
	c-0.646,0-1.238-0.028-1.777-0.084c-0.541-0.056-1.037-0.128-1.492-0.216s-0.873-0.186-1.254-0.295
	c-0.383-0.108-0.737-0.218-1.066-0.33V9.789c0.365,0.193,0.773,0.366,1.229,0.519c0.455,0.153,0.924,0.283,1.408,0.393
	c0.484,0.11,0.973,0.191,1.465,0.246c0.493,0.056,0.961,0.084,1.399,0.084c0.799,0,1.435-0.049,1.911-0.146
	c0.475-0.097,0.836-0.221,1.082-0.37c0.246-0.148,0.406-0.309,0.48-0.479c0.072-0.17,0.109-0.332,0.109-0.483
	c0-0.26-0.084-0.482-0.251-0.67s-0.461-0.344-0.881-0.467c-0.419-0.123-0.987-0.215-1.702-0.275
	c-0.719-0.063-1.62-0.098-2.712-0.103V5.644c0.991,0,1.813-0.021,2.469-0.063c0.654-0.04,1.179-0.104,1.571-0.192
	c0.394-0.089,0.671-0.202,0.832-0.344c0.162-0.141,0.242-0.314,0.242-0.52c0-0.065-0.012-0.135-0.03-0.211
	c-0.021-0.076-0.067-0.155-0.138-0.237c-0.07-0.083-0.174-0.162-0.309-0.237c-0.136-0.076-0.318-0.144-0.555-0.203
	c-0.234-0.059-0.525-0.106-0.872-0.142c-0.347-0.034-0.763-0.052-1.25-0.052c-0.457,0-0.922,0.023-1.396,0.069
	c-0.472,0.048-0.936,0.118-1.387,0.212c-0.451,0.095-0.889,0.208-1.312,0.344c-0.422,0.135-0.812,0.293-1.17,0.476V1.655
	c0.799-0.266,1.652-0.459,2.562-0.586c0.909-0.126,1.812-0.189,2.702-0.189c0.875,0,1.7,0.059,2.479,0.177
	c0.775,0.116,1.457,0.304,2.041,0.56c0.584,0.255,1.045,0.585,1.387,0.994c0.341,0.408,0.511,0.901,0.511,1.484
	c0,0.311-0.056,0.604-0.163,0.883s-0.28,0.535-0.516,0.77c-0.233,0.236-0.537,0.444-0.905,0.626
	C303.881,6.556,303.437,6.708,302.913,6.831z"/>
<path fill="#F6D7B7" d="M313.336,13.284h-3.645l6.312-9.465h-8.223V1.188h12.077v2.236L313.336,13.284z"/>
<path fill="#F6D7B7" d="M333.027,3.75h-8.045v1.857c0.188-0.034,0.396-0.065,0.625-0.092c0.229-0.027,0.466-0.049,0.712-0.065
	c0.246-0.02,0.496-0.034,0.749-0.045c0.252-0.012,0.501-0.018,0.748-0.018c0.979,0,1.855,0.088,2.628,0.264
	c0.771,0.175,1.424,0.434,1.958,0.775c0.533,0.34,0.941,0.76,1.224,1.258c0.282,0.5,0.424,1.074,0.424,1.727
	c0,0.604-0.132,1.163-0.392,1.676c-0.262,0.514-0.675,0.955-1.241,1.33c-0.566,0.372-1.303,0.664-2.206,0.875
	s-1.998,0.317-3.283,0.317c-0.593,0-1.158-0.022-1.693-0.066c-0.537-0.044-1.038-0.104-1.506-0.18
	c-0.467-0.077-0.893-0.161-1.276-0.256c-0.384-0.093-0.717-0.19-0.999-0.29V9.964c0.252,0.118,0.551,0.24,0.894,0.365
	c0.345,0.127,0.742,0.242,1.198,0.345c0.454,0.103,0.968,0.187,1.54,0.255c0.571,0.066,1.212,0.102,1.922,0.102
	c1.314,0,2.274-0.139,2.88-0.418c0.604-0.279,0.906-0.662,0.906-1.148c0-0.575-0.329-1-0.99-1.273
	c-0.658-0.271-1.611-0.408-2.856-0.408c-0.416,0-0.824,0.014-1.229,0.043c-0.4,0.029-0.782,0.069-1.144,0.119
	c-0.361,0.05-0.696,0.109-1.009,0.176c-0.312,0.068-0.591,0.137-0.836,0.207h-0.792V1.188h11.091L333.027,3.75L333.027,3.75z"/>
<path fill="#F6D7B7" d="M336.355,8.688V5.8h7.218v2.888H336.355z"/>
</svg>
