<?xml version="1.0" encoding="utf-8"?>
<!-- Generator: Adobe Illustrator 16.0.0, SVG Export Plug-In . SVG Version: 6.00 Build 0)  -->
<!DOCTYPE svg PUBLIC "-//W3C//DTD SVG 1.1//EN" "http://www.w3.org/Graphics/SVG/1.1/DTD/svg11.dtd">
<svg version="1.1" xmlns="http://www.w3.org/2000/svg" xmlns:xlink="http://www.w3.org/1999/xlink" x="0px" y="0px"
	 width="711.073px" height="147.399px" viewBox="0 0 711.073 147.399" enable-background="new 0 0 711.073 147.399"
	 xml:space="preserve">
<g id="Guides">
</g>
<g id="_x31_2_Col_Grid" opacity="0.1" enable-background="new    ">
</g>
<g id="Layer_3">
	<g>
		<g>
			<g>
				<g>
					<path fill="#F6D7B7" d="M0.197,112.928v-18.74l58.962-51.322H1.959V23.211h92.002v16.455L32.322,93.273h62.945v19.654H0.197z"
						/>
					<path fill="#F6D7B7" d="M217.371,108.486c-7.356,2.439-14.703,4.19-22.037,5.258c-7.335,1.066-14.833,1.6-22.495,1.6
						c-9.794,0-18.511-1.057-26.151-3.168c-7.639-2.109-14.071-5.168-19.294-9.174c-5.224-4.004-9.207-8.901-11.949-14.691
						c-2.742-5.789-4.114-12.341-4.114-19.654c0-6.79,1.382-13.092,4.147-18.902c2.764-5.812,6.681-10.861,11.753-15.149
						c5.07-4.287,11.198-7.639,18.38-10.056c7.183-2.416,15.192-3.623,24.029-3.623c8.139,0,15.595,1.101,22.364,3.297
						c6.768,2.198,12.58,5.452,17.434,9.763c4.853,4.309,8.619,9.621,11.296,15.932c2.677,6.312,4.016,13.581,4.016,21.809v6.007
						h-88.411c0.784,2.831,2.078,5.42,3.885,7.771c1.806,2.351,4.255,4.354,7.346,6.008c3.09,1.653,6.889,2.938,11.394,3.853
						c4.505,0.914,9.893,1.371,16.161,1.371c4.44,0,8.792-0.271,13.059-0.816c4.266-0.545,8.249-1.262,11.949-2.155
						c3.699-0.892,7.041-1.882,10.023-2.972c2.981-1.087,5.387-2.175,7.215-3.265V108.486z M200.655,59.973
						c-0.219-2.219-0.881-4.516-1.991-6.889c-1.111-2.373-2.864-4.517-5.257-6.432c-2.394-1.915-5.529-3.494-9.402-4.734
						c-3.875-1.24-8.707-1.86-14.496-1.86c-5.442,0-10.143,0.675-14.104,2.023c-3.961,1.35-7.28,3.026-9.958,5.028
						s-4.756,4.158-6.235,6.464c-1.481,2.308-2.438,4.44-2.873,6.399H200.655z"/>
					<path fill="#F6D7B7" d="M347.571,53.834c0,4.484-0.653,8.609-1.958,12.373c-1.306,3.768-3.407,7.01-6.301,9.73
						c-2.896,2.722-6.65,4.843-11.264,6.365c-4.615,1.525-10.23,2.286-16.847,2.286h-40.222v28.339h-24.225V23.211h64.447
						c6.617,0,12.232,0.75,16.847,2.252c4.613,1.503,8.368,3.614,11.264,6.334c2.895,2.721,4.995,5.953,6.301,9.697
						C346.917,45.238,347.571,49.352,347.571,53.834z M323.085,54.227c0-2.09-0.294-3.885-0.882-5.387
						c-0.587-1.502-1.557-2.731-2.906-3.689c-1.35-0.957-3.112-1.666-5.289-2.123c-2.177-0.457-4.854-0.684-8.032-0.684h-34.999
						v23.113h34.999c3.177,0,5.854-0.184,8.032-0.555c2.176-0.371,3.939-1.001,5.289-1.894c1.349-0.893,2.318-2.057,2.906-3.494
						C322.791,58.078,323.085,56.316,323.085,54.227z"/>
					<path fill="#F6D7B7" d="M453.481,112.928V75.514h-61.639v37.414h-24.226V23.211h24.226v32.648h61.639V23.211h24.224v89.717
						H453.481z"/>
					<path fill="#F6D7B7" d="M585.477,42.637c-1.241-0.369-2.688-0.74-4.342-1.11c-1.655-0.369-3.472-0.685-5.453-0.946
						s-4.015-0.393-6.104-0.393c-4.354,0-8.413,0.534-12.178,1.6c-3.766,1.067-7.28,2.482-10.545,4.246
						c-3.264,1.761-6.3,3.765-9.109,6.006c-2.808,2.242-5.387,4.537-7.737,6.889v54h-24.225V23.211h24.225v14.561
						c2.915-2.176,5.909-4.275,8.978-6.302c3.069-2.023,6.269-3.819,9.598-5.386c3.331-1.568,6.845-2.818,10.546-3.754
						c3.699-0.937,7.617-1.404,11.753-1.404c1.567,0,3.167,0.076,4.799,0.228c1.633,0.153,3.222,0.338,4.767,0.556
						c1.544,0.218,2.992,0.457,4.341,0.719s2.525,0.521,3.527,0.783v20.307C587.664,43.301,586.717,43.006,585.477,42.637z"/>
					<path fill="#F6D7B7" d="M703.695,108.486c-7.357,2.439-14.703,4.19-22.038,5.258c-7.335,1.066-14.833,1.6-22.494,1.6
						c-9.794,0-18.511-1.057-26.15-3.168c-7.641-2.109-14.072-5.168-19.295-9.174c-5.224-4.004-9.208-8.901-11.95-14.691
						c-2.742-5.789-4.114-12.341-4.114-19.654c0-6.79,1.381-13.092,4.146-18.902c2.765-5.812,6.683-10.861,11.754-15.149
						c5.07-4.287,11.198-7.639,18.38-10.056c7.183-2.416,15.192-3.623,24.03-3.623c8.14,0,15.595,1.101,22.364,3.297
						c6.768,2.198,12.579,5.452,17.433,9.763c4.854,4.309,8.619,9.621,11.296,15.932c2.677,6.312,4.016,13.581,4.016,21.809v6.007
						h-88.41c0.783,2.831,2.078,5.42,3.885,7.771c1.806,2.351,4.254,4.354,7.345,6.008c3.09,1.653,6.889,2.938,11.395,3.853
						c4.505,0.914,9.892,1.371,16.16,1.371c4.44,0,8.793-0.271,13.059-0.816s8.25-1.262,11.949-2.155
						c3.7-0.892,7.041-1.882,10.023-2.972c2.981-1.087,5.388-2.175,7.216-3.265V108.486z M686.979,59.973
						c-0.218-2.219-0.881-4.516-1.992-6.889c-1.109-2.373-2.863-4.517-5.256-6.432c-2.395-1.915-5.529-3.494-9.403-4.734
						c-3.875-1.24-8.707-1.86-14.495-1.86c-5.443,0-10.144,0.675-14.104,2.023c-3.961,1.35-7.28,3.026-9.958,5.028
						c-2.677,2.002-4.756,4.158-6.236,6.464c-1.48,2.308-2.438,4.44-2.873,6.399H686.979z"/>
				</g>
				<g>
					<path fill="#F6D7B7" d="M479.68,147.399v-23.063h24.281v23.063H479.68z"/>
				</g>
			</g>
			<g>
				<path fill="#F6D7B7" d="M3.928,9.75c0,0.607,0.056,1.104,0.169,1.487c0.113,0.386,0.296,0.69,0.55,0.917
					c0.254,0.225,0.584,0.381,0.99,0.465c0.406,0.085,0.905,0.127,1.498,0.127h7.453v3.229H6.331c-1.144,0-2.116-0.093-2.917-0.28
					c-0.801-0.188-1.456-0.479-1.964-0.868c-0.508-0.392-0.876-0.888-1.105-1.488C0.115,12.738,0,12.025,0,11.201V1.429h3.928V9.75z
					"/>
				<path fill="#F6D7B7" d="M33.846,15.256c-1.193,0.395-2.383,0.678-3.573,0.852c-1.189,0.172-2.405,0.26-3.647,0.26
					c-1.588,0-3.001-0.172-4.24-0.514c-1.238-0.343-2.281-0.838-3.128-1.488c-0.847-0.649-1.493-1.442-1.938-2.381
					c-0.444-0.939-0.667-2.002-0.667-3.188c0-1.101,0.224-2.122,0.672-3.064s1.083-1.762,1.905-2.457
					c0.823-0.693,1.816-1.238,2.98-1.63s2.463-0.586,3.896-0.586c1.32,0,2.529,0.178,3.626,0.532
					c1.097,0.357,2.04,0.885,2.827,1.584c0.787,0.697,1.398,1.561,1.831,2.582c0.435,1.024,0.651,2.204,0.651,3.536v0.976H20.708
					c0.127,0.457,0.337,0.878,0.63,1.26c0.292,0.38,0.689,0.705,1.191,0.973c0.5,0.27,1.117,0.478,1.847,0.626
					c0.731,0.147,1.604,0.222,2.62,0.222c0.72,0,1.425-0.045,2.118-0.132c0.691-0.089,1.337-0.206,1.938-0.351
					c0.6-0.144,1.141-0.304,1.625-0.481c0.484-0.175,0.874-0.353,1.17-0.528V15.256z M31.136,7.389
					c-0.036-0.358-0.143-0.73-0.323-1.117c-0.18-0.383-0.464-0.732-0.852-1.043c-0.389-0.31-0.896-0.564-1.524-0.767
					c-0.628-0.2-1.412-0.302-2.351-0.302c-0.882,0-1.645,0.109-2.287,0.328c-0.642,0.22-1.181,0.49-1.614,0.815
					c-0.435,0.325-0.772,0.674-1.011,1.048c-0.241,0.375-0.396,0.72-0.466,1.037H31.136z"/>
				<path fill="#F6D7B7" d="M46.55,4.594v11.382h-3.928V4.594H36.45V1.429h16.283v3.165H46.55z"/>
				<path fill="#F6D7B7" d="M68.729,5.525c-0.275-0.133-0.639-0.285-1.09-0.455s-0.964-0.329-1.535-0.481
					c-0.572-0.151-1.193-0.278-1.863-0.382c-0.671-0.102-1.359-0.152-2.064-0.152c-0.565,0-1.046,0.018-1.445,0.053
					c-0.399,0.035-0.734,0.08-1.006,0.137c-0.272,0.058-0.487,0.123-0.646,0.197c-0.159,0.074-0.281,0.149-0.366,0.228
					C58.629,4.746,58.575,4.822,58.55,4.9c-0.025,0.078-0.038,0.15-0.038,0.213c0,0.212,0.106,0.396,0.317,0.555
					c0.212,0.16,0.501,0.301,0.869,0.424c0.367,0.124,0.794,0.24,1.281,0.35s1.004,0.223,1.551,0.34
					c0.547,0.115,1.111,0.242,1.694,0.381c0.582,0.137,1.147,0.297,1.694,0.481c0.547,0.183,1.063,0.396,1.551,0.642
					c0.487,0.242,0.914,0.525,1.281,0.852c0.367,0.324,0.656,0.697,0.868,1.121s0.318,0.908,0.318,1.449
					c0,0.7-0.124,1.301-0.371,1.802c-0.248,0.501-0.577,0.925-0.99,1.271c-0.413,0.345-0.891,0.622-1.435,0.83
					c-0.543,0.209-1.113,0.368-1.709,0.482c-0.597,0.113-1.2,0.188-1.811,0.222c-0.611,0.036-1.191,0.054-1.742,0.054
					c-1.44,0-2.772-0.119-3.997-0.355c-1.224-0.235-2.306-0.53-3.244-0.883v-3.473c0.967,0.535,2.069,0.956,3.308,1.26
					s2.563,0.455,3.976,0.455c0.833,0,1.512-0.045,2.038-0.132c0.526-0.089,0.938-0.202,1.234-0.341
					c0.296-0.137,0.498-0.286,0.603-0.447c0.106-0.163,0.159-0.318,0.159-0.467c0-0.233-0.105-0.438-0.317-0.609
					c-0.211-0.172-0.501-0.324-0.868-0.456c-0.367-0.13-0.794-0.249-1.281-0.359c-0.487-0.108-1.004-0.22-1.551-0.327
					c-0.547-0.109-1.111-0.228-1.689-0.355C59.67,9.75,59.107,9.6,58.56,9.428c-0.546-0.172-1.064-0.374-1.551-0.604
					c-0.487-0.23-0.914-0.5-1.281-0.814c-0.367-0.315-0.656-0.678-0.868-1.092c-0.212-0.412-0.317-0.891-0.317-1.435
					c0-0.643,0.113-1.196,0.338-1.661c0.226-0.467,0.531-0.863,0.916-1.191c0.384-0.329,0.829-0.594,1.334-0.801
					c0.505-0.204,1.036-0.362,1.593-0.475c0.558-0.113,1.122-0.191,1.694-0.234c0.572-0.042,1.115-0.062,1.63-0.062
					c0.565,0,1.146,0.026,1.742,0.085c0.597,0.055,1.184,0.134,1.763,0.236c0.579,0.104,1.138,0.221,1.679,0.355
					c0.539,0.133,1.039,0.274,1.498,0.424V5.525z"/>
				<path fill="#F6D7B7" d="M91.469,8.691c0,0.932-0.102,1.76-0.307,2.482c-0.205,0.725-0.492,1.353-0.863,1.891
					c-0.371,0.535-0.815,0.99-1.334,1.364s-1.095,0.675-1.731,0.901c-0.635,0.225-1.32,0.39-2.054,0.492
					c-0.734,0.102-1.5,0.153-2.297,0.153h-9.231V1.429h9.21c0.798,0,1.563,0.052,2.297,0.153c0.734,0.103,1.42,0.268,2.059,0.494
					c0.639,0.225,1.219,0.521,1.742,0.893s0.969,0.827,1.339,1.366c0.371,0.54,0.658,1.17,0.863,1.89
					C91.367,6.945,91.469,7.767,91.469,8.691z M87.51,8.691c0-0.699-0.089-1.306-0.271-1.821c-0.179-0.515-0.469-0.94-0.868-1.274
					c-0.398-0.336-0.919-0.587-1.561-0.754c-0.643-0.164-1.426-0.248-2.35-0.248h-4.881v8.215h4.881c0.924,0,1.708-0.082,2.35-0.248
					c0.642-0.166,1.163-0.42,1.561-0.762c0.399-0.343,0.688-0.771,0.868-1.287C87.42,9.997,87.51,9.39,87.51,8.691z"/>
				<path fill="#F6D7B7" d="M113.871,8.713c0,1.248-0.23,2.352-0.688,3.308c-0.459,0.956-1.115,1.756-1.969,2.397
					c-0.854,0.643-1.889,1.129-3.107,1.455c-1.217,0.33-2.584,0.494-4.102,0.494s-2.888-0.164-4.113-0.494
					c-1.225-0.326-2.268-0.812-3.128-1.455c-0.861-0.642-1.525-1.441-1.991-2.397s-0.699-2.06-0.699-3.308
					c0-1.25,0.233-2.352,0.699-3.309s1.129-1.756,1.991-2.396c0.861-0.645,1.904-1.129,3.128-1.457s2.595-0.491,4.113-0.491
					s2.885,0.163,4.102,0.491c1.218,0.328,2.253,0.812,3.107,1.457c0.854,0.641,1.51,1.439,1.969,2.396
					C113.641,6.361,113.871,7.463,113.871,8.713z M109.901,8.713c0-0.544-0.086-1.084-0.259-1.627
					c-0.173-0.539-0.48-1.023-0.921-1.453c-0.441-0.432-1.042-0.779-1.805-1.049c-0.762-0.268-1.732-0.402-2.911-0.402
					c-0.791,0-1.486,0.062-2.086,0.186c-0.6,0.124-1.118,0.295-1.556,0.513c-0.438,0.219-0.805,0.476-1.101,0.769
					c-0.296,0.292-0.533,0.606-0.709,0.941c-0.177,0.336-0.302,0.686-0.376,1.048c-0.074,0.364-0.111,0.722-0.111,1.075
					c0,0.36,0.038,0.723,0.111,1.09c0.075,0.367,0.2,0.719,0.376,1.053c0.176,0.336,0.413,0.648,0.709,0.937
					c0.296,0.29,0.663,0.543,1.101,0.759c0.438,0.215,0.956,0.385,1.556,0.508c0.6,0.123,1.295,0.186,2.086,0.186
					c1.179,0,2.149-0.135,2.911-0.403c0.763-0.268,1.364-0.618,1.805-1.049c0.441-0.429,0.748-0.914,0.921-1.454
					C109.814,9.797,109.901,9.256,109.901,8.713z"/>
				<path fill="#F6D7B7" d="M125.601,4.594v11.382h-3.927V4.594h-6.172V1.429h16.282v3.165H125.601z"/>
				<path fill="#F6D7B7" d="M148.299,15.976V9.91h-9.994v6.065h-3.928V1.429h3.928v5.294h9.994V1.429h3.928v14.547H148.299z"/>
				<path fill="#F6D7B7" d="M156.779,15.976V1.429h3.927v14.547H156.779z"/>
				<path fill="#F6D7B7" d="M178.662,5.525c-0.275-0.133-0.639-0.285-1.091-0.455s-0.963-0.329-1.535-0.481
					c-0.572-0.151-1.193-0.278-1.863-0.382c-0.671-0.102-1.359-0.152-2.064-0.152c-0.565,0-1.046,0.018-1.445,0.053
					c-0.399,0.035-0.734,0.08-1.006,0.137c-0.271,0.058-0.487,0.123-0.646,0.197c-0.159,0.074-0.28,0.149-0.365,0.228
					c-0.085,0.077-0.14,0.153-0.164,0.231c-0.025,0.078-0.038,0.15-0.038,0.213c0,0.212,0.106,0.396,0.318,0.555
					c0.211,0.16,0.501,0.301,0.868,0.424c0.367,0.124,0.794,0.24,1.281,0.35s1.004,0.223,1.551,0.34
					c0.547,0.115,1.111,0.242,1.694,0.381c0.582,0.137,1.146,0.297,1.693,0.481c0.547,0.183,1.064,0.396,1.551,0.642
					c0.487,0.242,0.914,0.525,1.281,0.852c0.367,0.324,0.657,0.697,0.869,1.121c0.211,0.424,0.317,0.908,0.317,1.449
					c0,0.7-0.124,1.301-0.371,1.802c-0.248,0.501-0.577,0.925-0.99,1.271c-0.413,0.345-0.891,0.622-1.434,0.83
					c-0.544,0.209-1.114,0.368-1.71,0.482c-0.596,0.113-1.2,0.188-1.811,0.222c-0.61,0.036-1.191,0.054-1.741,0.054
					c-1.439,0-2.772-0.119-3.997-0.355c-1.225-0.235-2.306-0.53-3.245-0.883v-3.473c0.967,0.535,2.07,0.956,3.308,1.26
					c1.239,0.304,2.563,0.455,3.975,0.455c0.833,0,1.512-0.045,2.038-0.132c0.526-0.089,0.937-0.202,1.233-0.341
					c0.296-0.137,0.498-0.286,0.604-0.447c0.106-0.163,0.159-0.318,0.159-0.467c0-0.233-0.106-0.438-0.317-0.609
					c-0.212-0.172-0.501-0.324-0.868-0.456c-0.367-0.13-0.794-0.249-1.281-0.359c-0.487-0.108-1.004-0.22-1.55-0.327
					c-0.547-0.109-1.11-0.228-1.689-0.355c-0.579-0.127-1.142-0.277-1.688-0.449c-0.547-0.172-1.064-0.374-1.551-0.604
					c-0.487-0.23-0.915-0.5-1.281-0.814c-0.368-0.315-0.657-0.678-0.869-1.092c-0.211-0.412-0.317-0.891-0.317-1.435
					c0-0.643,0.113-1.196,0.339-1.661c0.225-0.467,0.531-0.863,0.916-1.191c0.385-0.329,0.83-0.594,1.334-0.801
					c0.504-0.204,1.035-0.362,1.593-0.475c0.557-0.113,1.122-0.191,1.694-0.234c0.572-0.042,1.115-0.062,1.63-0.062
					c0.564,0,1.145,0.026,1.741,0.085c0.596,0.055,1.184,0.134,1.763,0.236c0.578,0.104,1.138,0.221,1.678,0.355
					c0.54,0.133,1.039,0.274,1.498,0.424V5.525z"/>
				<path fill="#F6D7B7" d="M194.235,11.359c-0.148,0.134-0.309,0.272-0.482,0.413c-0.173,0.142-0.377,0.268-0.614,0.382
					c-0.237,0.112-0.51,0.205-0.821,0.279c-0.311,0.073-0.677,0.111-1.101,0.111c-0.487,0-0.942-0.067-1.365-0.201
					c-0.424-0.133-0.794-0.333-1.112-0.598c-0.317-0.266-0.567-0.592-0.746-0.98c-0.181-0.387-0.27-0.832-0.27-1.333
					c0-0.509,0.074-0.975,0.222-1.397c0.148-0.424,0.346-0.807,0.593-1.148c0.247-0.342,0.529-0.643,0.847-0.9
					c0.317-0.258,0.65-0.471,1-0.641c0.349-0.17,0.698-0.298,1.047-0.387c0.35-0.086,0.676-0.132,0.979-0.132
					c0.487,0,0.886,0.062,1.197,0.19c0.31,0.127,0.546,0.247,0.709,0.361l0.085-0.393h2.466l-0.646,3.938
					c-0.008,0.021-0.018,0.078-0.032,0.17c-0.014,0.092-0.028,0.191-0.042,0.296c-0.015,0.106-0.026,0.204-0.038,0.292
					c-0.01,0.088-0.016,0.139-0.016,0.152c0,0.078,0.009,0.163,0.027,0.256c0.018,0.09,0.052,0.175,0.106,0.253
					c0.053,0.078,0.125,0.144,0.217,0.196c0.091,0.053,0.211,0.078,0.36,0.078c0.395,0,0.723-0.105,0.985-0.316
					c0.26-0.211,0.467-0.472,0.62-0.779c0.151-0.305,0.259-0.631,0.322-0.973c0.064-0.342,0.095-0.647,0.095-0.916
					c0-0.601-0.097-1.159-0.291-1.678c-0.194-0.52-0.521-0.969-0.979-1.35c-0.459-0.382-1.064-0.682-1.815-0.9
					c-0.752-0.219-1.682-0.328-2.79-0.328c-0.826,0-1.576,0.078-2.249,0.232c-0.674,0.156-1.274,0.367-1.8,0.635
					c-0.526,0.269-0.98,0.588-1.361,0.953c-0.38,0.367-0.697,0.763-0.947,1.187c-0.25,0.423-0.436,0.864-0.556,1.323
					c-0.12,0.459-0.18,0.918-0.18,1.375c0,0.665,0.102,1.289,0.307,1.875c0.205,0.586,0.554,1.098,1.048,1.535
					s1.149,0.783,1.964,1.037c0.814,0.254,1.833,0.381,3.054,0.381c0.409,0,0.785-0.01,1.127-0.031
					c0.343-0.021,0.658-0.054,0.948-0.096c0.289-0.043,0.559-0.094,0.81-0.154c0.25-0.059,0.496-0.132,0.736-0.217l0.678,2.373
					c-0.262,0.091-0.567,0.173-0.916,0.249c-0.35,0.073-0.719,0.136-1.106,0.19c-0.388,0.053-0.785,0.094-1.191,0.121
					c-0.406,0.028-0.796,0.043-1.17,0.043c-1.581,0-2.961-0.17-4.14-0.508c-1.178-0.339-2.158-0.827-2.937-1.463
					c-0.78-0.635-1.365-1.402-1.753-2.301c-0.388-0.901-0.582-1.911-0.582-3.035c0-0.754,0.115-1.479,0.345-2.174
					c0.229-0.695,0.557-1.347,0.984-1.953c0.427-0.607,0.944-1.159,1.551-1.658c0.606-0.496,1.286-0.926,2.038-1.286
					c0.751-0.36,1.57-0.636,2.456-0.831c0.886-0.193,1.819-0.29,2.8-0.29c1.037,0,1.981,0.085,2.832,0.255
					c0.85,0.168,1.609,0.404,2.276,0.708s1.244,0.665,1.731,1.085s0.891,0.878,1.212,1.371c0.321,0.494,0.559,1.018,0.714,1.571
					c0.156,0.555,0.233,1.121,0.233,1.7c0,0.648-0.104,1.271-0.312,1.867c-0.208,0.598-0.523,1.125-0.947,1.584
					c-0.423,0.459-0.959,0.826-1.609,1.102c-0.649,0.274-1.416,0.412-2.297,0.412c-0.276,0-0.544-0.025-0.805-0.074
					c-0.261-0.049-0.501-0.123-0.72-0.222c-0.219-0.1-0.415-0.224-0.587-0.372C194.459,11.73,194.326,11.557,194.235,11.359z
					 M191.673,10.682c0.239,0,0.451-0.032,0.635-0.094c0.184-0.065,0.35-0.15,0.498-0.255c0.148-0.107,0.285-0.229,0.407-0.372
					c0.124-0.141,0.239-0.289,0.345-0.443l0.392-2.171c-0.07-0.104-0.159-0.199-0.264-0.28c-0.106-0.08-0.218-0.15-0.334-0.206
					c-0.117-0.058-0.238-0.099-0.365-0.127c-0.127-0.029-0.247-0.044-0.36-0.044c-0.318,0-0.62,0.072-0.905,0.213
					c-0.287,0.141-0.535,0.33-0.747,0.565c-0.212,0.238-0.379,0.514-0.502,0.832c-0.124,0.316-0.186,0.656-0.186,1.017
					c0,0.184,0.024,0.359,0.074,0.523c0.049,0.166,0.131,0.311,0.243,0.435c0.113,0.124,0.258,0.222,0.435,0.296
					C191.213,10.645,191.425,10.682,191.673,10.682z"/>
			</g>
		</g>
		<g>
			<path fill="#F6D7B7" d="M504.703,8.732c0,0.657,0.06,1.264,0.181,1.817c0.12,0.554,0.303,1.084,0.55,1.593
				c0.248,0.508,0.559,1.002,0.937,1.482s0.827,0.974,1.35,1.482l-2.191,2.359c-0.65-0.514-1.241-1.068-1.774-1.661
				s-0.992-1.243-1.376-1.948c-0.385-0.705-0.684-1.48-0.896-2.323c-0.211-0.843-0.317-1.777-0.317-2.802
				c0-1.021,0.105-1.955,0.317-2.799c0.212-0.844,0.51-1.617,0.896-2.324c0.384-0.705,0.843-1.354,1.376-1.943
				c0.533-0.587,1.124-1.144,1.774-1.666l2.191,2.36c-0.523,0.509-0.972,1.002-1.35,1.483c-0.378,0.479-0.689,0.973-0.937,1.481
				c-0.248,0.507-0.43,1.039-0.55,1.593C504.763,7.473,504.703,8.076,504.703,8.732z"/>
			<path fill="#F6D7B7" d="M520.361,4.012c-0.932,0-1.74,0.088-2.425,0.266c-0.685,0.176-1.253,0.422-1.704,0.734
				c-0.452,0.314-0.793,0.682-1.021,1.102c-0.229,0.421-0.358,0.873-0.386,1.359c0.367-0.176,0.753-0.343,1.159-0.501
				c0.406-0.16,0.842-0.302,1.308-0.425s0.964-0.221,1.499-0.29c0.532-0.071,1.106-0.106,1.72-0.106
				c0.938,0,1.811,0.092,2.615,0.275c0.805,0.184,1.502,0.473,2.096,0.869c0.593,0.395,1.059,0.898,1.397,1.514
				c0.339,0.613,0.508,1.348,0.508,2.201c0,0.945-0.197,1.758-0.593,2.436c-0.395,0.677-0.938,1.232-1.629,1.667
				c-0.692,0.435-1.507,0.751-2.446,0.952s-1.955,0.303-3.049,0.303c-1.264,0-2.414-0.156-3.452-0.467
				c-1.037-0.311-1.93-0.776-2.679-1.398c-0.748-0.619-1.326-1.398-1.736-2.338c-0.409-0.938-0.613-2.033-0.613-3.281
				c0-1.074,0.181-2.084,0.544-3.033c0.363-0.95,0.925-1.779,1.684-2.489c0.758-0.708,1.722-1.27,2.89-1.683
				c1.168-0.412,2.554-0.618,4.156-0.618c0.473,0,0.959,0.017,1.46,0.052c0.501,0.035,0.992,0.082,1.472,0.143
				s0.933,0.129,1.36,0.207c0.428,0.077,0.803,0.158,1.128,0.243v3.262c-0.233-0.093-0.517-0.195-0.853-0.308
				c-0.336-0.113-0.724-0.217-1.165-0.312c-0.441-0.096-0.932-0.176-1.472-0.238C521.595,4.043,521.003,4.012,520.361,4.012z
				 M514.898,10.682c0.078,0.296,0.238,0.6,0.482,0.911c0.242,0.31,0.561,0.594,0.953,0.852c0.391,0.258,0.85,0.47,1.376,0.635
				c0.525,0.167,1.113,0.249,1.763,0.249c0.515,0,1-0.041,1.456-0.121c0.455-0.08,0.851-0.206,1.186-0.375
				c0.335-0.17,0.6-0.383,0.793-0.641c0.194-0.258,0.292-0.564,0.292-0.917c0-0.382-0.078-0.705-0.233-0.974
				c-0.155-0.27-0.381-0.485-0.678-0.651c-0.296-0.165-0.661-0.288-1.096-0.364c-0.434-0.078-0.93-0.117-1.487-0.117
				c-0.459,0-0.916,0.041-1.372,0.126c-0.455,0.085-0.891,0.197-1.307,0.334c-0.417,0.139-0.807,0.299-1.17,0.481
				C515.493,10.294,515.174,10.483,514.898,10.682z"/>
			<path fill="#F6D7B7" d="M538.898,4.012c-0.932,0-1.739,0.088-2.425,0.266c-0.684,0.176-1.252,0.422-1.704,0.734
				c-0.451,0.314-0.792,0.682-1.021,1.102c-0.229,0.421-0.358,0.873-0.386,1.359c0.367-0.176,0.753-0.343,1.159-0.501
				c0.406-0.16,0.842-0.302,1.308-0.425s0.964-0.221,1.498-0.29c0.533-0.071,1.106-0.106,1.72-0.106
				c0.938,0,1.811,0.092,2.615,0.275c0.804,0.184,1.502,0.473,2.096,0.869c0.592,0.395,1.058,0.898,1.397,1.514
				c0.338,0.613,0.508,1.348,0.508,2.201c0,0.945-0.197,1.758-0.593,2.436c-0.394,0.677-0.938,1.232-1.629,1.667
				c-0.692,0.435-1.508,0.751-2.446,0.952c-0.939,0.201-1.955,0.303-3.049,0.303c-1.264,0-2.414-0.156-3.451-0.467
				s-1.93-0.776-2.679-1.398c-0.748-0.619-1.327-1.398-1.736-2.338c-0.409-0.938-0.613-2.033-0.613-3.281
				c0-1.074,0.181-2.084,0.545-3.033c0.363-0.95,0.924-1.779,1.683-2.489c0.758-0.708,1.722-1.27,2.89-1.683
				c1.167-0.412,2.553-0.618,4.156-0.618c0.473,0,0.96,0.017,1.46,0.052c0.501,0.035,0.991,0.082,1.472,0.143
				c0.48,0.061,0.934,0.129,1.36,0.207c0.427,0.077,0.802,0.158,1.128,0.243v3.262c-0.234-0.093-0.517-0.195-0.853-0.308
				c-0.335-0.113-0.723-0.217-1.165-0.312s-0.932-0.176-1.471-0.238C540.131,4.043,539.54,4.012,538.898,4.012z M533.435,10.682
				c0.078,0.296,0.238,0.6,0.482,0.911c0.243,0.31,0.561,0.594,0.953,0.852c0.392,0.258,0.85,0.47,1.376,0.635
				c0.525,0.167,1.113,0.249,1.763,0.249c0.514,0,1-0.041,1.456-0.121c0.455-0.08,0.851-0.206,1.186-0.375
				c0.335-0.17,0.6-0.383,0.793-0.641s0.292-0.564,0.292-0.917c0-0.382-0.078-0.705-0.233-0.974
				c-0.155-0.27-0.381-0.485-0.677-0.651c-0.296-0.165-0.662-0.288-1.097-0.364c-0.433-0.078-0.93-0.117-1.486-0.117
				c-0.459,0-0.916,0.041-1.372,0.126c-0.455,0.085-0.891,0.197-1.307,0.334c-0.417,0.139-0.807,0.299-1.17,0.481
				C534.03,10.294,533.711,10.483,533.435,10.682z"/>
			<path fill="#F6D7B7" d="M550.861,15.976V4.33l-3.906,1.217V2.636l3.906-1.207h3.907v14.547H550.861z"/>
			<path fill="#F6D7B7" d="M562.115,8.732c0-0.656-0.059-1.26-0.179-1.814c-0.121-0.554-0.303-1.086-0.551-1.593
				c-0.247-0.509-0.56-1.003-0.937-1.481c-0.378-0.481-0.828-0.975-1.351-1.483l1.323-1.429V0.91L561.29,0
				c0.642,0.486,1.221,1.027,1.737,1.619c0.388,0.438,0.74,0.904,1.058,1.398c0.317,0.493,0.589,1.021,0.815,1.582
				s0.404,1.163,0.535,1.805c0.13,0.643,0.203,1.331,0.217,2.064v0.264c0,0.778-0.062,1.502-0.185,2.172
				c-0.124,0.67-0.298,1.297-0.524,1.878c-0.227,0.583-0.501,1.126-0.826,1.632c-0.324,0.504-0.688,0.982-1.089,1.434
				c-0.241,0.269-0.49,0.524-0.747,0.768c-0.258,0.244-0.521,0.479-0.789,0.705c-0.036,0.02-0.069,0.041-0.101,0.062
				c-0.032,0.022-0.066,0.05-0.101,0.084l-0.869-0.908v-0.023l-1.323-1.428c0.523-0.509,0.972-1.002,1.351-1.482
				c0.377-0.48,0.689-0.975,0.937-1.482c0.248-0.509,0.43-1.039,0.551-1.593C562.056,9.996,562.115,9.39,562.115,8.732z"/>
			<path fill="#F6D7B7" d="M586.677,8.215c0.727,0.163,1.349,0.359,1.863,0.588c0.515,0.229,0.935,0.494,1.26,0.795
				c0.325,0.299,0.561,0.635,0.709,1.005s0.222,0.774,0.222,1.212c0,0.762-0.206,1.43-0.619,2.001
				c-0.413,0.572-0.984,1.046-1.715,1.423c-0.73,0.379-1.593,0.662-2.588,0.848c-0.995,0.188-2.072,0.281-3.229,0.281
				c-0.777,0-1.49-0.034-2.14-0.102c-0.648-0.066-1.247-0.154-1.793-0.258c-0.547-0.107-1.05-0.225-1.509-0.355
				c-0.458-0.13-0.885-0.264-1.281-0.396v-3.483c0.438,0.231,0.93,0.44,1.478,0.624c0.546,0.184,1.111,0.34,1.693,0.471
				c0.582,0.132,1.17,0.23,1.763,0.297c0.593,0.067,1.155,0.102,1.683,0.102c0.961,0,1.726-0.059,2.298-0.176
				c0.571-0.117,1.005-0.264,1.301-0.444c0.297-0.18,0.489-0.372,0.578-0.576c0.087-0.206,0.132-0.398,0.132-0.583
				c0-0.312-0.101-0.578-0.302-0.805s-0.554-0.412-1.059-0.561c-0.505-0.148-1.188-0.26-2.048-0.334
				c-0.862-0.074-1.948-0.115-3.261-0.123V6.785c1.193,0,2.183-0.023,2.97-0.073c0.787-0.05,1.417-0.128,1.889-0.231
				c0.474-0.109,0.807-0.245,1.001-0.414c0.194-0.17,0.292-0.379,0.292-0.627c0-0.075-0.013-0.16-0.038-0.253
				c-0.025-0.091-0.08-0.187-0.164-0.286c-0.085-0.098-0.208-0.192-0.371-0.285c-0.162-0.092-0.384-0.173-0.667-0.243
				s-0.632-0.128-1.047-0.169c-0.417-0.043-0.919-0.064-1.505-0.064c-0.55,0-1.109,0.029-1.677,0.085
				c-0.569,0.058-1.124,0.142-1.667,0.255c-0.543,0.112-1.069,0.25-1.577,0.411c-0.508,0.163-0.978,0.354-1.408,0.573V1.991
				c0.959-0.318,1.986-0.553,3.08-0.705c1.095-0.151,2.178-0.227,3.25-0.227c1.052,0,2.046,0.069,2.98,0.212
				c0.936,0.139,1.754,0.364,2.457,0.671c0.702,0.307,1.258,0.706,1.667,1.196c0.409,0.49,0.614,1.085,0.614,1.783
				c0,0.375-0.065,0.73-0.196,1.064c-0.131,0.336-0.337,0.645-0.62,0.927c-0.282,0.282-0.646,0.533-1.09,0.752
				C587.842,7.884,587.306,8.066,586.677,8.215z"/>
			<path fill="#F6D7B7" d="M599.211,15.976h-4.382l7.59-11.382h-9.889V1.429h14.525v2.69L599.211,15.976z"/>
			<path fill="#F6D7B7" d="M622.894,4.508h-9.676v2.235c0.227-0.042,0.476-0.079,0.752-0.11c0.274-0.033,0.561-0.059,0.856-0.079
				c0.297-0.022,0.597-0.039,0.9-0.054c0.304-0.014,0.604-0.02,0.9-0.02c1.179,0,2.232,0.104,3.161,0.316
				c0.928,0.211,1.713,0.521,2.356,0.932c0.642,0.408,1.132,0.914,1.471,1.514c0.339,0.6,0.508,1.291,0.508,2.076
				c0,0.725-0.158,1.398-0.471,2.016c-0.314,0.618-0.812,1.15-1.493,1.598c-0.681,0.448-1.565,0.799-2.652,1.054
				s-2.402,0.382-3.949,0.382c-0.712,0-1.392-0.027-2.038-0.08c-0.646-0.053-1.25-0.125-1.81-0.217
				c-0.562-0.093-1.073-0.194-1.536-0.307c-0.462-0.113-0.862-0.23-1.201-0.35v-3.43c0.303,0.141,0.661,0.287,1.073,0.438
				c0.414,0.153,0.894,0.291,1.44,0.414c0.547,0.124,1.165,0.226,1.853,0.307c0.688,0.082,1.459,0.123,2.313,0.123
				c1.581,0,2.734-0.168,3.461-0.504c0.728-0.335,1.091-0.795,1.091-1.381c0-0.692-0.397-1.203-1.191-1.529
				c-0.794-0.33-1.939-0.492-3.435-0.492c-0.501,0-0.994,0.018-1.477,0.052c-0.483,0.036-0.943,0.083-1.376,0.144
				c-0.435,0.061-0.839,0.129-1.212,0.212c-0.374,0.081-0.71,0.162-1.006,0.248h-0.953V1.429h13.339V4.508z"/>
			<path fill="#F6D7B7" d="M626.896,10.449V6.977h8.681v3.473H626.896z"/>
			<path fill="#F6D7B7" d="M648.885,8.215c0.727,0.163,1.348,0.359,1.863,0.588c0.515,0.229,0.935,0.494,1.259,0.795
				c0.326,0.299,0.562,0.635,0.71,1.005c0.148,0.37,0.222,0.774,0.222,1.212c0,0.762-0.206,1.43-0.619,2.001
				c-0.412,0.572-0.984,1.046-1.715,1.423c-0.73,0.379-1.593,0.662-2.588,0.848c-0.995,0.188-2.071,0.281-3.229,0.281
				c-0.776,0-1.49-0.034-2.139-0.102c-0.649-0.066-1.248-0.154-1.794-0.258c-0.547-0.107-1.05-0.225-1.509-0.355
				c-0.458-0.13-0.885-0.264-1.28-0.396v-3.483c0.438,0.231,0.93,0.44,1.477,0.624s1.111,0.34,1.694,0.471
				c0.582,0.132,1.169,0.23,1.762,0.297c0.593,0.067,1.154,0.102,1.683,0.102c0.96,0,1.726-0.059,2.297-0.176
				c0.572-0.117,1.006-0.264,1.302-0.444c0.296-0.18,0.488-0.372,0.577-0.576c0.088-0.206,0.132-0.398,0.132-0.583
				c0-0.312-0.101-0.578-0.301-0.805c-0.202-0.227-0.555-0.412-1.059-0.561c-0.505-0.148-1.188-0.26-2.049-0.334
				c-0.861-0.074-1.947-0.115-3.26-0.123V6.785c1.192,0,2.183-0.023,2.969-0.073s1.417-0.128,1.89-0.231
				c0.473-0.109,0.806-0.245,1-0.414c0.195-0.17,0.292-0.379,0.292-0.627c0-0.075-0.012-0.16-0.037-0.253
				C648.41,5.096,648.356,5,648.271,4.9c-0.084-0.098-0.208-0.192-0.371-0.285c-0.162-0.092-0.385-0.173-0.667-0.243
				c-0.282-0.07-0.632-0.128-1.048-0.169c-0.417-0.043-0.918-0.064-1.504-0.064c-0.55,0-1.109,0.029-1.678,0.085
				c-0.568,0.058-1.124,0.142-1.667,0.255c-0.542,0.112-1.068,0.25-1.577,0.411c-0.508,0.163-0.978,0.354-1.408,0.573V1.991
				c0.959-0.318,1.986-0.553,3.08-0.705c1.094-0.151,2.178-0.227,3.25-0.227c1.052,0,2.045,0.069,2.98,0.212
				c0.935,0.139,1.754,0.364,2.456,0.671s1.258,0.706,1.667,1.196s0.614,1.085,0.614,1.783c0,0.375-0.065,0.73-0.195,1.064
				c-0.131,0.336-0.337,0.645-0.62,0.927c-0.282,0.282-0.645,0.533-1.09,0.752S649.513,8.066,648.885,8.215z"/>
			<path fill="#F6D7B7" d="M661.419,15.976h-4.383l7.591-11.382h-9.889V1.429h14.525v2.69L661.419,15.976z"/>
			<path fill="#F6D7B7" d="M685.102,4.508h-9.676v2.235c0.226-0.042,0.475-0.079,0.751-0.11c0.274-0.033,0.561-0.059,0.857-0.079
				c0.296-0.022,0.596-0.039,0.899-0.054c0.304-0.014,0.604-0.02,0.9-0.02c1.179,0,2.231,0.104,3.16,0.316
				c0.928,0.211,1.714,0.521,2.356,0.932c0.643,0.408,1.133,0.914,1.472,1.514c0.338,0.6,0.508,1.291,0.508,2.076
				c0,0.725-0.157,1.398-0.471,2.016c-0.314,0.618-0.812,1.15-1.493,1.598c-0.681,0.448-1.564,0.799-2.651,1.054
				s-2.403,0.382-3.949,0.382c-0.712,0-1.391-0.027-2.038-0.08c-0.645-0.053-1.249-0.125-1.81-0.217
				c-0.562-0.093-1.073-0.194-1.535-0.307c-0.463-0.113-0.862-0.23-1.202-0.35v-3.43c0.304,0.141,0.662,0.287,1.074,0.438
				c0.413,0.153,0.893,0.291,1.44,0.414c0.547,0.124,1.165,0.226,1.853,0.307c0.688,0.082,1.459,0.123,2.313,0.123
				c1.581,0,2.734-0.168,3.46-0.504c0.728-0.335,1.092-0.795,1.092-1.381c0-0.692-0.398-1.203-1.191-1.529
				c-0.794-0.33-1.939-0.492-3.435-0.492c-0.501,0-0.994,0.018-1.477,0.052c-0.484,0.036-0.942,0.083-1.376,0.144
				s-0.838,0.129-1.211,0.212c-0.375,0.081-0.71,0.162-1.006,0.248h-0.953V1.429h13.34V4.508z"/>
			<path fill="#F6D7B7" d="M702.771,4.508h-9.677v2.235c0.227-0.042,0.476-0.079,0.752-0.11c0.275-0.033,0.561-0.059,0.857-0.079
				c0.296-0.022,0.596-0.039,0.899-0.054c0.305-0.014,0.604-0.02,0.9-0.02c1.179,0,2.232,0.104,3.16,0.316
				c0.928,0.211,1.713,0.521,2.356,0.932c0.642,0.408,1.133,0.914,1.471,1.514c0.339,0.6,0.508,1.291,0.508,2.076
				c0,0.725-0.157,1.398-0.471,2.016c-0.314,0.618-0.812,1.15-1.493,1.598c-0.681,0.448-1.564,0.799-2.651,1.054
				s-2.403,0.382-3.949,0.382c-0.713,0-1.392-0.027-2.038-0.08c-0.645-0.053-1.249-0.125-1.81-0.217
				c-0.561-0.093-1.073-0.194-1.535-0.307c-0.462-0.113-0.862-0.23-1.201-0.35v-3.43c0.303,0.141,0.661,0.287,1.074,0.438
				c0.413,0.153,0.893,0.291,1.439,0.414c0.547,0.124,1.165,0.226,1.854,0.307c0.688,0.082,1.459,0.123,2.313,0.123
				c1.581,0,2.735-0.168,3.461-0.504c0.728-0.335,1.091-0.795,1.091-1.381c0-0.692-0.397-1.203-1.19-1.529
				c-0.794-0.33-1.939-0.492-3.435-0.492c-0.501,0-0.995,0.018-1.477,0.052c-0.484,0.036-0.943,0.083-1.376,0.144
				c-0.434,0.061-0.838,0.129-1.212,0.212c-0.375,0.081-0.709,0.162-1.006,0.248h-0.953V1.429h13.339V4.508z"/>
		</g>
	</g>
</g>
</svg>
