<?xml version="1.0" encoding="utf-8"?>
<!-- Generator: Adobe Illustrator 16.0.0, SVG Export Plug-In . SVG Version: 6.00 Build 0)  -->
<!DOCTYPE svg PUBLIC "-//W3C//DTD SVG 1.1//EN" "http://www.w3.org/Graphics/SVG/1.1/DTD/svg11.dtd">
<svg version="1.1" id="Layer_1" xmlns="http://www.w3.org/2000/svg" xmlns:xlink="http://www.w3.org/1999/xlink" x="0px" y="0px"
	 width="410.482px" height="89.172px" viewBox="0 0 410.482 89.172" enable-background="new 0 0 410.482 89.172"
	 xml:space="preserve">
<g>
	<path fill="#F6D7B7" d="M350.008,13.217h-3.625l6.278-9.414h-8.179V1.185h12.015V3.41L350.008,13.217z"/>
	<path fill="#F6D7B7" d="M365.884,3.321c-0.771,0-1.438,0.073-2.006,0.219s-1.036,0.349-1.409,0.608
		c-0.374,0.26-0.656,0.563-0.846,0.911s-0.296,0.723-0.319,1.125c0.305-0.146,0.623-0.285,0.959-0.416s0.696-0.248,1.081-0.35
		c0.387-0.102,0.799-0.183,1.239-0.241c0.44-0.058,0.915-0.087,1.423-0.087c0.776,0,1.498,0.076,2.163,0.228
		c0.666,0.152,1.244,0.392,1.734,0.718c0.489,0.327,0.875,0.744,1.154,1.252c0.28,0.508,0.421,1.115,0.421,1.821
		c0,0.782-0.163,1.454-0.489,2.014c-0.327,0.561-0.777,1.02-1.35,1.379c-0.571,0.359-1.247,0.622-2.022,0.788
		c-0.776,0.167-1.617,0.25-2.521,0.25c-1.045,0-1.997-0.129-2.854-0.386c-0.857-0.257-1.598-0.642-2.215-1.156
		c-0.619-0.514-1.099-1.159-1.438-1.935s-0.508-1.682-0.508-2.715c0-0.887,0.15-1.724,0.451-2.509
		c0.301-0.785,0.765-1.471,1.393-2.058c0.627-0.586,1.424-1.051,2.392-1.392c0.966-0.342,2.11-0.512,3.437-0.512
		c0.392,0,0.794,0.015,1.209,0.043c0.414,0.029,0.82,0.069,1.217,0.119c0.397,0.049,0.772,0.106,1.125,0.17
		c0.354,0.064,0.664,0.131,0.934,0.202v2.697c-0.192-0.076-0.429-0.16-0.704-0.254c-0.277-0.093-0.6-0.179-0.964-0.258
		c-0.364-0.079-0.771-0.145-1.218-0.197C366.903,3.348,366.415,3.321,365.884,3.321z M361.365,8.838
		c0.062,0.245,0.196,0.496,0.397,0.753c0.201,0.257,0.464,0.492,0.788,0.705s0.703,0.388,1.14,0.525
		c0.435,0.137,0.92,0.206,1.458,0.206c0.426,0,0.826-0.033,1.203-0.101c0.377-0.067,0.703-0.171,0.98-0.311
		c0.277-0.14,0.496-0.317,0.656-0.53c0.161-0.213,0.241-0.466,0.241-0.758c0-0.315-0.064-0.583-0.192-0.806
		c-0.129-0.222-0.315-0.401-0.562-0.539c-0.244-0.137-0.548-0.238-0.905-0.302c-0.359-0.064-0.771-0.097-1.23-0.097
		c-0.38,0-0.758,0.035-1.134,0.105c-0.377,0.07-0.737,0.162-1.082,0.275c-0.345,0.114-0.667,0.247-0.968,0.398
		C361.856,8.518,361.593,8.675,361.365,8.838z"/>
	<path fill="#F6D7B7" d="M384.931,3.733h-8.004v1.848c0.188-0.035,0.395-0.065,0.622-0.092c0.229-0.026,0.464-0.048,0.709-0.065
		c0.245-0.018,0.493-0.032,0.744-0.044c0.251-0.012,0.499-0.018,0.744-0.018c0.976,0,1.847,0.087,2.614,0.263
		c0.767,0.176,1.417,0.432,1.947,0.771c0.531,0.339,0.938,0.756,1.219,1.252c0.279,0.496,0.42,1.068,0.42,1.716
		c0,0.602-0.13,1.157-0.391,1.668c-0.26,0.511-0.672,0.952-1.233,1.322c-0.563,0.371-1.295,0.662-2.194,0.872
		c-0.897,0.21-1.987,0.315-3.266,0.315c-0.59,0-1.152-0.022-1.688-0.066s-1.033-0.104-1.497-0.18s-0.888-0.16-1.27-0.254
		c-0.383-0.093-0.714-0.189-0.994-0.289V9.916c0.251,0.117,0.548,0.238,0.889,0.363c0.342,0.125,0.738,0.239,1.191,0.342
		c0.452,0.102,0.963,0.187,1.532,0.254c0.568,0.067,1.207,0.101,1.913,0.101c1.308,0,2.263-0.139,2.863-0.416
		c0.602-0.277,0.901-0.658,0.901-1.143c0-0.572-0.328-0.994-0.985-1.266c-0.655-0.271-1.604-0.407-2.841-0.407
		c-0.415,0-0.822,0.015-1.222,0.044c-0.4,0.029-0.779,0.068-1.14,0.118c-0.359,0.05-0.692,0.108-1.003,0.175
		c-0.31,0.067-0.587,0.136-0.832,0.206h-0.787V1.185h11.033v2.548H384.931z"/>
	<path fill="#F6D7B7" d="M399.546,3.733h-8.004v1.848c0.187-0.035,0.394-0.065,0.622-0.092c0.228-0.026,0.464-0.048,0.709-0.065
		c0.245-0.018,0.493-0.032,0.744-0.044c0.251-0.012,0.499-0.018,0.744-0.018c0.976,0,1.847,0.087,2.613,0.263
		c0.768,0.176,1.417,0.432,1.948,0.771s0.938,0.756,1.218,1.252c0.28,0.496,0.42,1.068,0.42,1.716c0,0.602-0.13,1.157-0.39,1.668
		c-0.26,0.511-0.672,0.952-1.234,1.322c-0.562,0.371-1.295,0.662-2.193,0.872s-1.987,0.315-3.267,0.315
		c-0.59,0-1.151-0.022-1.687-0.066s-1.033-0.104-1.497-0.18s-0.888-0.16-1.27-0.254c-0.384-0.093-0.715-0.189-0.994-0.289V9.916
		c0.251,0.117,0.548,0.238,0.889,0.363c0.342,0.125,0.738,0.239,1.191,0.342c0.451,0.102,0.963,0.187,1.531,0.254
		c0.569,0.067,1.207,0.101,1.913,0.101c1.309,0,2.264-0.139,2.864-0.416c0.602-0.277,0.901-0.658,0.901-1.143
		c0-0.572-0.328-0.994-0.985-1.266c-0.656-0.271-1.604-0.407-2.841-0.407c-0.415,0-0.822,0.015-1.222,0.044
		c-0.4,0.029-0.779,0.068-1.14,0.118c-0.359,0.05-0.692,0.108-1.003,0.175c-0.31,0.067-0.587,0.136-0.832,0.206h-0.788V1.185h11.034
		v2.548H399.546z"/>
</g>
<g id="Guides">
</g>
<g id="_x31_2_Col_Grid" opacity="0.1" enable-background="new    ">
</g>
<g>
	<path fill="#F6D7B7" d="M0,69.268V58.448l34.047-29.635H1.018v-11.35h53.125v9.502L18.551,57.918h36.346v11.35H0z"/>
	<path fill="#F6D7B7" d="M125.403,66.703c-4.247,1.408-8.489,2.42-12.726,3.035c-4.235,0.615-8.565,0.923-12.989,0.923
		c-5.655,0-10.688-0.608-15.1-1.828c-4.411-1.218-8.124-2.983-11.142-5.299c-3.017-2.312-5.316-5.14-6.899-8.481
		c-1.584-3.343-2.376-7.126-2.376-11.349c0-3.92,0.799-7.559,2.395-10.916c1.596-3.355,3.858-6.271,6.786-8.747
		c2.928-2.476,6.467-4.411,10.614-5.806c4.147-1.396,8.771-2.094,13.875-2.094c4.7,0,9.005,0.637,12.913,1.903
		c3.909,1.271,7.265,3.149,10.068,5.638c2.802,2.488,4.976,5.556,6.521,9.199c1.547,3.645,2.319,7.843,2.319,12.594v3.469H78.613
		c0.452,1.637,1.199,3.131,2.242,4.486c1.043,1.357,2.457,2.514,4.243,3.469c1.783,0.957,3.978,1.697,6.579,2.227
		c2.601,0.527,5.712,0.791,9.332,0.791c2.563,0,5.075-0.155,7.54-0.473c2.463-0.312,4.764-0.729,6.899-1.241
		c2.136-0.519,4.066-1.087,5.789-1.718c1.721-0.629,3.109-1.256,4.165-1.885L125.403,66.703L125.403,66.703z M115.752,38.689
		c-0.127-1.282-0.51-2.608-1.151-3.979c-0.641-1.368-1.652-2.606-3.034-3.714c-1.383-1.105-3.193-2.017-5.43-2.732
		c-2.237-0.717-5.027-1.076-8.371-1.076c-3.142,0-5.856,0.391-8.144,1.17c-2.288,0.779-4.204,1.746-5.75,2.902
		c-1.545,1.156-2.745,2.401-3.601,3.733c-0.854,1.333-1.408,2.563-1.658,3.695L115.752,38.689L115.752,38.689z"/>
	<path fill="#F6D7B7" d="M200.584,35.146c0,2.59-0.376,4.971-1.129,7.145c-0.755,2.174-1.968,4.047-3.641,5.617
		c-1.671,1.572-3.839,2.797-6.502,3.678c-2.666,0.879-5.908,1.318-9.729,1.318h-23.226v16.363h-13.989V17.462h37.215
		c3.82,0,7.062,0.434,9.729,1.301c2.663,0.867,4.831,2.088,6.502,3.657c1.673,1.571,2.886,3.437,3.641,5.599
		C200.208,30.181,200.584,32.558,200.584,35.146z M186.446,35.37c0-1.205-0.171-2.242-0.509-3.109
		c-0.34-0.867-0.9-1.577-1.678-2.131c-0.78-0.553-1.799-0.961-3.056-1.225c-1.256-0.264-2.802-0.396-4.637-0.396h-20.209v13.348
		h20.209c1.835,0,3.381-0.107,4.637-0.319c1.257-0.216,2.275-0.579,3.056-1.094c0.777-0.517,1.338-1.188,1.678-2.019
		C186.275,37.595,186.446,36.577,186.446,35.37z"/>
	<path fill="#F6D7B7" d="M261.741,69.268V47.663h-35.594v21.604H212.16V17.462h13.987v18.853h35.594V17.462h13.988v51.806H261.741z"
		/>
	<path fill="#F6D7B7" d="M337.959,28.68c-0.716-0.214-1.552-0.428-2.507-0.642c-0.956-0.215-2.005-0.396-3.149-0.547
		c-1.143-0.15-2.315-0.227-3.522-0.227c-2.517,0-4.857,0.309-7.032,0.924c-2.174,0.617-4.203,1.434-6.089,2.45
		c-1.885,1.019-3.64,2.175-5.26,3.47c-1.622,1.295-3.109,2.62-4.469,3.978v31.182h-13.988V17.462h13.988v8.408
		c1.684-1.256,3.411-2.469,5.185-3.639c1.771-1.169,3.619-2.207,5.544-3.11c1.922-0.905,3.951-1.628,6.089-2.168
		c2.137-0.54,4.396-0.812,6.786-0.812c0.905,0,1.828,0.044,2.771,0.133c0.943,0.088,1.861,0.195,2.754,0.32
		c0.894,0.126,1.729,0.264,2.508,0.414c0.777,0.152,1.457,0.303,2.035,0.453v11.727C339.223,29.062,338.676,28.893,337.959,28.68z"
		/>
	<path fill="#F6D7B7" d="M406.223,66.703c-4.249,1.408-8.488,2.42-12.726,3.035c-4.235,0.615-8.565,0.923-12.988,0.923
		c-5.657,0-10.688-0.608-15.101-1.828c-4.411-1.218-8.125-2.983-11.145-5.299c-3.017-2.312-5.313-5.14-6.896-8.481
		c-1.584-3.343-2.376-7.126-2.376-11.349c0-3.92,0.799-7.559,2.394-10.916c1.599-3.355,3.859-6.271,6.788-8.747
		c2.928-2.476,6.466-4.411,10.613-5.806c4.146-1.396,8.771-2.094,13.875-2.094c4.699,0,9.005,0.637,12.913,1.903
		c3.908,1.271,7.264,3.149,10.065,5.638c2.804,2.488,4.978,5.556,6.523,9.199c1.545,3.645,2.315,7.843,2.315,12.594v3.469H359.43
		c0.453,1.637,1.2,3.131,2.243,4.486c1.044,1.357,2.457,2.514,4.241,3.469c1.785,0.957,3.979,1.697,6.58,2.227
		c2.601,0.527,5.712,0.791,9.332,0.791c2.562,0,5.077-0.155,7.54-0.473c2.464-0.312,4.764-0.729,6.898-1.241
		c2.139-0.519,4.065-1.087,5.788-1.718c1.724-0.629,3.11-1.256,4.166-1.885v12.104L406.223,66.703L406.223,66.703z M396.57,38.689
		c-0.127-1.282-0.511-2.608-1.151-3.979c-0.64-1.368-1.652-2.606-3.034-3.714c-1.383-1.105-3.19-2.017-5.43-2.732
		c-2.236-0.717-5.027-1.076-8.369-1.076c-3.143,0-5.856,0.391-8.145,1.17c-2.288,0.779-4.203,1.746-5.75,2.902
		c-1.547,1.156-2.746,2.401-3.603,3.733c-0.854,1.333-1.407,2.563-1.659,3.695L396.57,38.689L396.57,38.689z"/>
</g>
<g>
	<path fill="#F6D7B7" d="M276.869,89.172V75.854h14.021v13.317L276.869,89.172L276.869,89.172z"/>
</g>
<path fill="#F6D7B7" d="M234.753,7.263c0,0.545,0.049,1.049,0.148,1.51c0.102,0.461,0.252,0.902,0.457,1.324
	c0.207,0.423,0.466,0.834,0.779,1.232c0.312,0.398,0.688,0.811,1.121,1.232l-1.82,1.963c-0.541-0.428-1.03-0.89-1.476-1.382
	c-0.442-0.493-0.823-1.032-1.146-1.62c-0.318-0.586-0.566-1.23-0.742-1.932c-0.176-0.702-0.264-1.478-0.264-2.328
	c0-0.853,0.088-1.628,0.264-2.329c0.176-0.701,0.424-1.345,0.742-1.932c0.32-0.587,0.703-1.126,1.146-1.616
	c0.444-0.49,0.935-0.952,1.476-1.386l1.82,1.963c-0.434,0.423-0.809,0.834-1.121,1.233c-0.313,0.397-0.572,0.809-0.779,1.231
	c-0.205,0.423-0.355,0.864-0.457,1.325C234.802,6.214,234.753,6.718,234.753,7.263z"/>
<path fill="#F6D7B7" d="M247.771,3.337c-0.772,0-1.443,0.072-2.016,0.219c-0.568,0.147-1.041,0.35-1.416,0.612
	c-0.376,0.261-0.66,0.567-0.852,0.915c-0.19,0.35-0.297,0.727-0.32,1.131c0.307-0.146,0.626-0.285,0.964-0.418
	c0.337-0.131,0.7-0.25,1.087-0.352c0.389-0.102,0.803-0.184,1.245-0.242c0.442-0.058,0.921-0.088,1.431-0.088
	c0.781,0,1.506,0.076,2.176,0.229c0.668,0.153,1.248,0.393,1.742,0.721c0.494,0.329,0.881,0.749,1.162,1.26
	c0.281,0.511,0.424,1.12,0.424,1.831c0,0.786-0.166,1.461-0.494,2.022c-0.327,0.564-0.779,1.026-1.354,1.387
	c-0.573,0.361-1.253,0.625-2.032,0.793c-0.779,0.167-1.625,0.251-2.533,0.251c-1.051,0-2.008-0.129-2.871-0.388
	c-0.862-0.258-1.604-0.645-2.229-1.162c-0.621-0.516-1.103-1.164-1.44-1.945c-0.342-0.78-0.51-1.69-0.51-2.729
	c0-0.893,0.148-1.733,0.449-2.521c0.305-0.789,0.771-1.479,1.398-2.068c0.633-0.59,1.434-1.057,2.404-1.4
	c0.969-0.343,2.121-0.516,3.455-0.516c0.395,0,0.799,0.016,1.213,0.045c0.418,0.027,0.826,0.068,1.227,0.119
	c0.396,0.049,0.773,0.105,1.131,0.171c0.354,0.064,0.668,0.132,0.938,0.202v2.711c-0.193-0.076-0.432-0.161-0.709-0.254
	c-0.278-0.094-0.604-0.182-0.969-0.26c-0.369-0.08-0.775-0.146-1.225-0.199C248.796,3.362,248.308,3.337,247.771,3.337z
	 M243.229,8.882c0.062,0.248,0.196,0.5,0.398,0.758c0.202,0.258,0.469,0.494,0.792,0.707c0.326,0.215,0.707,0.391,1.146,0.529
	c0.438,0.138,0.927,0.207,1.467,0.207c0.429,0,0.832-0.033,1.21-0.102c0.379-0.068,0.707-0.172,0.985-0.312
	c0.277-0.142,0.5-0.318,0.66-0.532c0.161-0.214,0.241-0.468,0.241-0.762c0-0.317-0.063-0.588-0.19-0.81
	c-0.131-0.223-0.318-0.404-0.565-0.542c-0.246-0.137-0.551-0.239-0.91-0.303c-0.36-0.063-0.772-0.099-1.235-0.099
	c-0.383,0-0.764,0.036-1.142,0.107c-0.379,0.07-0.739,0.164-1.087,0.275c-0.346,0.115-0.671,0.249-0.975,0.402
	C243.724,8.56,243.459,8.718,243.229,8.882z"/>
<path fill="#F6D7B7" d="M263.187,3.337c-0.773,0-1.446,0.072-2.017,0.219c-0.569,0.147-1.042,0.35-1.418,0.612
	c-0.375,0.261-0.657,0.567-0.849,0.915c-0.191,0.35-0.299,0.727-0.321,1.131c0.306-0.146,0.627-0.285,0.964-0.418
	c0.337-0.131,0.7-0.25,1.087-0.352c0.388-0.102,0.802-0.184,1.245-0.242c0.443-0.058,0.921-0.088,1.432-0.088
	c0.779,0,1.506,0.076,2.174,0.229c0.67,0.153,1.25,0.393,1.744,0.721c0.492,0.329,0.879,0.749,1.162,1.26
	c0.28,0.511,0.422,1.12,0.422,1.831c0,0.786-0.166,1.461-0.494,2.022c-0.327,0.564-0.778,1.026-1.354,1.387
	c-0.576,0.361-1.253,0.625-2.033,0.793c-0.781,0.167-1.625,0.251-2.535,0.251c-1.052,0-2.008-0.129-2.871-0.388
	c-0.86-0.258-1.604-0.645-2.227-1.162c-0.622-0.516-1.104-1.164-1.443-1.945c-0.34-0.78-0.512-1.69-0.512-2.729
	c0-0.893,0.15-1.733,0.453-2.521c0.303-0.789,0.77-1.479,1.4-2.068c0.63-0.59,1.432-1.057,2.402-1.4
	c0.969-0.343,2.123-0.516,3.455-0.516c0.395,0,0.799,0.016,1.215,0.045c0.418,0.027,0.823,0.068,1.225,0.119
	c0.398,0.049,0.775,0.105,1.131,0.171c0.354,0.064,0.668,0.132,0.938,0.202v2.711c-0.191-0.076-0.431-0.161-0.709-0.254
	c-0.276-0.094-0.602-0.182-0.968-0.26c-0.366-0.08-0.774-0.146-1.225-0.199C264.211,3.362,263.72,3.337,263.187,3.337z
	 M258.646,8.882c0.063,0.248,0.196,0.5,0.397,0.758c0.203,0.258,0.467,0.494,0.793,0.707c0.326,0.215,0.708,0.391,1.146,0.529
	c0.438,0.139,0.927,0.207,1.465,0.207c0.431,0,0.832-0.033,1.212-0.102c0.379-0.069,0.707-0.172,0.985-0.312
	c0.277-0.142,0.498-0.318,0.659-0.532c0.161-0.214,0.242-0.468,0.242-0.762c0-0.317-0.063-0.588-0.192-0.81
	c-0.131-0.223-0.316-0.404-0.562-0.542c-0.247-0.137-0.553-0.239-0.912-0.303c-0.359-0.063-0.771-0.099-1.234-0.099
	c-0.381,0-0.764,0.036-1.143,0.107c-0.378,0.07-0.738,0.164-1.086,0.275c-0.348,0.115-0.671,0.249-0.975,0.402
	C259.138,8.56,258.873,8.718,258.646,8.882z"/>
<path fill="#F6D7B7" d="M273.133,13.284V3.601l-3.248,1.014V2.192l3.248-1.004h3.248v12.096H273.133z"/>
<path fill="#F6D7B7" d="M282.49,7.263c0-0.545-0.05-1.049-0.15-1.51c-0.099-0.461-0.251-0.902-0.457-1.325
	c-0.204-0.423-0.466-0.834-0.778-1.229c-0.312-0.399-0.688-0.812-1.123-1.233l1.103-1.188v-0.02L281.804,0
	c0.533,0.404,1.016,0.853,1.443,1.347c0.322,0.363,0.617,0.752,0.881,1.162c0.264,0.411,0.49,0.849,0.678,1.316
	c0.188,0.467,0.336,0.967,0.444,1.501c0.108,0.534,0.169,1.106,0.181,1.716v0.221c0,0.646-0.052,1.246-0.154,1.805
	c-0.103,0.557-0.248,1.077-0.435,1.562c-0.188,0.482-0.418,0.937-0.688,1.355c-0.27,0.418-0.571,0.816-0.905,1.193
	c-0.199,0.223-0.405,0.437-0.621,0.638c-0.214,0.202-0.433,0.397-0.653,0.585c-0.029,0.018-0.06,0.035-0.084,0.054
	c-0.027,0.017-0.055,0.041-0.084,0.069l-0.723-0.757V13.75l-1.102-1.189c0.436-0.422,0.81-0.834,1.121-1.232
	c0.313-0.398,0.574-0.81,0.779-1.232c0.206-0.422,0.358-0.863,0.457-1.324C282.44,8.312,282.49,7.808,282.49,7.263z"/>
<path fill="#F6D7B7" d="M302.913,6.831c0.604,0.135,1.121,0.298,1.55,0.489c0.429,0.19,0.777,0.41,1.047,0.659
	c0.271,0.25,0.468,0.529,0.59,0.837c0.123,0.308,0.187,0.644,0.187,1.009c0,0.633-0.171,1.188-0.516,1.662
	c-0.343,0.474-0.817,0.869-1.426,1.184c-0.607,0.314-1.326,0.55-2.152,0.705c-0.828,0.156-1.724,0.233-2.686,0.233
	c-0.646,0-1.238-0.028-1.777-0.084c-0.541-0.056-1.037-0.128-1.492-0.216s-0.873-0.186-1.254-0.295
	c-0.383-0.108-0.736-0.218-1.065-0.33V9.789c0.364,0.193,0.772,0.366,1.229,0.519c0.455,0.153,0.924,0.283,1.407,0.393
	c0.484,0.11,0.974,0.191,1.466,0.246c0.492,0.056,0.961,0.084,1.398,0.084c0.799,0,1.436-0.049,1.911-0.146
	c0.475-0.097,0.836-0.221,1.082-0.37c0.245-0.148,0.405-0.309,0.479-0.479c0.072-0.17,0.109-0.332,0.109-0.483
	c0-0.26-0.084-0.482-0.251-0.67s-0.461-0.344-0.881-0.467c-0.419-0.123-0.987-0.215-1.702-0.275
	c-0.719-0.063-1.62-0.098-2.712-0.103V5.644c0.991,0,1.813-0.021,2.469-0.063c0.654-0.04,1.179-0.104,1.571-0.192
	c0.395-0.089,0.671-0.202,0.832-0.344c0.162-0.141,0.242-0.314,0.242-0.52c0-0.065-0.012-0.135-0.03-0.211
	c-0.021-0.076-0.067-0.155-0.138-0.237c-0.07-0.083-0.174-0.162-0.31-0.237c-0.136-0.076-0.317-0.144-0.555-0.203
	c-0.234-0.059-0.525-0.106-0.872-0.142c-0.348-0.034-0.764-0.052-1.25-0.052c-0.457,0-0.922,0.023-1.396,0.069
	c-0.472,0.048-0.936,0.118-1.387,0.212c-0.451,0.095-0.889,0.208-1.312,0.344c-0.422,0.135-0.812,0.293-1.17,0.476V1.655
	c0.799-0.266,1.652-0.459,2.562-0.586c0.909-0.126,1.812-0.189,2.702-0.189c0.875,0,1.7,0.059,2.479,0.177
	c0.774,0.116,1.457,0.304,2.041,0.56c0.584,0.255,1.045,0.585,1.387,0.994c0.341,0.408,0.511,0.901,0.511,1.484
	c0,0.312-0.056,0.604-0.163,0.883s-0.28,0.535-0.516,0.77c-0.233,0.236-0.537,0.444-0.905,0.626
	C303.881,6.556,303.437,6.708,302.913,6.831z"/>
<path fill="#F6D7B7" d="M313.336,13.284h-3.645l6.312-9.465h-8.223V1.188h12.077v2.236L313.336,13.284z"/>
<path fill="#F6D7B7" d="M333.027,3.75h-8.045v1.857c0.188-0.034,0.396-0.065,0.625-0.092c0.229-0.027,0.466-0.049,0.712-0.065
	c0.246-0.02,0.496-0.034,0.749-0.045c0.252-0.012,0.501-0.018,0.748-0.018c0.979,0,1.854,0.088,2.628,0.264
	c0.771,0.175,1.424,0.434,1.958,0.775c0.532,0.34,0.94,0.76,1.224,1.258c0.282,0.5,0.424,1.074,0.424,1.727
	c0,0.604-0.132,1.163-0.392,1.676c-0.262,0.514-0.675,0.955-1.241,1.33c-0.566,0.372-1.303,0.664-2.206,0.875
	s-1.998,0.317-3.283,0.317c-0.593,0-1.158-0.022-1.692-0.066c-0.537-0.044-1.038-0.104-1.507-0.18
	c-0.467-0.077-0.893-0.161-1.275-0.256c-0.384-0.093-0.717-0.19-0.999-0.29V9.964c0.252,0.118,0.551,0.24,0.894,0.365
	c0.346,0.127,0.742,0.242,1.198,0.345c0.454,0.103,0.968,0.187,1.54,0.255c0.571,0.066,1.212,0.102,1.922,0.102
	c1.314,0,2.274-0.139,2.88-0.418c0.604-0.279,0.906-0.662,0.906-1.148c0-0.575-0.329-1-0.99-1.273
	c-0.657-0.271-1.61-0.408-2.855-0.408c-0.416,0-0.824,0.014-1.229,0.043c-0.399,0.029-0.781,0.069-1.144,0.119
	c-0.361,0.05-0.696,0.109-1.009,0.176c-0.312,0.068-0.592,0.137-0.836,0.207h-0.792V1.188h11.091L333.027,3.75L333.027,3.75z"/>
<path fill="#F6D7B7" d="M336.355,8.688V5.8h7.218v2.888H336.355z"/>
<g>
	<path fill="#F6D7B7" d="M1.023,13.368V5.145h3.206v8.223H1.023z"/>
	<path fill="#F6D7B7" d="M14.434,4.079v9.29h-3.206v-9.29H6.19V1.495H19.48v2.584H14.434z"/>
	<path fill="#F6D7B7" d="M32.538,4.839c-0.225-0.109-0.521-0.233-0.89-0.372c-0.369-0.138-0.787-0.269-1.253-0.393
		c-0.466-0.124-0.974-0.228-1.521-0.311c-0.547-0.083-1.109-0.125-1.685-0.125c-0.461,0-0.854,0.015-1.18,0.043
		c-0.326,0.029-0.599,0.066-0.821,0.112c-0.222,0.046-0.397,0.099-0.527,0.16c-0.13,0.061-0.229,0.123-0.298,0.186
		c-0.069,0.063-0.114,0.126-0.134,0.19s-0.03,0.121-0.03,0.173c0,0.173,0.086,0.324,0.259,0.454c0.173,0.13,0.409,0.245,0.708,0.346
		c0.3,0.101,0.648,0.196,1.046,0.285s0.819,0.182,1.266,0.276c0.447,0.095,0.908,0.199,1.383,0.312
		c0.475,0.112,0.936,0.243,1.383,0.393c0.446,0.15,0.868,0.324,1.266,0.523c0.398,0.199,0.746,0.431,1.046,0.695
		c0.299,0.265,0.536,0.57,0.708,0.916s0.259,0.74,0.259,1.184c0,0.57-0.101,1.06-0.302,1.469c-0.202,0.409-0.471,0.755-0.808,1.037
		s-0.728,0.509-1.171,0.678c-0.444,0.17-0.909,0.301-1.396,0.394c-0.487,0.092-0.979,0.152-1.478,0.181
		c-0.498,0.029-0.972,0.043-1.421,0.043c-1.175,0-2.263-0.097-3.262-0.29s-1.882-0.434-2.648-0.722V9.842
		c0.789,0.438,1.689,0.781,2.7,1.028c1.011,0.248,2.093,0.372,3.245,0.372c0.68,0,1.234-0.036,1.664-0.108
		c0.429-0.072,0.765-0.164,1.006-0.276c0.242-0.112,0.406-0.235,0.493-0.367c0.086-0.133,0.13-0.259,0.13-0.38
		c0-0.19-0.086-0.355-0.259-0.497c-0.173-0.141-0.409-0.265-0.709-0.372c-0.299-0.106-0.648-0.204-1.045-0.293
		S27.441,8.77,26.994,8.68c-0.446-0.089-0.906-0.186-1.378-0.29c-0.473-0.104-0.932-0.226-1.378-0.367
		c-0.447-0.141-0.869-0.305-1.266-0.493c-0.397-0.187-0.746-0.409-1.045-0.666c-0.3-0.256-0.536-0.553-0.709-0.89
		c-0.173-0.337-0.259-0.728-0.259-1.171c0-0.524,0.092-0.976,0.277-1.356c0.184-0.38,0.433-0.704,0.748-0.972
		c0.314-0.268,0.677-0.485,1.089-0.652c0.412-0.167,0.845-0.297,1.3-0.389c0.455-0.092,0.916-0.155,1.383-0.19
		c0.466-0.035,0.91-0.052,1.331-0.052c0.461,0,0.935,0.023,1.421,0.069c0.487,0.046,0.967,0.111,1.439,0.195s0.929,0.18,1.37,0.289
		c0.441,0.11,0.848,0.225,1.223,0.346V4.839z"/>
	<path fill="#F6D7B7" d="M50.098,10.093c0,0.461-0.061,0.861-0.182,1.201c-0.121,0.34-0.29,0.632-0.505,0.877
		c-0.216,0.245-0.476,0.444-0.778,0.596c-0.303,0.153-0.637,0.274-1.002,0.363c-0.366,0.089-0.756,0.151-1.171,0.186
		c-0.415,0.035-0.844,0.052-1.288,0.052h-8.616V1.495h8.46c0.34,0,0.681,0.015,1.024,0.043s0.67,0.082,0.981,0.16
		s0.601,0.186,0.869,0.324c0.268,0.138,0.501,0.32,0.7,0.544s0.354,0.496,0.467,0.812c0.112,0.317,0.168,0.691,0.168,1.124
		c0,0.772-0.19,1.384-0.57,1.836s-0.979,0.753-1.797,0.903c0.576,0.041,1.07,0.128,1.482,0.264c0.412,0.135,0.748,0.32,1.007,0.553
		s0.449,0.519,0.57,0.855S50.098,9.644,50.098,10.093z M46.096,5.012c0-0.149-0.023-0.292-0.069-0.428
		c-0.046-0.135-0.13-0.255-0.25-0.358c-0.121-0.104-0.285-0.188-0.493-0.251c-0.208-0.063-0.473-0.095-0.795-0.095h-4.727v2.229
		h4.727c0.322,0,0.587-0.029,0.795-0.086s0.372-0.135,0.493-0.233c0.121-0.098,0.204-0.214,0.25-0.35
		C46.073,5.304,46.096,5.162,46.096,5.012z M46.839,9.722c0-0.271-0.046-0.488-0.138-0.653c-0.092-0.164-0.236-0.291-0.432-0.38
		s-0.449-0.148-0.76-0.177s-0.683-0.043-1.115-0.043h-4.632v2.515h4.632c0.432,0,0.804-0.014,1.115-0.043s0.564-0.089,0.76-0.182
		c0.196-0.092,0.34-0.22,0.432-0.384C46.793,10.209,46.839,9.992,46.839,9.722z"/>
	<path fill="#F6D7B7" d="M66.257,12.781c-0.974,0.322-1.946,0.554-2.917,0.695s-1.963,0.212-2.977,0.212
		c-1.296,0-2.45-0.14-3.461-0.419c-1.011-0.279-1.862-0.684-2.554-1.214c-0.691-0.53-1.218-1.178-1.581-1.944
		c-0.363-0.766-0.544-1.633-0.544-2.601c0-0.899,0.183-1.733,0.549-2.502c0.366-0.769,0.884-1.437,1.555-2.005
		c0.671-0.567,1.482-1.011,2.433-1.331s2.011-0.479,3.18-0.479c1.077,0,2.064,0.146,2.959,0.437
		c0.896,0.291,1.665,0.721,2.308,1.292c0.642,0.57,1.141,1.273,1.495,2.109c0.354,0.835,0.531,1.797,0.531,2.886V8.71H55.533
		c0.104,0.375,0.275,0.717,0.514,1.028s0.563,0.576,0.972,0.795c0.409,0.219,0.912,0.389,1.508,0.51
		c0.597,0.121,1.31,0.182,2.139,0.182c0.587,0,1.164-0.036,1.728-0.108c0.564-0.072,1.092-0.167,1.582-0.285s0.932-0.25,1.326-0.394
		c0.395-0.144,0.713-0.288,0.955-0.432V12.781z M64.044,6.36c-0.029-0.294-0.116-0.598-0.263-0.912s-0.379-0.598-0.696-0.851
		s-0.732-0.462-1.244-0.626c-0.513-0.165-1.152-0.247-1.918-0.247c-0.72,0-1.343,0.089-1.867,0.268
		c-0.524,0.179-0.963,0.4-1.318,0.666c-0.354,0.265-0.629,0.55-0.825,0.855c-0.196,0.305-0.323,0.587-0.38,0.847H64.044z"/>
	<path fill="#F6D7B7" d="M76.626,4.079v9.29H73.42v-9.29h-5.038V1.495h13.291v2.584H76.626z"/>
	<path fill="#F6D7B7" d="M90.444,4.079v9.29h-3.206v-9.29h-5.038V1.495h13.291v2.584H90.444z"/>
	<path fill="#F6D7B7" d="M110.847,12.781c-0.974,0.322-1.946,0.554-2.917,0.695s-1.963,0.212-2.977,0.212
		c-1.296,0-2.45-0.14-3.461-0.419c-1.011-0.279-1.862-0.684-2.554-1.214c-0.691-0.53-1.218-1.178-1.581-1.944
		c-0.363-0.766-0.544-1.633-0.544-2.601c0-0.899,0.183-1.733,0.549-2.502c0.366-0.769,0.884-1.437,1.555-2.005
		c0.671-0.567,1.482-1.011,2.433-1.331s2.011-0.479,3.18-0.479c1.077,0,2.064,0.146,2.959,0.437
		c0.896,0.291,1.665,0.721,2.308,1.292c0.642,0.57,1.141,1.273,1.495,2.109c0.354,0.835,0.531,1.797,0.531,2.886V8.71h-11.701
		c0.104,0.375,0.275,0.717,0.514,1.028s0.563,0.576,0.972,0.795c0.409,0.219,0.912,0.389,1.508,0.51
		c0.597,0.121,1.31,0.182,2.139,0.182c0.587,0,1.164-0.036,1.728-0.108c0.564-0.072,1.092-0.167,1.582-0.285s0.932-0.25,1.326-0.394
		c0.395-0.144,0.713-0.288,0.955-0.432V12.781z M108.635,6.36c-0.029-0.294-0.116-0.598-0.263-0.912s-0.379-0.598-0.696-0.851
		s-0.732-0.462-1.244-0.626c-0.513-0.165-1.152-0.247-1.918-0.247c-0.72,0-1.343,0.089-1.867,0.268
		c-0.524,0.179-0.963,0.4-1.318,0.666c-0.354,0.265-0.629,0.55-0.825,0.855c-0.196,0.305-0.323,0.587-0.38,0.847H108.635z"/>
	<path fill="#F6D7B7" d="M125.283,4.065c-0.164-0.049-0.355-0.098-0.575-0.147c-0.219-0.049-0.459-0.09-0.721-0.125
		c-0.262-0.035-0.532-0.052-0.808-0.052c-0.576,0-1.113,0.07-1.612,0.211s-0.963,0.329-1.396,0.562
		c-0.432,0.233-0.834,0.498-1.206,0.795s-0.713,0.601-1.024,0.912v7.146h-3.206V1.495h3.206v1.927
		c0.386-0.288,0.782-0.566,1.188-0.834c0.406-0.268,0.83-0.505,1.271-0.713s0.906-0.373,1.396-0.497
		c0.49-0.124,1.008-0.186,1.556-0.186c0.208,0,0.419,0.01,0.635,0.03c0.216,0.02,0.426,0.044,0.63,0.073
		c0.205,0.029,0.396,0.061,0.575,0.095c0.179,0.035,0.334,0.069,0.467,0.104v2.688C125.572,4.153,125.447,4.115,125.283,4.065z"/>
	<path fill="#F6D7B7" d="M136.383,9.601c-0.121,0.109-0.252,0.222-0.393,0.337s-0.309,0.219-0.501,0.311s-0.416,0.168-0.669,0.229
		c-0.254,0.061-0.553,0.091-0.899,0.091c-0.397,0-0.769-0.055-1.115-0.164s-0.648-0.272-0.907-0.488
		c-0.259-0.216-0.462-0.482-0.609-0.799s-0.22-0.68-0.22-1.089c0-0.415,0.061-0.795,0.182-1.141
		c0.121-0.346,0.282-0.658,0.484-0.938c0.201-0.279,0.432-0.524,0.691-0.734c0.259-0.21,0.532-0.384,0.817-0.523
		c0.285-0.138,0.57-0.243,0.855-0.315c0.285-0.072,0.552-0.108,0.799-0.108c0.397,0,0.723,0.052,0.977,0.156
		c0.253,0.104,0.446,0.202,0.579,0.293l0.069-0.319h2.014l-0.527,3.214c-0.006,0.018-0.014,0.063-0.026,0.138
		c-0.012,0.075-0.023,0.156-0.035,0.242c-0.011,0.086-0.021,0.166-0.03,0.238c-0.008,0.072-0.013,0.114-0.013,0.125
		c0,0.063,0.007,0.133,0.021,0.208s0.043,0.144,0.086,0.208c0.043,0.063,0.102,0.117,0.177,0.16
		c0.075,0.043,0.173,0.065,0.294,0.065c0.322,0,0.59-0.086,0.804-0.259c0.213-0.173,0.381-0.385,0.505-0.635
		c0.124-0.25,0.211-0.516,0.264-0.795c0.052-0.279,0.078-0.528,0.078-0.748c0-0.49-0.079-0.946-0.238-1.37
		c-0.158-0.423-0.425-0.791-0.799-1.102c-0.375-0.312-0.868-0.556-1.482-0.735c-0.614-0.178-1.373-0.268-2.277-0.268
		c-0.674,0-1.287,0.063-1.836,0.19c-0.55,0.127-1.04,0.3-1.469,0.519s-0.799,0.478-1.11,0.778c-0.311,0.299-0.569,0.622-0.773,0.968
		s-0.356,0.706-0.454,1.08c-0.098,0.375-0.147,0.749-0.147,1.124c0,0.542,0.083,1.051,0.25,1.529
		c0.167,0.479,0.452,0.896,0.855,1.253c0.403,0.357,0.938,0.64,1.603,0.847c0.666,0.208,1.497,0.311,2.493,0.311
		c0.334,0,0.641-0.009,0.92-0.026c0.279-0.018,0.537-0.043,0.773-0.078c0.236-0.035,0.457-0.077,0.661-0.125
		c0.204-0.049,0.405-0.108,0.601-0.177l0.553,1.936c-0.213,0.075-0.462,0.143-0.747,0.203s-0.586,0.112-0.903,0.156
		c-0.317,0.043-0.641,0.076-0.972,0.099c-0.331,0.023-0.649,0.035-0.955,0.035c-1.291,0-2.417-0.138-3.379-0.415
		c-0.962-0.277-1.762-0.674-2.398-1.193c-0.637-0.518-1.114-1.145-1.43-1.879c-0.317-0.734-0.476-1.56-0.476-2.476
		c0-0.617,0.094-1.208,0.281-1.776c0.188-0.567,0.455-1.099,0.804-1.594c0.349-0.496,0.771-0.946,1.266-1.353s1.05-0.756,1.664-1.05
		c0.613-0.294,1.282-0.52,2.005-0.679c0.723-0.158,1.485-0.237,2.286-0.237c0.847,0,1.617,0.069,2.312,0.207
		c0.694,0.139,1.313,0.332,1.858,0.579c0.544,0.248,1.016,0.543,1.413,0.886s0.727,0.716,0.989,1.119s0.457,0.831,0.583,1.283
		c0.126,0.452,0.19,0.915,0.19,1.387c0,0.53-0.085,1.038-0.255,1.525s-0.428,0.917-0.773,1.292s-0.784,0.674-1.313,0.899
		c-0.53,0.225-1.155,0.337-1.875,0.337c-0.225,0-0.443-0.02-0.657-0.061c-0.213-0.04-0.409-0.101-0.587-0.182
		c-0.179-0.081-0.338-0.181-0.479-0.302C136.565,9.903,136.458,9.762,136.383,9.601z M134.292,9.047
		c0.196,0,0.369-0.026,0.519-0.078s0.285-0.121,0.406-0.208s0.232-0.187,0.333-0.302s0.194-0.236,0.281-0.363l0.32-1.771
		c-0.058-0.086-0.129-0.163-0.216-0.229c-0.086-0.066-0.177-0.122-0.272-0.168c-0.095-0.046-0.194-0.081-0.298-0.104
		c-0.104-0.023-0.202-0.035-0.294-0.035c-0.259,0-0.505,0.058-0.739,0.173s-0.437,0.27-0.609,0.462s-0.31,0.419-0.411,0.678
		c-0.101,0.259-0.151,0.536-0.151,0.83c0,0.15,0.02,0.292,0.061,0.428c0.04,0.135,0.106,0.253,0.199,0.354
		c0.092,0.101,0.21,0.181,0.354,0.242S134.09,9.047,134.292,9.047z"/>
	<g>
		<path fill="#F6D7B7" d="M1.015,4.07V1.478h3.214V4.07H1.015L1.015,4.07z"/>
	</g>
</g>
</svg>
