<?xml version="1.0" encoding="utf-8"?>
<!-- Generator: Adobe Illustrator 16.0.0, SVG Export Plug-In . SVG Version: 6.00 Build 0)  -->
<!DOCTYPE svg PUBLIC "-//W3C//DTD SVG 1.1//EN" "http://www.w3.org/Graphics/SVG/1.1/DTD/svg11.dtd">
<svg version="1.1" id="Layer_1" xmlns="http://www.w3.org/2000/svg" xmlns:xlink="http://www.w3.org/1999/xlink" x="0px" y="0px"
	 width="711.074px" height="147.398px" viewBox="0 0 711.074 147.398" enable-background="new 0 0 711.074 147.398"
	 xml:space="preserve">
<g id="Guides">
</g>
<g id="_x31_2_Col_Grid" opacity="0.1" enable-background="new    ">
</g>
<g>
	<g>
		<g>
			<path fill="#F6D7B7" d="M0.197,112.928v-18.74l58.962-51.321h-57.2V23.211h92.002v16.455L32.322,93.273h62.945v19.654
				L0.197,112.928L0.197,112.928z"/>
			<path fill="#F6D7B7" d="M217.371,108.486c-7.356,2.439-14.703,4.19-22.037,5.259c-7.335,1.065-14.833,1.6-22.495,1.6
				c-9.794,0-18.511-1.057-26.151-3.168c-7.639-2.109-14.071-5.168-19.294-9.174c-5.224-4.004-9.207-8.901-11.949-14.691
				c-2.742-5.789-4.114-12.341-4.114-19.653c0-6.79,1.382-13.093,4.147-18.902c2.764-5.812,6.681-10.861,11.753-15.149
				c5.07-4.287,11.198-7.639,18.38-10.056c7.183-2.416,15.192-3.623,24.029-3.623c8.139,0,15.595,1.101,22.364,3.297
				c6.768,2.198,12.58,5.452,17.434,9.763c4.853,4.31,8.619,9.621,11.296,15.933c2.677,6.312,4.016,13.581,4.016,21.809v6.007
				h-88.411c0.784,2.831,2.078,5.42,3.885,7.771c1.806,2.351,4.255,4.354,7.346,6.008c3.09,1.653,6.889,2.938,11.394,3.854
				c4.505,0.914,9.893,1.37,16.161,1.37c4.44,0,8.792-0.271,13.059-0.815c4.266-0.545,8.249-1.262,11.949-2.155
				c3.699-0.892,7.041-1.882,10.023-2.972c2.981-1.087,5.387-2.175,7.215-3.266V108.486z M200.655,59.973
				c-0.219-2.219-0.881-4.516-1.991-6.889c-1.111-2.373-2.864-4.518-5.257-6.433c-2.394-1.915-5.529-3.493-9.402-4.733
				c-3.875-1.24-8.707-1.86-14.496-1.86c-5.442,0-10.143,0.675-14.104,2.023c-3.961,1.35-7.28,3.025-9.958,5.027
				c-2.678,2.002-4.756,4.158-6.235,6.465c-1.481,2.308-2.438,4.439-2.873,6.398L200.655,59.973L200.655,59.973z"/>
			<path fill="#F6D7B7" d="M347.571,53.834c0,4.483-0.653,8.608-1.958,12.373c-1.307,3.768-3.407,7.01-6.301,9.729
				c-2.896,2.723-6.65,4.843-11.265,6.365c-4.615,1.525-10.229,2.286-16.847,2.286h-40.222v28.339h-24.225V23.211h64.447
				c6.617,0,12.231,0.75,16.847,2.252c4.613,1.503,8.368,3.614,11.264,6.334c2.896,2.721,4.995,5.953,6.302,9.697
				C346.917,45.238,347.571,49.352,347.571,53.834z M323.085,54.227c0-2.09-0.294-3.885-0.882-5.387
				c-0.587-1.502-1.557-2.731-2.906-3.689c-1.35-0.957-3.112-1.666-5.289-2.123s-4.854-0.684-8.032-0.684h-34.999v23.113h34.999
				c3.177,0,5.854-0.185,8.032-0.556c2.176-0.37,3.939-1.001,5.289-1.894s2.318-2.057,2.906-3.494
				C322.791,58.078,323.085,56.316,323.085,54.227z"/>
			<path fill="#F6D7B7" d="M453.482,112.928V75.514h-61.641v37.414h-24.225V23.211h24.225v32.647h61.641V23.211h24.223v89.717
				H453.482z"/>
			<path fill="#F6D7B7" d="M585.476,42.637c-1.24-0.369-2.688-0.74-4.342-1.11c-1.654-0.368-3.471-0.685-5.453-0.945
				c-1.98-0.262-4.014-0.394-6.104-0.394c-4.354,0-8.412,0.534-12.178,1.601s-7.279,2.481-10.545,4.246
				c-3.264,1.761-6.301,3.765-9.109,6.006c-2.807,2.242-5.387,4.537-7.736,6.889v54h-24.225V23.211h24.225v14.561
				c2.914-2.176,5.908-4.274,8.979-6.302c3.068-2.023,6.268-3.819,9.598-5.386c3.33-1.568,6.844-2.818,10.545-3.754
				c3.699-0.938,7.617-1.404,11.754-1.404c1.566,0,3.166,0.076,4.799,0.228c1.633,0.153,3.223,0.339,4.768,0.557
				c1.543,0.218,2.992,0.457,4.34,0.719c1.35,0.262,2.525,0.521,3.527,0.783v20.307C587.664,43.301,586.716,43.006,585.476,42.637z"
				/>
			<path fill="#F6D7B7" d="M703.695,108.486c-7.357,2.439-14.703,4.19-22.037,5.259c-7.336,1.065-14.834,1.6-22.494,1.6
				c-9.795,0-18.512-1.057-26.15-3.168c-7.641-2.109-14.072-5.168-19.295-9.174c-5.225-4.004-9.209-8.901-11.951-14.691
				c-2.74-5.789-4.113-12.341-4.113-19.653c0-6.79,1.381-13.093,4.146-18.902c2.764-5.812,6.682-10.861,11.754-15.149
				c5.07-4.287,11.197-7.639,18.379-10.056c7.184-2.416,15.193-3.623,24.031-3.623c8.139,0,15.594,1.101,22.363,3.297
				c6.768,2.198,12.58,5.452,17.434,9.763c4.854,4.31,8.619,9.621,11.295,15.933c2.678,6.312,4.018,13.581,4.018,21.809v6.007
				h-88.41c0.783,2.831,2.078,5.42,3.885,7.771c1.805,2.351,4.254,4.354,7.344,6.008c3.092,1.653,6.891,2.938,11.396,3.854
				c4.504,0.914,9.891,1.37,16.16,1.37c4.439,0,8.793-0.271,13.059-0.815s8.25-1.262,11.949-2.155
				c3.699-0.892,7.041-1.882,10.021-2.972c2.982-1.087,5.389-2.175,7.217-3.266V108.486L703.695,108.486z M686.978,59.973
				c-0.217-2.219-0.881-4.516-1.99-6.889s-2.863-4.518-5.256-6.433c-2.396-1.915-5.529-3.493-9.404-4.733s-8.707-1.86-14.494-1.86
				c-5.443,0-10.145,0.675-14.105,2.023c-3.961,1.35-7.279,3.025-9.957,5.027s-4.756,4.158-6.236,6.465
				c-1.48,2.308-2.438,4.439-2.873,6.398L686.978,59.973L686.978,59.973z"/>
		</g>
		<g>
			<path fill="#F6D7B7" d="M479.679,147.399v-23.062h24.281v23.062H479.679z"/>
		</g>
	</g>
	<g>
		<path fill="#F6D7B7" d="M3.928,9.75c0,0.606,0.056,1.104,0.169,1.486c0.113,0.387,0.296,0.69,0.55,0.917
			c0.254,0.226,0.584,0.382,0.99,0.466c0.406,0.085,0.905,0.127,1.498,0.127h7.453v3.229H6.331c-1.144,0-2.116-0.093-2.917-0.28
			c-0.801-0.188-1.456-0.479-1.964-0.867c-0.508-0.393-0.876-0.889-1.105-1.488C0.115,12.738,0,12.025,0,11.201V1.429h3.928V9.75z"
			/>
		<path fill="#F6D7B7" d="M33.846,15.256c-1.193,0.395-2.383,0.678-3.573,0.852c-1.189,0.172-2.405,0.261-3.647,0.261
			c-1.588,0-3.001-0.173-4.24-0.515c-1.238-0.343-2.281-0.838-3.128-1.487c-0.847-0.649-1.493-1.442-1.938-2.382
			c-0.444-0.938-0.667-2.002-0.667-3.188c0-1.102,0.224-2.122,0.672-3.064c0.448-0.941,1.083-1.762,1.905-2.457
			c0.823-0.692,1.816-1.237,2.98-1.63c1.164-0.392,2.463-0.586,3.896-0.586c1.32,0,2.529,0.178,3.626,0.532
			c1.097,0.357,2.04,0.885,2.827,1.584c0.787,0.697,1.398,1.561,1.831,2.582c0.435,1.024,0.651,2.204,0.651,3.536v0.976H20.708
			c0.127,0.457,0.337,0.878,0.63,1.26c0.292,0.381,0.689,0.705,1.191,0.974c0.5,0.27,1.117,0.478,1.847,0.626
			c0.731,0.146,1.604,0.222,2.62,0.222c0.72,0,1.425-0.045,2.118-0.132c0.691-0.089,1.337-0.206,1.938-0.351
			c0.6-0.145,1.141-0.305,1.625-0.481c0.484-0.175,0.874-0.353,1.17-0.528L33.846,15.256L33.846,15.256z M31.136,7.389
			c-0.036-0.357-0.143-0.729-0.323-1.117c-0.18-0.383-0.464-0.731-0.852-1.043c-0.389-0.31-0.896-0.563-1.524-0.767
			c-0.628-0.2-1.412-0.302-2.351-0.302c-0.882,0-1.645,0.108-2.287,0.327c-0.642,0.221-1.181,0.49-1.614,0.815
			c-0.435,0.325-0.772,0.674-1.011,1.048c-0.241,0.375-0.396,0.72-0.466,1.037L31.136,7.389L31.136,7.389z"/>
		<path fill="#F6D7B7" d="M46.55,4.594v11.382h-3.928V4.594H36.45V1.429h16.283v3.165H46.55z"/>
		<path fill="#F6D7B7" d="M68.729,5.525c-0.275-0.133-0.639-0.284-1.09-0.455c-0.451-0.17-0.964-0.328-1.535-0.48
			c-0.572-0.151-1.193-0.278-1.863-0.382c-0.671-0.103-1.359-0.152-2.064-0.152c-0.565,0-1.046,0.019-1.445,0.053
			c-0.399,0.035-0.734,0.08-1.006,0.138s-0.487,0.123-0.646,0.196c-0.159,0.074-0.281,0.149-0.366,0.229
			C58.629,4.746,58.575,4.823,58.55,4.9c-0.025,0.078-0.038,0.15-0.038,0.213c0,0.213,0.106,0.396,0.317,0.556
			c0.212,0.16,0.501,0.301,0.869,0.424c0.367,0.124,0.794,0.24,1.281,0.35c0.487,0.11,1.004,0.224,1.551,0.341
			c0.547,0.114,1.111,0.241,1.694,0.381c0.582,0.137,1.147,0.297,1.694,0.48s1.063,0.396,1.551,0.643
			c0.487,0.241,0.914,0.524,1.281,0.852c0.367,0.324,0.656,0.697,0.868,1.121c0.212,0.424,0.318,0.908,0.318,1.449
			c0,0.7-0.124,1.301-0.371,1.802c-0.248,0.501-0.577,0.925-0.99,1.271c-0.413,0.345-0.891,0.621-1.435,0.829
			c-0.543,0.209-1.113,0.368-1.709,0.482c-0.597,0.113-1.2,0.188-1.811,0.222c-0.611,0.036-1.191,0.055-1.742,0.055
			c-1.44,0-2.772-0.119-3.997-0.355c-1.224-0.235-2.306-0.53-3.244-0.883v-3.473c0.967,0.534,2.069,0.956,3.308,1.26
			c1.239,0.304,2.563,0.455,3.976,0.455c0.833,0,1.512-0.045,2.038-0.132c0.526-0.09,0.938-0.202,1.234-0.342
			c0.296-0.137,0.498-0.285,0.603-0.446c0.106-0.163,0.159-0.318,0.159-0.468c0-0.232-0.105-0.438-0.317-0.608
			c-0.211-0.172-0.501-0.324-0.868-0.456c-0.367-0.13-0.794-0.249-1.281-0.359c-0.487-0.107-1.004-0.22-1.551-0.327
			c-0.547-0.108-1.111-0.228-1.689-0.354C59.67,9.75,59.107,9.6,58.56,9.428c-0.546-0.172-1.064-0.374-1.551-0.604
			c-0.487-0.23-0.914-0.5-1.281-0.814c-0.367-0.315-0.656-0.678-0.868-1.092c-0.212-0.412-0.317-0.892-0.317-1.436
			c0-0.643,0.113-1.195,0.338-1.66c0.226-0.468,0.531-0.863,0.916-1.191c0.384-0.329,0.829-0.594,1.334-0.801
			c0.505-0.204,1.036-0.362,1.593-0.476c0.558-0.112,1.122-0.19,1.694-0.233c0.572-0.042,1.115-0.062,1.63-0.062
			c0.565,0,1.146,0.026,1.742,0.085c0.597,0.056,1.184,0.134,1.763,0.236c0.579,0.104,1.138,0.221,1.679,0.354
			c0.539,0.134,1.039,0.274,1.498,0.425L68.729,5.525L68.729,5.525z"/>
		<path fill="#F6D7B7" d="M91.469,8.691c0,0.933-0.102,1.761-0.307,2.482c-0.205,0.725-0.492,1.353-0.863,1.891
			c-0.371,0.535-0.815,0.99-1.334,1.364s-1.095,0.675-1.731,0.901c-0.635,0.225-1.32,0.39-2.054,0.491
			c-0.734,0.103-1.5,0.153-2.297,0.153h-9.231V1.429h9.21c0.798,0,1.563,0.052,2.297,0.153c0.734,0.103,1.42,0.268,2.059,0.494
			c0.639,0.225,1.219,0.521,1.742,0.893s0.969,0.827,1.339,1.366c0.371,0.54,0.658,1.17,0.863,1.89S91.469,7.767,91.469,8.691z
			 M87.51,8.691c0-0.698-0.089-1.306-0.271-1.82c-0.179-0.516-0.469-0.94-0.868-1.274c-0.398-0.336-0.919-0.587-1.561-0.754
			c-0.643-0.164-1.426-0.248-2.35-0.248h-4.881v8.215h4.881c0.924,0,1.708-0.082,2.35-0.248s1.163-0.42,1.561-0.762
			c0.399-0.343,0.688-0.771,0.868-1.287C87.42,9.997,87.51,9.39,87.51,8.691z"/>
		<path fill="#F6D7B7" d="M113.871,8.713c0,1.248-0.23,2.352-0.688,3.308c-0.459,0.956-1.115,1.756-1.969,2.397
			c-0.854,0.643-1.889,1.129-3.107,1.455c-1.217,0.33-2.584,0.494-4.102,0.494s-2.888-0.164-4.113-0.494
			c-1.225-0.326-2.268-0.812-3.128-1.455c-0.861-0.643-1.525-1.441-1.991-2.397s-0.699-2.06-0.699-3.308
			c0-1.25,0.233-2.353,0.699-3.31c0.466-0.956,1.129-1.756,1.991-2.396c0.861-0.646,1.904-1.129,3.128-1.457
			s2.595-0.491,4.113-0.491s2.885,0.163,4.102,0.491c1.218,0.328,2.253,0.812,3.107,1.457c0.854,0.641,1.51,1.439,1.969,2.396
			C113.641,6.361,113.871,7.463,113.871,8.713z M109.901,8.713c0-0.544-0.086-1.084-0.259-1.627
			c-0.173-0.539-0.48-1.023-0.921-1.453c-0.441-0.432-1.042-0.779-1.805-1.049c-0.762-0.269-1.732-0.402-2.911-0.402
			c-0.791,0-1.486,0.062-2.086,0.187s-1.118,0.295-1.556,0.513C99.925,5.1,99.558,5.357,99.262,5.65
			c-0.296,0.292-0.533,0.606-0.709,0.941c-0.177,0.336-0.302,0.686-0.376,1.048c-0.074,0.364-0.111,0.722-0.111,1.075
			c0,0.36,0.038,0.723,0.111,1.09c0.075,0.367,0.2,0.719,0.376,1.053c0.176,0.336,0.413,0.648,0.709,0.938
			c0.296,0.29,0.663,0.543,1.101,0.759c0.438,0.215,0.956,0.385,1.556,0.508s1.295,0.187,2.086,0.187
			c1.179,0,2.149-0.136,2.911-0.403c0.763-0.268,1.364-0.618,1.805-1.049c0.441-0.429,0.748-0.914,0.921-1.454
			C109.814,9.797,109.901,9.256,109.901,8.713z"/>
		<path fill="#F6D7B7" d="M125.601,4.594v11.382h-3.927V4.594h-6.172V1.429h16.282v3.165H125.601z"/>
		<path fill="#F6D7B7" d="M148.299,15.976V9.91h-9.994v6.064h-3.928V1.429h3.928v5.294h9.994V1.429h3.928v14.547H148.299z"/>
		<path fill="#F6D7B7" d="M156.779,15.976V1.429h3.927v14.547H156.779z"/>
		<path fill="#F6D7B7" d="M178.662,5.525c-0.275-0.133-0.639-0.284-1.091-0.455c-0.452-0.17-0.963-0.328-1.535-0.48
			c-0.572-0.151-1.193-0.278-1.863-0.382c-0.671-0.103-1.359-0.152-2.064-0.152c-0.565,0-1.046,0.019-1.445,0.053
			c-0.399,0.035-0.734,0.08-1.006,0.138c-0.271,0.058-0.487,0.123-0.646,0.196c-0.159,0.074-0.28,0.149-0.365,0.229
			c-0.085,0.077-0.14,0.153-0.164,0.23c-0.025,0.078-0.038,0.15-0.038,0.214c0,0.212,0.106,0.396,0.318,0.555
			c0.211,0.16,0.501,0.301,0.868,0.424c0.367,0.124,0.794,0.24,1.281,0.35c0.487,0.11,1.004,0.224,1.551,0.341
			c0.547,0.114,1.111,0.241,1.694,0.381c0.582,0.137,1.146,0.297,1.693,0.48c0.547,0.184,1.064,0.396,1.551,0.643
			c0.487,0.241,0.914,0.524,1.281,0.852c0.367,0.324,0.657,0.697,0.869,1.121c0.211,0.424,0.317,0.908,0.317,1.449
			c0,0.7-0.124,1.301-0.371,1.802c-0.248,0.501-0.577,0.925-0.99,1.271c-0.413,0.345-0.891,0.621-1.434,0.829
			c-0.544,0.209-1.114,0.368-1.71,0.482c-0.596,0.113-1.2,0.188-1.811,0.222c-0.61,0.036-1.191,0.055-1.741,0.055
			c-1.439,0-2.772-0.119-3.997-0.355c-1.225-0.235-2.306-0.53-3.245-0.883v-3.473c0.967,0.534,2.07,0.956,3.308,1.26
			c1.239,0.304,2.563,0.455,3.975,0.455c0.833,0,1.512-0.045,2.038-0.132c0.526-0.09,0.937-0.202,1.233-0.342
			c0.296-0.137,0.498-0.285,0.604-0.446c0.106-0.163,0.159-0.318,0.159-0.468c0-0.232-0.106-0.438-0.317-0.608
			c-0.212-0.172-0.501-0.324-0.868-0.456c-0.367-0.13-0.794-0.249-1.281-0.359c-0.487-0.107-1.004-0.22-1.55-0.327
			c-0.547-0.108-1.11-0.228-1.689-0.354c-0.579-0.127-1.142-0.277-1.688-0.449c-0.547-0.172-1.064-0.374-1.551-0.604
			c-0.487-0.23-0.915-0.5-1.281-0.814c-0.368-0.314-0.657-0.678-0.869-1.092c-0.211-0.412-0.317-0.891-0.317-1.436
			c0-0.643,0.113-1.195,0.339-1.66c0.225-0.468,0.531-0.863,0.916-1.191c0.385-0.329,0.83-0.594,1.334-0.801
			c0.504-0.204,1.035-0.362,1.593-0.476c0.557-0.112,1.122-0.19,1.694-0.233c0.572-0.042,1.115-0.062,1.63-0.062
			c0.564,0,1.145,0.026,1.741,0.085c0.596,0.056,1.184,0.135,1.763,0.236c0.578,0.104,1.138,0.221,1.678,0.355
			c0.54,0.133,1.039,0.273,1.498,0.424L178.662,5.525L178.662,5.525z"/>
		<path fill="#F6D7B7" d="M194.235,11.359c-0.148,0.135-0.309,0.272-0.482,0.413c-0.173,0.143-0.377,0.269-0.614,0.382
			c-0.237,0.112-0.51,0.205-0.821,0.279c-0.311,0.073-0.677,0.111-1.101,0.111c-0.487,0-0.942-0.067-1.365-0.201
			c-0.424-0.133-0.794-0.333-1.112-0.598c-0.317-0.267-0.567-0.593-0.746-0.98c-0.181-0.387-0.27-0.832-0.27-1.333
			c0-0.509,0.074-0.975,0.222-1.396c0.148-0.425,0.346-0.808,0.593-1.148c0.247-0.342,0.529-0.643,0.847-0.9
			c0.317-0.258,0.65-0.471,1-0.641c0.349-0.17,0.698-0.298,1.047-0.387c0.35-0.086,0.676-0.132,0.979-0.132
			c0.487,0,0.886,0.062,1.197,0.189c0.31,0.127,0.546,0.247,0.709,0.361l0.085-0.394h2.466l-0.646,3.938
			c-0.008,0.021-0.018,0.078-0.032,0.17c-0.014,0.092-0.028,0.191-0.042,0.296c-0.015,0.106-0.026,0.204-0.038,0.292
			c-0.01,0.088-0.016,0.139-0.016,0.152c0,0.078,0.009,0.163,0.027,0.256c0.018,0.09,0.052,0.175,0.106,0.253
			c0.053,0.078,0.125,0.144,0.217,0.196c0.091,0.053,0.211,0.078,0.36,0.078c0.395,0,0.723-0.105,0.985-0.316
			c0.26-0.211,0.467-0.472,0.62-0.779c0.151-0.305,0.259-0.631,0.322-0.973c0.064-0.342,0.095-0.647,0.095-0.916
			c0-0.601-0.097-1.159-0.291-1.678c-0.194-0.521-0.521-0.97-0.979-1.351c-0.459-0.382-1.064-0.682-1.815-0.899
			c-0.752-0.22-1.682-0.328-2.79-0.328c-0.826,0-1.576,0.078-2.249,0.231c-0.674,0.156-1.274,0.367-1.8,0.636
			c-0.526,0.269-0.98,0.588-1.361,0.952c-0.38,0.367-0.697,0.764-0.947,1.188c-0.25,0.423-0.436,0.864-0.556,1.323
			s-0.18,0.918-0.18,1.375c0,0.665,0.102,1.289,0.307,1.875s0.554,1.098,1.048,1.535c0.494,0.437,1.149,0.782,1.964,1.036
			c0.814,0.255,1.833,0.382,3.054,0.382c0.409,0,0.785-0.011,1.127-0.031c0.343-0.021,0.658-0.054,0.948-0.096
			c0.289-0.043,0.559-0.095,0.81-0.154c0.25-0.06,0.496-0.132,0.736-0.217l0.678,2.373c-0.262,0.091-0.567,0.173-0.916,0.249
			c-0.35,0.072-0.719,0.136-1.106,0.189c-0.388,0.053-0.785,0.094-1.191,0.121c-0.406,0.028-0.796,0.043-1.17,0.043
			c-1.581,0-2.961-0.17-4.14-0.508c-1.178-0.339-2.158-0.827-2.937-1.463c-0.78-0.635-1.365-1.402-1.753-2.301
			c-0.388-0.901-0.582-1.911-0.582-3.035c0-0.754,0.115-1.479,0.345-2.174c0.229-0.695,0.557-1.348,0.984-1.953
			c0.427-0.607,0.944-1.159,1.551-1.658c0.606-0.496,1.286-0.926,2.038-1.286c0.751-0.36,1.57-0.636,2.456-0.831
			c0.886-0.193,1.819-0.29,2.8-0.29c1.037,0,1.981,0.085,2.832,0.255c0.85,0.168,1.609,0.404,2.276,0.708
			c0.667,0.305,1.244,0.665,1.731,1.085s0.891,0.878,1.212,1.371c0.321,0.494,0.559,1.019,0.714,1.571
			c0.156,0.555,0.233,1.121,0.233,1.7c0,0.647-0.104,1.271-0.312,1.866c-0.208,0.599-0.523,1.125-0.947,1.584
			c-0.423,0.459-0.959,0.826-1.609,1.103c-0.649,0.273-1.416,0.412-2.297,0.412c-0.276,0-0.544-0.025-0.805-0.074
			c-0.261-0.049-0.501-0.123-0.72-0.222c-0.219-0.101-0.415-0.225-0.587-0.372C194.459,11.73,194.326,11.557,194.235,11.359z
			 M191.673,10.682c0.239,0,0.451-0.032,0.635-0.094c0.184-0.065,0.35-0.15,0.498-0.255c0.148-0.107,0.285-0.229,0.407-0.372
			c0.124-0.142,0.239-0.289,0.345-0.443l0.392-2.171c-0.07-0.104-0.159-0.199-0.264-0.28c-0.106-0.08-0.218-0.149-0.334-0.206
			c-0.117-0.058-0.238-0.099-0.365-0.127s-0.247-0.044-0.36-0.044c-0.318,0-0.62,0.072-0.905,0.213
			c-0.287,0.142-0.535,0.33-0.747,0.565c-0.212,0.238-0.379,0.514-0.502,0.832c-0.124,0.316-0.186,0.656-0.186,1.017
			c0,0.185,0.024,0.359,0.074,0.523c0.049,0.166,0.131,0.311,0.243,0.435c0.113,0.124,0.258,0.223,0.435,0.296
			C191.213,10.645,191.425,10.682,191.673,10.682z"/>
	</g>
</g>
<g>
	<g>
		<path fill="#F6D7B7" d="M643.071,16.435h-4.355l7.544-11.31h-9.827V1.979h14.437v2.673L643.071,16.435z"/>
		<path fill="#F6D7B7" d="M662.147,4.546c-0.927,0-1.729,0.088-2.411,0.263c-0.68,0.176-1.245,0.419-1.693,0.731
			c-0.448,0.312-0.788,0.677-1.016,1.094c-0.228,0.418-0.354,0.868-0.383,1.353c0.363-0.176,0.749-0.342,1.152-0.5
			c0.403-0.158,0.835-0.298,1.297-0.42c0.465-0.123,0.96-0.219,1.491-0.29c0.527-0.07,1.098-0.105,1.707-0.105
			c0.935,0,1.8,0.092,2.601,0.273c0.8,0.182,1.495,0.47,2.084,0.863c0.589,0.393,1.051,0.894,1.387,1.505
			c0.338,0.61,0.508,1.339,0.508,2.188c0,0.94-0.197,1.747-0.59,2.42c-0.394,0.673-0.934,1.226-1.622,1.657
			c-0.687,0.432-1.496,0.747-2.431,0.946c-0.932,0.2-1.943,0.301-3.029,0.301c-1.256,0-2.398-0.155-3.432-0.463
			c-1.03-0.309-1.916-0.771-2.66-1.388s-1.319-1.393-1.726-2.326c-0.408-0.933-0.609-2.02-0.609-3.262
			c0-1.066,0.181-2.071,0.542-3.014s0.918-1.768,1.673-2.473c0.753-0.705,1.711-1.263,2.872-1.673
			c1.16-0.411,2.537-0.615,4.128-0.615c0.472,0,0.956,0.018,1.453,0.052c0.497,0.035,0.985,0.083,1.461,0.143
			c0.479,0.059,0.93,0.128,1.352,0.205c0.425,0.078,0.798,0.158,1.122,0.242v3.24c-0.231-0.091-0.514-0.192-0.847-0.305
			s-0.718-0.215-1.157-0.311c-0.438-0.094-0.927-0.174-1.462-0.237C663.372,4.578,662.785,4.546,662.147,4.546z M656.716,11.174
			c0.078,0.296,0.236,0.596,0.479,0.906c0.241,0.309,0.558,0.591,0.947,0.847c0.39,0.256,0.846,0.466,1.368,0.631
			c0.521,0.164,1.105,0.247,1.751,0.247c0.512,0,0.994-0.04,1.447-0.121c0.451-0.081,0.846-0.206,1.178-0.374
			c0.334-0.168,0.597-0.381,0.789-0.637c0.192-0.255,0.289-0.558,0.289-0.911c0-0.378-0.078-0.7-0.23-0.967
			c-0.154-0.267-0.38-0.483-0.674-0.647c-0.295-0.165-0.659-0.286-1.088-0.363c-0.432-0.078-0.925-0.116-1.479-0.116
			c-0.457,0-0.909,0.042-1.363,0.126c-0.452,0.084-0.884,0.195-1.3,0.331c-0.412,0.137-0.8,0.297-1.161,0.479
			C657.308,10.789,656.992,10.978,656.716,11.174z"/>
		<path fill="#F6D7B7" d="M685.031,5.04h-9.616v2.22c0.224-0.042,0.472-0.079,0.746-0.11c0.275-0.032,0.559-0.059,0.853-0.079
			c0.295-0.021,0.594-0.039,0.894-0.053c0.303-0.014,0.601-0.021,0.895-0.021c1.173,0,2.22,0.105,3.142,0.315
			s1.701,0.519,2.339,0.926c0.64,0.407,1.127,0.909,1.465,1.504c0.335,0.596,0.505,1.284,0.505,2.062
			c0,0.723-0.158,1.392-0.47,2.004c-0.312,0.615-0.807,1.144-1.483,1.589c-0.676,0.446-1.555,0.795-2.635,1.048
			c-1.079,0.252-2.389,0.379-3.924,0.379c-0.708,0-1.385-0.026-2.027-0.08c-0.641-0.052-1.241-0.125-1.798-0.216
			c-0.559-0.09-1.067-0.192-1.525-0.305c-0.459-0.111-0.858-0.228-1.194-0.347v-3.408c0.301,0.14,0.658,0.285,1.068,0.437
			c0.411,0.15,0.887,0.287,1.432,0.411c0.542,0.122,1.157,0.223,1.839,0.305c0.687,0.08,1.45,0.12,2.301,0.12
			c1.569,0,2.718-0.167,3.439-0.5c0.723-0.333,1.085-0.791,1.085-1.373c0-0.688-0.395-1.194-1.186-1.52
			c-0.788-0.326-1.927-0.488-3.413-0.488c-0.499,0-0.987,0.016-1.468,0.052c-0.481,0.035-0.937,0.082-1.368,0.143
			c-0.432,0.059-0.833,0.129-1.204,0.21c-0.373,0.081-0.707,0.163-1,0.248h-0.948V1.979h13.259V5.04z"/>
		<path fill="#F6D7B7" d="M702.591,5.04h-9.617v2.22c0.223-0.042,0.473-0.079,0.746-0.11c0.274-0.032,0.56-0.059,0.852-0.079
			c0.297-0.021,0.594-0.039,0.895-0.053c0.303-0.014,0.602-0.021,0.894-0.021c1.174,0,2.221,0.105,3.143,0.315
			c0.923,0.21,1.702,0.519,2.34,0.926c0.638,0.407,1.127,0.909,1.464,1.504c0.336,0.596,0.505,1.284,0.505,2.062
			c0,0.723-0.157,1.392-0.469,2.004c-0.312,0.615-0.808,1.144-1.483,1.589c-0.676,0.446-1.556,0.795-2.635,1.048
			c-1.08,0.252-2.39,0.379-3.924,0.379c-0.709,0-1.385-0.026-2.027-0.08c-0.641-0.052-1.242-0.125-1.798-0.216
			c-0.559-0.09-1.068-0.192-1.525-0.305c-0.46-0.111-0.858-0.228-1.194-0.347v-3.408c0.3,0.14,0.656,0.285,1.067,0.437
			c0.41,0.15,0.888,0.287,1.432,0.411c0.542,0.122,1.156,0.223,1.84,0.305c0.685,0.08,1.45,0.12,2.299,0.12
			c1.57,0,2.718-0.167,3.441-0.5c0.722-0.333,1.083-0.791,1.083-1.373c0-0.688-0.394-1.194-1.185-1.52
			c-0.789-0.326-1.926-0.488-3.412-0.488c-0.499,0-0.988,0.016-1.469,0.052c-0.481,0.035-0.937,0.082-1.368,0.143
			c-0.432,0.059-0.833,0.129-1.203,0.21c-0.374,0.081-0.707,0.163-1,0.248h-0.948V1.979h13.259V5.04z"/>
	</g>
	<path fill="#F6D7B7" d="M504.594,9.282c0,0.655,0.059,1.261,0.178,1.814c0.122,0.554,0.303,1.083,0.55,1.591
		c0.249,0.506,0.559,1.002,0.936,1.479c0.377,0.478,0.827,0.975,1.349,1.479l-2.188,2.358c-0.649-0.514-1.237-1.069-1.771-1.659
		c-0.533-0.594-0.99-1.241-1.377-1.947c-0.383-0.704-0.681-1.478-0.892-2.321c-0.211-0.842-0.317-1.776-0.317-2.797
		c0-1.024,0.106-1.956,0.317-2.798c0.211-0.843,0.509-1.616,0.892-2.322c0.385-0.705,0.844-1.353,1.377-1.941
		c0.534-0.588,1.122-1.144,1.771-1.665l2.188,2.358c-0.521,0.508-0.972,1.002-1.349,1.481c-0.377,0.477-0.687,0.972-0.936,1.479
		c-0.247,0.508-0.428,1.038-0.55,1.592C504.653,8.021,504.594,8.627,504.594,9.282z"/>
	<path fill="#F6D7B7" d="M520.235,4.565c-0.93,0-1.735,0.087-2.422,0.264c-0.684,0.176-1.251,0.42-1.702,0.735
		c-0.451,0.313-0.793,0.681-1.022,1.099c-0.229,0.42-0.357,0.874-0.385,1.358c0.369-0.175,0.752-0.342,1.158-0.502
		c0.404-0.157,0.841-0.3,1.305-0.423c0.468-0.123,0.966-0.221,1.497-0.291c0.531-0.07,1.105-0.105,1.719-0.105
		c0.938,0,1.81,0.091,2.614,0.274c0.803,0.185,1.499,0.473,2.093,0.867c0.594,0.396,1.06,0.9,1.396,1.514
		c0.338,0.613,0.509,1.344,0.509,2.199c0,0.946-0.198,1.756-0.593,2.431c-0.395,0.678-0.938,1.233-1.629,1.666
		c-0.69,0.434-1.506,0.751-2.443,0.953c-0.936,0.202-1.951,0.303-3.043,0.303c-1.262,0-2.412-0.155-3.449-0.467
		c-1.037-0.31-1.929-0.774-2.679-1.396c-0.746-0.62-1.323-1.398-1.731-2.336c-0.41-0.938-0.612-2.031-0.612-3.279
		c0-1.072,0.18-2.082,0.541-3.028c0.365-0.948,0.926-1.778,1.681-2.485c0.76-0.708,1.722-1.27,2.89-1.682
		c1.164-0.413,2.548-0.62,4.151-0.62c0.473,0,0.96,0.019,1.456,0.054c0.503,0.033,0.993,0.082,1.474,0.144
		c0.478,0.058,0.931,0.126,1.359,0.205c0.426,0.077,0.802,0.159,1.126,0.243v3.257c-0.233-0.092-0.518-0.194-0.852-0.305
		c-0.336-0.113-0.725-0.219-1.164-0.312c-0.443-0.096-0.931-0.176-1.471-0.24S520.88,4.565,520.235,4.565z M514.778,11.227
		c0.077,0.298,0.237,0.601,0.481,0.911c0.242,0.31,0.562,0.593,0.951,0.85c0.391,0.258,0.849,0.469,1.374,0.634
		c0.527,0.166,1.114,0.249,1.763,0.249c0.516,0,0.999-0.04,1.454-0.124c0.455-0.081,0.85-0.207,1.185-0.374
		c0.333-0.17,0.601-0.381,0.793-0.64c0.194-0.257,0.29-0.562,0.29-0.915c0-0.38-0.076-0.706-0.229-0.974
		c-0.157-0.268-0.383-0.484-0.679-0.65c-0.297-0.165-0.662-0.288-1.094-0.365c-0.434-0.078-0.929-0.119-1.484-0.119
		c-0.461,0-0.918,0.043-1.371,0.129c-0.456,0.083-0.89,0.197-1.307,0.33c-0.415,0.139-0.806,0.299-1.171,0.483
		C515.373,10.841,515.055,11.03,514.778,11.227z"/>
	<path fill="#F6D7B7" d="M538.756,4.565c-0.931,0-1.738,0.087-2.423,0.264c-0.684,0.176-1.252,0.42-1.703,0.735
		c-0.451,0.313-0.789,0.681-1.021,1.099c-0.229,0.42-0.357,0.874-0.386,1.358c0.367-0.175,0.754-0.342,1.158-0.502
		c0.404-0.157,0.842-0.3,1.306-0.423c0.466-0.123,0.964-0.221,1.496-0.291c0.533-0.07,1.106-0.105,1.721-0.105
		c0.937,0,1.809,0.091,2.611,0.274c0.805,0.185,1.502,0.473,2.096,0.867c0.591,0.396,1.056,0.9,1.396,1.514
		c0.338,0.613,0.508,1.344,0.508,2.199c0,0.946-0.199,1.756-0.594,2.431c-0.395,0.678-0.937,1.233-1.627,1.666
		c-0.691,0.434-1.504,0.751-2.442,0.953s-1.953,0.303-3.046,0.303c-1.264,0-2.414-0.155-3.449-0.467
		c-1.035-0.31-1.928-0.774-2.675-1.396c-0.748-0.62-1.327-1.398-1.735-2.336s-0.614-2.031-0.614-3.279
		c0-1.072,0.181-2.082,0.545-3.028c0.363-0.948,0.924-1.778,1.683-2.485c0.756-0.708,1.72-1.27,2.886-1.682
		c1.165-0.413,2.552-0.62,4.151-0.62c0.474,0,0.959,0.019,1.46,0.054c0.501,0.033,0.989,0.082,1.47,0.144
		c0.479,0.058,0.933,0.126,1.359,0.205c0.425,0.077,0.803,0.159,1.127,0.243v3.257c-0.23-0.092-0.518-0.194-0.852-0.305
		c-0.333-0.113-0.724-0.219-1.163-0.312c-0.439-0.096-0.931-0.176-1.472-0.24C539.988,4.595,539.398,4.565,538.756,4.565z
		 M533.301,11.227c0.075,0.298,0.235,0.601,0.477,0.911c0.243,0.31,0.562,0.593,0.953,0.85c0.392,0.258,0.851,0.469,1.376,0.634
		c0.526,0.168,1.112,0.249,1.76,0.249c0.516,0,1-0.04,1.455-0.124c0.456-0.082,0.85-0.207,1.185-0.374
		c0.334-0.17,0.599-0.381,0.793-0.64c0.193-0.257,0.291-0.562,0.291-0.915c0-0.38-0.077-0.706-0.231-0.974
		c-0.157-0.268-0.381-0.484-0.678-0.65c-0.296-0.165-0.662-0.288-1.095-0.365c-0.434-0.078-0.929-0.119-1.484-0.119
		c-0.457,0-0.917,0.043-1.372,0.129c-0.453,0.083-0.888,0.197-1.305,0.33c-0.417,0.139-0.805,0.299-1.17,0.483
		C533.892,10.841,533.574,11.03,533.301,11.227z"/>
	<path fill="#F6D7B7" d="M550.708,16.516V4.883l-3.903,1.218V3.189l3.903-1.207h3.901v14.534H550.708z"/>
	<path fill="#F6D7B7" d="M561.951,9.282c0-0.655-0.062-1.261-0.182-1.815c-0.119-0.554-0.302-1.083-0.549-1.592
		c-0.245-0.508-0.56-1.002-0.936-1.479c-0.377-0.48-0.827-0.975-1.35-1.482l1.323-1.428V1.465l0.866-0.909
		c0.642,0.485,1.221,1.025,1.734,1.619c0.387,0.436,0.742,0.903,1.058,1.396c0.317,0.494,0.589,1.021,0.815,1.582
		s0.404,1.162,0.533,1.804c0.13,0.641,0.203,1.328,0.217,2.061v0.266c0,0.776-0.062,1.496-0.186,2.168
		c-0.122,0.669-0.298,1.293-0.521,1.876c-0.226,0.578-0.503,1.125-0.826,1.627c-0.324,0.502-0.688,0.981-1.09,1.434
		c-0.239,0.268-0.486,0.524-0.746,0.768c-0.257,0.241-0.519,0.476-0.787,0.702c-0.035,0.022-0.069,0.042-0.1,0.065
		c-0.033,0.021-0.064,0.049-0.102,0.082l-0.866-0.908v-0.021l-1.323-1.429c0.522-0.507,0.972-1.002,1.347-1.479
		c0.377-0.477,0.691-0.973,0.937-1.479c0.248-0.509,0.432-1.038,0.55-1.591C561.889,10.543,561.951,9.938,561.951,9.282z"/>
	<path fill="#F6D7B7" d="M586.487,8.763c0.726,0.162,1.348,0.358,1.862,0.588c0.515,0.228,0.935,0.493,1.258,0.791
		c0.325,0.3,0.562,0.636,0.709,1.006c0.148,0.37,0.223,0.773,0.223,1.212c0,0.761-0.205,1.428-0.618,1.996
		c-0.411,0.57-0.983,1.044-1.713,1.423c-0.73,0.377-1.594,0.66-2.586,0.847c-0.995,0.188-2.07,0.281-3.227,0.281
		c-0.777,0-1.488-0.034-2.136-0.101c-0.649-0.068-1.246-0.154-1.793-0.26s-1.049-0.223-1.507-0.354
		c-0.46-0.129-0.886-0.262-1.28-0.396v-3.478c0.438,0.232,0.929,0.438,1.476,0.624c0.547,0.183,1.11,0.339,1.692,0.472
		c0.582,0.131,1.168,0.23,1.76,0.296c0.593,0.067,1.154,0.101,1.681,0.101c0.96,0,1.724-0.059,2.297-0.176
		c0.57-0.116,1.004-0.266,1.299-0.443c0.297-0.179,0.489-0.372,0.578-0.576c0.087-0.204,0.132-0.399,0.132-0.581
		c0-0.312-0.102-0.58-0.303-0.805c-0.2-0.225-0.553-0.413-1.058-0.561c-0.503-0.147-1.187-0.258-2.045-0.331
		c-0.864-0.075-1.946-0.117-3.259-0.123V7.337c1.191,0,2.179-0.026,2.966-0.076c0.786-0.048,1.416-0.125,1.889-0.231
		c0.473-0.107,0.806-0.243,1-0.414c0.194-0.169,0.29-0.377,0.29-0.625c0-0.078-0.014-0.162-0.036-0.254
		c-0.024-0.091-0.08-0.186-0.165-0.284c-0.085-0.1-0.209-0.195-0.371-0.285c-0.162-0.091-0.382-0.173-0.666-0.244
		c-0.281-0.071-0.632-0.127-1.048-0.171c-0.416-0.041-0.917-0.062-1.502-0.062c-0.55,0-1.107,0.027-1.677,0.083
		c-0.566,0.057-1.124,0.141-1.666,0.254c-0.542,0.114-1.067,0.25-1.577,0.413c-0.507,0.163-0.976,0.352-1.406,0.572V2.544
		c0.96-0.319,1.985-0.552,3.08-0.705c1.092-0.151,2.178-0.227,3.246-0.227c1.052,0,2.043,0.07,2.979,0.213
		c0.933,0.139,1.751,0.365,2.453,0.673c0.701,0.306,1.255,0.703,1.666,1.194c0.409,0.491,0.613,1.083,0.613,1.783
		c0,0.373-0.066,0.726-0.196,1.061c-0.128,0.335-0.337,0.643-0.619,0.925c-0.28,0.284-0.646,0.533-1.087,0.752
		C587.65,8.433,587.117,8.615,586.487,8.763z"/>
	<path fill="#F6D7B7" d="M599.01,16.516h-4.379l7.583-11.373h-9.879V1.983h14.51V4.67L599.01,16.516z"/>
	<path fill="#F6D7B7" d="M622.668,5.061h-9.666v2.231c0.226-0.041,0.478-0.078,0.752-0.11c0.274-0.033,0.561-0.06,0.855-0.078
		c0.297-0.024,0.597-0.041,0.899-0.054c0.304-0.015,0.604-0.022,0.899-0.022c1.177,0,2.229,0.105,3.157,0.317
		c0.928,0.21,1.711,0.521,2.352,0.931c0.642,0.409,1.132,0.913,1.472,1.511c0.339,0.601,0.509,1.291,0.509,2.076
		c0,0.727-0.158,1.397-0.471,2.014c-0.315,0.618-0.81,1.147-1.491,1.598c-0.68,0.447-1.564,0.798-2.651,1.051
		c-1.083,0.253-2.4,0.381-3.944,0.381c-0.711,0-1.392-0.027-2.034-0.08c-0.646-0.052-1.246-0.124-1.81-0.216
		c-0.561-0.093-1.072-0.193-1.532-0.307c-0.462-0.113-0.861-0.229-1.201-0.35v-3.427c0.302,0.142,0.661,0.289,1.074,0.438
		c0.413,0.153,0.892,0.29,1.439,0.415c0.546,0.125,1.164,0.225,1.851,0.308c0.685,0.078,1.455,0.122,2.31,0.122
		c1.579,0,2.73-0.167,3.458-0.502c0.729-0.336,1.09-0.795,1.09-1.38c0-0.69-0.395-1.201-1.189-1.53
		c-0.791-0.325-1.937-0.489-3.432-0.489c-0.499,0-0.99,0.017-1.476,0.052c-0.481,0.034-0.941,0.083-1.375,0.142
		c-0.435,0.062-0.836,0.132-1.211,0.213c-0.376,0.081-0.712,0.164-1.005,0.249h-0.952v-8.58h13.326v3.079H622.668z"/>
	<path fill="#F6D7B7" d="M626.667,10.993v-3.47h8.673v3.47H626.667z"/>
</g>
</svg>
