<?xml version="1.0" encoding="utf-8"?>
<!-- Generator: Adobe Illustrator 16.0.0, SVG Export Plug-In . SVG Version: 6.00 Build 0)  -->
<!DOCTYPE svg PUBLIC "-//W3C//DTD SVG 1.1//EN" "http://www.w3.org/Graphics/SVG/1.1/DTD/svg11.dtd">
<svg version="1.1" id="Layer_1" xmlns="http://www.w3.org/2000/svg" xmlns:xlink="http://www.w3.org/1999/xlink" x="0px" y="0px"
	 width="500px" height="88.956px" viewBox="0 0 500 88.956" enable-background="new 0 0 500 88.956" xml:space="preserve">
<g>
	<g>
		<path fill="#F5D7B8" d="M0,64.71V51.53l41.472-36.099H1.239V1.607h64.711v11.573L22.596,50.886h44.273V64.71H0z"/>
		<path fill="#F5D7B8" d="M152.752,61.586c-5.175,1.716-10.342,2.948-15.5,3.698c-5.16,0.749-10.433,1.124-15.822,1.124
			c-6.889,0-13.021-0.741-18.394-2.228c-5.373-1.483-9.897-3.635-13.571-6.452c-3.674-2.816-6.475-6.261-8.405-10.333
			c-1.929-4.072-2.893-8.681-2.893-13.824c0-4.776,0.972-9.208,2.916-13.296c1.944-4.087,4.7-7.639,8.267-10.655
			c3.566-3.016,7.876-5.374,12.928-7.073C107.331,0.85,112.964,0,119.18,0c5.725,0,10.968,0.773,15.729,2.319
			c4.76,1.546,8.847,3.835,12.262,6.866c3.414,3.031,6.062,6.768,7.945,11.206c1.883,4.44,2.825,9.554,2.825,15.339v4.226H95.757
			c0.551,1.99,1.461,3.812,2.732,5.466c1.27,1.653,2.992,3.062,5.166,4.225s4.846,2.067,8.014,2.709
			c3.169,0.645,6.958,0.966,11.367,0.966c3.123,0,6.184-0.191,9.186-0.574c3-0.384,5.801-0.888,8.404-1.516
			c2.602-0.628,4.952-1.324,7.05-2.09c2.097-0.766,3.789-1.531,5.075-2.296V61.586z M140.994,27.464
			c-0.153-1.562-0.62-3.176-1.4-4.845c-0.781-1.668-2.014-3.176-3.697-4.524c-1.684-1.347-3.889-2.457-6.614-3.33
			c-2.725-0.873-6.124-1.309-10.196-1.309c-3.827,0-7.134,0.475-9.92,1.423c-2.787,0.95-5.121,2.128-7.004,3.536
			c-1.883,1.409-3.345,2.925-4.386,4.547s-1.715,3.123-2.02,4.5H140.994z"/>
		<path fill="#F5D7B8" d="M244.328,23.147c0,3.153-0.46,6.054-1.378,8.703c-0.918,2.648-2.395,4.93-4.432,6.843
			s-4.677,3.406-7.923,4.478c-3.245,1.071-7.195,1.607-11.849,1.607h-28.291V64.71h-17.039V1.607h45.329
			c4.653,0,8.604,0.528,11.849,1.584c3.246,1.056,5.886,2.542,7.923,4.455c2.037,1.914,3.514,4.188,4.432,6.82
			C243.868,17.1,244.328,19.994,244.328,23.147z M227.105,23.422c0-1.47-0.207-2.733-0.62-3.79c-0.413-1.056-1.095-1.92-2.044-2.594
			c-0.948-0.673-2.188-1.171-3.72-1.493s-3.414-0.482-5.648-0.482h-24.617v16.258h24.617c2.234,0,4.117-0.13,5.648-0.391
			c1.531-0.26,2.771-0.704,3.72-1.332c0.949-0.627,1.631-1.447,2.044-2.457C226.898,26.131,227.105,24.892,227.105,23.422z"/>
		<path fill="#F5D7B8" d="M318.821,64.71V38.395h-43.354V64.71h-17.04V1.607h17.04V24.57h43.354V1.607h17.039V64.71H318.821z"/>
		<path fill="#F5D7B8" d="M411.661,15.271c-0.873-0.26-1.891-0.521-3.054-0.781c-1.164-0.259-2.442-0.482-3.834-0.665
			c-1.395-0.184-2.825-0.276-4.296-0.276c-3.061,0-5.917,0.376-8.563,1.125c-2.649,0.75-5.121,1.745-7.419,2.985
			c-2.296,1.241-4.432,2.649-6.405,4.225c-1.975,1.577-3.79,3.192-5.443,4.846V64.71h-17.039V1.607h17.039v10.241
			c2.052-1.53,4.157-3.007,6.315-4.431c2.158-1.423,4.409-2.687,6.752-3.789c2.342-1.103,4.813-1.982,7.417-2.641
			C395.731,0.329,398.487,0,401.396,0c1.104,0,2.228,0.054,3.377,0.161c1.146,0.108,2.265,0.237,3.353,0.39
			c1.085,0.154,2.104,0.322,3.053,0.506c0.95,0.183,1.776,0.367,2.48,0.551v14.283C413.2,15.738,412.534,15.531,411.661,15.271z"/>
		<path fill="#F5D7B8" d="M494.811,61.586c-5.175,1.716-10.341,2.948-15.501,3.698c-5.158,0.749-10.434,1.124-15.82,1.124
			c-6.89,0-13.021-0.741-18.394-2.228c-5.374-1.483-9.897-3.635-13.571-6.452c-3.675-2.816-6.477-6.261-8.404-10.333
			c-1.929-4.072-2.895-8.681-2.895-13.824c0-4.776,0.973-9.208,2.917-13.296s4.699-7.639,8.266-10.655
			c3.567-3.016,7.878-5.374,12.93-7.073C449.389,0.85,455.022,0,461.238,0c5.726,0,10.97,0.773,15.73,2.319
			c4.761,1.546,8.848,3.835,12.262,6.866c3.415,3.031,6.062,6.768,7.946,11.206c1.882,4.44,2.823,9.554,2.823,15.339v4.226h-62.185
			c0.551,1.99,1.463,3.812,2.733,5.466s2.992,3.062,5.166,4.225c2.175,1.163,4.845,2.067,8.015,2.709
			c3.169,0.645,6.958,0.966,11.366,0.966c3.123,0,6.186-0.191,9.186-0.574c3.001-0.384,5.803-0.888,8.405-1.516
			c2.602-0.628,4.952-1.324,7.049-2.09c2.099-0.766,3.789-1.531,5.075-2.296V61.586z M483.053,27.464
			c-0.153-1.562-0.619-3.176-1.4-4.845c-0.78-1.668-2.013-3.176-3.697-4.524c-1.685-1.347-3.888-2.457-6.612-3.33
			c-2.726-0.873-6.125-1.309-10.196-1.309c-3.828,0-7.135,0.475-9.919,1.423c-2.787,0.95-5.121,2.128-7.005,3.536
			c-1.883,1.409-3.346,2.925-4.386,4.547c-1.042,1.623-1.715,3.123-2.021,4.5H483.053z"/>
	</g>
	<g>
		<path fill="#F5D7B8" d="M337.249,88.956V72.734h17.078v16.222H337.249z"/>
	</g>
</g>
</svg>
