<?xml version="1.0" encoding="utf-8"?>
<!-- Generator: Adobe Illustrator 16.0.0, SVG Export Plug-In . SVG Version: 6.00 Build 0)  -->
<!DOCTYPE svg PUBLIC "-//W3C//DTD SVG 1.1//EN" "http://www.w3.org/Graphics/SVG/1.1/DTD/svg11.dtd">
<svg version="1.1" id="Layer_1" xmlns="http://www.w3.org/2000/svg" xmlns:xlink="http://www.w3.org/1999/xlink" x="0px" y="0px"
	 width="260px" height="46.258px" viewBox="0 0 260 46.258" enable-background="new 0 0 260 46.258" xml:space="preserve">
<g>
	<g>
		<path fill="#F5D7B8" d="M0,33.649v-6.854L21.565,8.024H0.645V0.837h33.65v6.018L11.75,26.461h23.022v7.188H0z"/>
		<path fill="#F5D7B8" d="M79.431,32.025c-2.691,0.893-5.378,1.533-8.061,1.923c-2.683,0.391-5.425,0.585-8.228,0.585
			c-3.582,0-6.771-0.386-9.564-1.158c-2.793-0.771-5.146-1.891-7.057-3.354c-1.91-1.466-3.367-3.257-4.37-5.374
			c-1.003-2.118-1.505-4.514-1.505-7.188c0-2.483,0.506-4.788,1.517-6.914c1.011-2.125,2.444-3.972,4.299-5.539
			c1.854-1.569,4.095-2.795,6.723-3.68C55.812,0.442,58.741,0,61.974,0c2.977,0,5.703,0.403,8.179,1.207
			c2.476,0.804,4.601,1.993,6.376,3.569c1.775,1.576,3.152,3.52,4.131,5.827c0.979,2.31,1.469,4.968,1.469,7.977v2.198H49.794
			c0.286,1.034,0.76,1.982,1.421,2.841c0.66,0.86,1.556,1.593,2.686,2.197c1.13,0.605,2.52,1.076,4.167,1.408
			c1.647,0.335,3.618,0.503,5.911,0.503c1.624,0,3.216-0.1,4.776-0.298c1.56-0.2,3.017-0.463,4.37-0.788
			c1.353-0.327,2.575-0.689,3.666-1.087c1.09-0.398,1.97-0.797,2.639-1.195V32.025z M73.317,14.282
			c-0.08-0.812-0.323-1.652-0.729-2.52c-0.406-0.867-1.047-1.652-1.922-2.353c-0.875-0.701-2.022-1.277-3.439-1.731
			c-1.417-0.454-3.185-0.681-5.302-0.681c-1.99,0-3.709,0.246-5.158,0.74c-1.449,0.493-2.663,1.107-3.643,1.839
			c-0.979,0.732-1.739,1.521-2.28,2.365c-0.542,0.843-0.892,1.623-1.05,2.34H73.317z"/>
		<path fill="#F5D7B8" d="M127.051,12.037c0,1.639-0.239,3.147-0.716,4.526c-0.478,1.377-1.246,2.562-2.305,3.558
			c-1.061,0.995-2.433,1.771-4.121,2.328c-1.687,0.557-3.741,0.837-6.161,0.837H99.037v10.363h-8.86V0.837h23.571
			c2.42,0,4.475,0.274,6.161,0.823c1.688,0.55,3.061,1.321,4.121,2.316c1.059,0.996,1.827,2.178,2.305,3.547
			C126.812,8.893,127.051,10.396,127.051,12.037z M118.095,12.181c0-0.765-0.107-1.421-0.322-1.971
			c-0.215-0.549-0.569-0.999-1.063-1.35c-0.493-0.349-1.138-0.608-1.935-0.775c-0.796-0.168-1.774-0.251-2.937-0.251H99.037v8.453
			h12.801c1.162,0,2.141-0.066,2.937-0.203c0.797-0.135,1.441-0.365,1.935-0.692c0.494-0.326,0.849-0.751,1.063-1.276
			S118.095,12.944,118.095,12.181z"/>
		<path fill="#F5D7B8" d="M165.787,33.649V19.967h-22.544v13.683h-8.86V0.837h8.86v11.94h22.544V0.837h8.86v32.812H165.787z"/>
		<path fill="#F5D7B8" d="M214.064,7.941c-0.454-0.136-0.983-0.271-1.588-0.406c-0.606-0.136-1.271-0.251-1.995-0.346
			c-0.725-0.097-1.469-0.145-2.233-0.145c-1.592,0-3.076,0.196-4.453,0.586c-1.377,0.391-2.662,0.908-3.857,1.552
			c-1.193,0.646-2.305,1.378-3.331,2.197c-1.026,0.82-1.971,1.66-2.83,2.52v19.75h-8.86V0.837h8.86v5.325
			c1.066-0.796,2.162-1.563,3.283-2.305c1.123-0.74,2.294-1.397,3.512-1.97c1.218-0.573,2.503-1.031,3.856-1.374
			C205.78,0.172,207.214,0,208.727,0c0.573,0,1.158,0.029,1.755,0.084c0.597,0.057,1.179,0.123,1.744,0.203
			c0.564,0.08,1.094,0.168,1.588,0.263c0.493,0.095,0.923,0.191,1.289,0.287v7.427C214.864,8.185,214.518,8.076,214.064,7.941z"/>
		<path fill="#F5D7B8" d="M257.301,32.025c-2.69,0.893-5.377,1.533-8.06,1.923c-2.683,0.391-5.426,0.585-8.227,0.585
			c-3.583,0-6.771-0.386-9.564-1.158c-2.795-0.771-5.146-1.891-7.057-3.354c-1.912-1.466-3.369-3.257-4.371-5.374
			c-1.003-2.118-1.505-4.514-1.505-7.188c0-2.483,0.506-4.788,1.517-6.914c1.011-2.125,2.444-3.972,4.298-5.539
			c1.855-1.569,4.097-2.795,6.724-3.68C233.683,0.442,236.612,0,239.844,0c2.978,0,5.705,0.403,8.181,1.207
			c2.475,0.804,4.601,1.993,6.376,3.569s3.152,3.52,4.132,5.827c0.979,2.31,1.468,4.968,1.468,7.977v2.198h-32.336
			c0.286,1.034,0.761,1.982,1.421,2.841c0.661,0.86,1.556,1.593,2.688,2.197c1.13,0.605,2.519,1.076,4.166,1.408
			c1.648,0.335,3.619,0.503,5.911,0.503c1.624,0,3.217-0.1,4.776-0.298c1.561-0.2,3.018-0.463,4.371-0.788
			c1.353-0.327,2.575-0.689,3.665-1.087c1.092-0.398,1.971-0.797,2.639-1.195V32.025z M251.188,14.282
			c-0.08-0.812-0.321-1.652-0.728-2.52s-1.047-1.652-1.924-2.353c-0.875-0.701-2.021-1.277-3.438-1.731
			c-1.417-0.454-3.185-0.681-5.301-0.681c-1.991,0-3.711,0.246-5.159,0.74c-1.448,0.493-2.662,1.107-3.643,1.839
			c-0.979,0.732-1.739,1.521-2.28,2.365c-0.542,0.843-0.892,1.623-1.051,2.34H251.188z"/>
	</g>
	<g>
		<path fill="#F5D7B8" d="M175.37,46.258v-8.436h8.88v8.436H175.37z"/>
	</g>
</g>
</svg>
